<?xml version="1.0" encoding="utf-8"?>
<!-- Generator: Adobe Illustrator 26.0.2, SVG Export Plug-In . SVG Version: 6.00 Build 0)  -->
<svg version="1.1" id="Layer_1" xmlns="http://www.w3.org/2000/svg" xmlns:xlink="http://www.w3.org/1999/xlink" x="0px" y="0px"
	 viewBox="0 0 360 360" style="enable-background:new 0 0 360 360;" xml:space="preserve">
<style type="text/css">
	.st0{fill:#B65B4E;}
	.st1{fill:none;}
	.st2{fill:#B55B4E;}
	.st3{fill:#2E2B29;}
	.st4{fill:#7E3E34;}
	.st5{fill:none;stroke:#7E3E34;stroke-width:12;stroke-miterlimit:10;}
	.st6{fill:#222220;}
	.st7{fill:#3C3637;}
	.st8{fill:none;stroke:#B55B4E;stroke-width:2;stroke-miterlimit:10;}
	.st9{fill:none;stroke:#7E3E34;stroke-width:2;stroke-miterlimit:10;}
	.st10{fill:none;stroke:#7E3E34;stroke-miterlimit:10;}
	.st11{fill:none;stroke:#3C3637;stroke-width:12;stroke-miterlimit:10;}
	.st12{fill:none;stroke:#3C3637;stroke-width:2;stroke-miterlimit:10;}
	.st13{fill:none;stroke:#3C3637;stroke-miterlimit:10;}
	.st14{fill:none;stroke:#B55B4E;stroke-width:12;stroke-miterlimit:10;}
	.st15{fill:none;stroke:#B55B4E;stroke-miterlimit:10;}
	.st16{fill:#F7E6E5;}
	.st17{fill:none;stroke:#F7E6E5;stroke-width:12;stroke-miterlimit:10;}
	.st18{fill:none;stroke:#F7E6E5;stroke-width:2;stroke-miterlimit:10;}
	.st19{fill:none;stroke:#F7E6E5;stroke-miterlimit:10;}
</style>
<g>
	<g>
		<g>
			<path class="st16" d="M206.04,166.03C206.04,166.03,206.04,166.04,206.04,166.03C206.05,166,206.05,166.01,206.04,166.03z"/>
			<path class="st16" d="M229.64,121.87c-0.27-0.26-0.59-0.47-0.85-0.75c-0.23-0.25-0.12-0.25,0.15-0.52
				c0.73-0.72,1.4-1.4,1.04-2.52c-0.35-1.09-1.66-1.55-2.64-1.85c-1.03-0.31-2.09-0.46-3.13-0.72c-0.16-0.04-0.3-0.02-0.43,0.02
				c-0.05-0.03-0.1-0.04-0.15-0.05c0.82-0.83,1.54-1.76,2.09-2.85c1.29-1.27,1.1-3.33,0.38-4.93c-0.87-1.96-2.38-3.59-3.8-5.17
				c-1.32-1.47-2.29-3.03-3.25-4.75c-0.98-1.75-2.12-3.55-3.96-4.5c-0.98-0.5-2.2-0.87-3.3-0.79c-0.52,0.04-1.02,0.2-1.51,0.36
				c-0.39,0.13-1.14,0.53-1.57,0.39c-0.61-0.2-0.61-1.6-0.87-2.11c-0.53-1.04-1.64-1.36-2.72-1.53c-0.87-0.14-1.87-0.07-2.67-0.52
				c-1.02-0.58-1.67-1.68-2.64-2.35c-1.94-1.34-4.48-0.73-6.27,0.6c-1.89,1.4-2.87,3.62-3.68,5.76c-0.72,1.91-1.27,4.04-2.45,5.74
				c-0.31-0.63-0.61-1.26-0.89-1.91c-2-4.63-4.57-10.66-10.62-10.23c-1.53,0.11-2.78,0.59-3.94,1.59c-1.04,0.9-1.89,2.17-3.17,2.74
				c-1.47,0.66-3.08-0.12-4.54-0.44c-1.59-0.35-3.09-0.18-4.33,0.96c-0.65,0.6-1.12,1.37-1.51,2.15c-0.39,0.77-0.72,1.65-1.37,2.24
				c-1.06,0.97-2.7,0.83-3.7,1.9c-1.06,1.13-1.31,3.05-0.92,4.5c0.42,1.54,1.53,2.74,2.55,3.91c0.76,0.86,1.44,1.79,2.1,2.73
				c-1.24-0.4-2.55-0.57-3.79-0.3c-1.14,0.24-2.32,1-2.84,2.07c-0.52,1.08-0.22,2.23,0.11,3.32c0.35,1.16,0.64,2.48,0.35,3.69
				c-0.14,0.58-0.48,1.08-0.67,1.64c-0.17,0.52-0.23,1.08-0.18,1.63c0.21,2.17,2.2,3.55,4.24,3.8c1.52,0.19,3.03-0.32,4.56-0.02
				c1.47,0.29,2.66,1.19,3.93,1.92c-0.06,0.12-0.11,0.24-0.15,0.37c-0.48,0.86-0.36,1.81,0.5,2.42c0.89,0.63,1.92,0.4,2.89,0.77
				c1.19,0.45,2.24,1.77,3.12,2.65c1.01,1,2.03,1.99,3.2,2.8c2.3,1.58,5,2.72,7.76,3.16c1.22,0.19,2.49,0.28,3.76,0.21
				c0.01,0.06,0.02,0.13,0.06,0.2c0.79,1.51,1.9,2.78,2.82,4.21c0.48,0.74,0.71,1.52,0.88,2.33c-0.21,1.68-0.25,3.38-0.4,5.07
				c-0.66,4.45-1.33,8.91-2.36,13.29c-1.46,6.23-1.82,12.62-1.57,19c0.25,6.62,0.14,13.27,0.78,19.87
				c0.63,6.47,1.73,12.81,1.33,19.34c-0.43,7.16-2.23,14.09-4.13,20.97c-0.01,0.05-0.01,0.08-0.01,0.13
				c-2.21,6.33-6.6,11.69-10.1,17.34c-2.02,3.26-3.52,6.66-4.96,10.2c-1.55,3.82-3.02,7.74-3.77,11.8c-0.84,4.48-0.81,9.3,1.4,13.4
				c0.25,0.46,0.86,0.39,1.15,0.07c0.22,0.01,0.44-0.11,0.5-0.36c0.44-1.98-0.29-3.77-0.8-5.66c-0.27-1-0.49-2.02-0.66-3.04
				c0.03-1.98,0.23-3.95,0.68-5.88c0.69-2.97,1.81-5.81,3.07-8.58c2.62-5.75,5.56-11.38,8.81-16.8c0.59-0.98,1.12-2.01,1.67-3.03
				c1.27-1.31,2.28-2.83,3.1-4.47c0.07-0.07,0.12-0.14,0.19-0.2c0.18-0.17,0.2-0.36,0.15-0.54c0.1-0.22,0.21-0.43,0.31-0.66
				c1.26-3,2.15-6.19,2.92-9.35c1.58-6.5,2.21-13.16,2.7-19.82c0.24-3.3,0.23-6.62-0.38-9.87c-0.21-3.49-0.82-6.94-1.1-10.43
				c-0.08-0.98-0.12-1.96-0.11-2.94c0.95-9.43,5.35-18.17,12.52-24.58c1.69-1.51,3.51-2.78,5.35-4.05c0.08,0.27,0.22,0.53,0.38,0.78
				c-0.41,1.7,0.72,3.86,1.69,5.11c1.43,1.84,3.52,3.15,5.59,4.17c1.11,0.55,2.26,1.12,3.47,1.42c1.09,0.28,2.18,0.27,3.29,0.13
				c0.89-0.11,1.91-0.29,2.56-0.96c0.62-0.64,0.57-1.3,0.36-1.99c0.41-0.25,0.8-0.6,1.12-0.87c0.46-0.38,0.91-0.82,1.21-1.35
				c0.35-0.63,0.49-1.36,0.45-2.08c-0.05-0.84-0.46-1.74-0.18-2.57c0.27-0.79,0.86-1.34,0.88-2.23c0.01-0.65-0.23-1.29-0.58-1.83
				c-0.35-0.54-0.81-1.01-1.23-1.5c-0.25-0.28-0.49-0.58-0.6-0.93c0-0.01,0-0.02,0-0.03c0.01-0.23-0.02-0.47-0.06-0.7
				c-0.04-0.26-0.12-0.52-0.21-0.77c0.09-0.1,0.18-0.2,0.26-0.31c0.41-0.61,0.72-1.31,0.63-2.06c-0.08-0.77-0.57-1.33-0.95-1.97
				c-0.45-0.75-0.08-1.7-0.34-2.52c-0.12-0.39-0.39-0.78-0.76-0.99c-0.28-0.16-0.82-0.14-0.99-0.35c-0.18-0.23-0.17-0.93-0.18-1.2
				c-0.03-0.49,0.01-0.98,0.03-1.48c0.05-0.95,0.09-1.95-0.27-2.86c-0.19-0.46-0.7-0.79-1.19-0.48c-0.81,0.5-1.43,1.2-2.12,1.84
				c-0.79,0.72-1.76,1.27-2.64,1.88c-1.67,1.17-3.27,2.45-4.63,3.98c-2.2,2.48-3.49,5.41-3.65,8.68c-0.37,0.71-0.85,1.35-1.27,2.03
				c-2.06,1.11-3.99,2.57-5.74,4.06c-2.18,1.86-4.17,3.95-5.92,6.22c-3.42,4.44-5.9,9.59-7.14,15.06c-0.01,0.05-0.02,0.09-0.03,0.14
				c-0.02-1.06-0.04-2.12-0.06-3.17c-0.16-6.48-0.43-12.92,0.76-19.33c0.68-3.65,1.53-7.25,2.06-10.94
				c0.53-3.68,0.91-7.38,1.45-11.06c0.01-0.06,0-0.12-0.01-0.17c0.01-0.03,0.01-0.06,0.02-0.09c0.24-1.07,0.67-2.02,1.1-3.02
				c0.44-1.02,0.86-2.05,1.46-2.99c0.06-0.1,0.08-0.19,0.09-0.29c0.78-0.03,1.56-0.08,2.29-0.17c2.56-0.29,4.78-1.33,6.85-2.83
				c2.16-1.56,4.11-3.4,6.42-4.74c1.21-0.7,2.51-1.09,3.91-1.07c1.12,0.02,2.13-0.01,2.86-0.97c0.14-0.19,0.14-0.48,0.04-0.71
				c1.1-0.55,2.14-0.68,3.33-0.06c1.08,0.56,2.48,0.97,3.47-0.01c0.35-0.35,0.49-0.81,0.79-1.19c0.38-0.48,1.03-0.59,1.6-0.62
				c1.25-0.05,2.47,0.29,3.71,0.27c1.22-0.02,2.29-0.54,2.81-1.69C230.6,123.74,230.47,122.68,229.64,121.87z M222.12,164.15
				c0.3,0.37,0.67,0.77,0.78,1.25c0.15,0.66-0.46,1.19-0.69,1.77c-0.32,0.8-0.28,1.64-0.13,2.47c0.11,0.62,0.26,1.26,0.02,1.87
				c-0.19,0.48-0.59,0.84-0.99,1.15c0,0-0.01,0.01-0.01,0.01c0.07-0.18,0.13-0.36,0.17-0.55c0.14-0.62,0.03-1.21-0.31-1.74
				c-0.33-0.52-0.83-0.92-1.15-1.45c-0.43-0.71-0.52-1.55-0.4-2.36c0.04-0.24-0.03-0.44-0.15-0.6c0.12-0.08,0.23-0.16,0.35-0.24
				c0.62-0.42,1.22-0.75,1.38-1.55c0.15-0.75-0.21-1.3-0.76-1.76c-0.05-0.04-0.07-0.06-0.1-0.07c0,0,0,0,0,0
				c0.01-0.13,0.1-0.24,0.16-0.34c0.09-0.15,0.19-0.29,0.3-0.42C220.76,162.59,221.48,163.38,222.12,164.15z M205.97,166.19
				c-0.02,0.06,0.05-0.11,0.07-0.16c0.01-0.03,0.02-0.06,0.04-0.09c-0.04,0.09,0.01-0.02,0.02-0.04c0.04-0.08,0.08-0.16,0.12-0.24
				c0.16-0.31,0.32-0.63,0.48-0.95c0.22-0.47,0.41-0.98,0.42-1.5c0.06-0.26,0.09-0.53,0.11-0.81c0.04-0.69-0.11-1.38-0.08-2.07
				c0.01-0.24,0.07-0.46,0.12-0.69c0.06-0.22,0.12-0.44,0.2-0.66c0.01-0.03,0.02-0.06,0.03-0.09c0.06-0.18,0.14-0.35,0.21-0.52
				c0.22-0.48,0.47-0.96,0.68-1.43c0.54-0.97,1.22-1.88,2-2.73c1.29-1.4,2.77-2.58,4.34-3.66c0.8-0.55,1.66-1.06,2.4-1.69
				c0.35-0.3,0.67-0.64,1.01-0.95c0.01,1.01-0.23,2.07-0.15,3.06c0.05,0.63,0.11,1.31,0.45,1.85c0.15,0.24,0.37,0.46,0.61,0.6
				c0.15,0.09,0.34,0.15,0.51,0.19c0.08,0.02,0.3,0.09,0.39,0.09c0.02,0.06,0.04,0.12,0.03,0.15c-0.03,0.16,0,0.37,0,0.53
				c0,0.31-0.01,0.61,0.03,0.92c0.1,0.79,0.54,1.31,0.93,1.97c0.62,1.05-0.64,1.94-1.29,2.65c-0.75,0.82-1.77,2.07-1.14,3.24
				c0.11,0.2,0.27,0.4,0.45,0.54c0,0,0.12,0.09,0.2,0.15c-0.01,0.01-0.01,0.01-0.03,0.03c-0.43,0.49-1.26,0.89-1.81,1.26
				c-2.17,1.44-5.04,3.17-7.76,2.69c-1.04-0.19-2.1-0.55-2.99-1.13C206.31,166.54,206.12,166.38,205.97,166.19
				C205.97,166.19,205.98,166.18,205.97,166.19z M206.84,168.9c1.02,0.43,2.11,0.76,3.22,0.83c1.71,0.11,3.42-0.48,4.95-1.18
				c1.02-0.47,1.96-1.04,2.88-1.65c-0.06,0.82,0.03,1.61,0.37,2.4c0.17,0.41,0.39,0.76,0.67,1.11c0.26,0.33,0.72,0.72,0.74,1.17
				c0.02,0.45-0.28,0.94-0.38,1.38c-0.1,0.48-0.08,0.94,0.08,1.41c0.09,0.26,0.49,0.86,0.36,1.14c-0.11,0.23-0.6,0.32-0.81,0.37
				c-1.96,0.48-3.8-0.01-5.58-0.84c-1.77-0.83-3.6-1.72-5.08-3.02c-1.01-0.89-2.02-2.23-2.44-3.65
				C206.14,168.57,206.48,168.75,206.84,168.9z M155.22,103.96c-0.95-1.16-1.53-2.45-1.09-3.95c0.42-1.44,1.63-1.4,2.82-1.94
				c1.54-0.7,2.23-2.03,2.95-3.47c0.73-1.46,1.72-2.66,3.48-2.36c1.48,0.25,2.87,0.96,4.41,0.88c1.41-0.07,2.57-0.76,3.58-1.69
				c0.93-0.86,1.74-1.96,2.91-2.52c2.15-1.03,4.84-0.17,6.44,1.43c1.71,1.71,2.72,4.05,3.67,6.23c0.54,1.25,1.06,2.51,1.67,3.73
				c0.9,1.78,1.84,3.45,2.4,5.38c1.23,4.21,1.26,8.56,1.27,12.9c0.27-0.88,0.58-1.75,0.8-2.62c0.19-0.74,0.31-1.49,0.42-2.25
				c0.05-0.52,0.08-1.04,0.14-1.55c0.02-0.2,0.05-0.41,0.07-0.61c-0.06-1.83-0.25-3.64-0.69-5.41c-0.51-2.08-1.42-3.97-2.36-5.85
				c2.43-2.93,2.78-6.94,4.97-10.01c1.01-1.41,3.11-2.94,4.95-2.4c1.03,0.3,1.68,1.25,2.42,1.96c0.69,0.66,1.49,1.15,2.44,1.33
				c0.94,0.17,1.98,0.09,2.87,0.45c0.74,0.3,0.65,1.32,0.93,1.97c0.4,0.91,1.17,1.52,2.19,1.49c1.03-0.03,1.92-0.62,2.91-0.75
				c1.88-0.24,3.62,1.18,4.61,2.61c1.09,1.59,1.84,3.38,2.98,4.94c1.23,1.69,2.8,3.1,4.01,4.81c0.59,0.83,1.15,1.74,1.39,2.74
				c0.2,0.84-0.05,1.49-0.41,2.19c-0.8,1.18-1.79,2.2-2.53,3.45c-1.51,1.25-3.29,2.22-4.99,3.15c-1.55,0.85-3.11,1.71-4.48,2.85
				c-0.68,0.56-1.29,1.19-1.82,1.89c-0.39,0.51-0.96,1.25-1.09,1.96c-0.33-0.17-0.66-0.35-1.01-0.5c-2.13-0.88-4.32-0.79-6.54-0.32
				c-3.87,0.8-7.46,2.67-10.22,5.53c-1.08,1.12-2.01,2.4-2.86,3.71c-0.17,0.23-0.34,0.46-0.5,0.69c-0.08-0.54-0.16-1.08-0.27-1.61
				c-0.31-1.48-0.83-2.94-1.67-4.21c-1.44-2.16-3.58-3.89-5.87-5.08c-1.99-1.03-4.24-1.71-6.49-1.61c-0.89-0.33-1.78-0.66-2.68-0.97
				c-0.02-0.01-0.02-0.02-0.04-0.02c-0.23-0.07-0.46-0.15-0.68-0.23c-0.16-0.05-0.33-0.12-0.49-0.17c0,0-0.01,0-0.01,0
				c-5.57-2.17-8.94-8.03-12.09-12.78C157.2,106.12,156.16,105.1,155.22,103.96z M163.69,125.38c-0.95-0.56-1.82-1.25-2.81-1.72
				c-1.05-0.5-2.17-0.73-3.33-0.74c-1.81-0.02-4.13,0.71-5.35-1.13c-0.48-0.72-0.37-1.54-0.01-2.29c0.5-1.02,0.71-2.04,0.64-3.18
				c-0.07-1.08-0.33-2.1-0.63-3.13c-0.29-1.01-0.28-1.81,0.72-2.39c1.77-1.03,3.98,0.11,5.82,0.66c0.91,1.39,1.83,2.78,2.87,4.08
				c2.45,3.03,5.43,5.61,9.27,6.6c0.1,0.03,0.19,0.02,0.28,0.02c-2.08,0.84-3.91,2.31-6.03,3.06c-0.37,0.13-0.77,0.28-1.14,0.48
				C163.91,125.57,163.83,125.46,163.69,125.38z M180.59,137.18c-2.4-0.41-4.68-1.3-6.75-2.57c-2.1-1.28-3.7-3.12-5.6-4.65
				c-0.81-0.66-1.56-1.19-2.61-1.32c-0.02,0-0.05,0-0.07-0.01c-0.08-0.15-0.21-0.26-0.41-0.29c-0.33-0.05-0.92-0.12-1.08-0.48
				c-0.21-0.48,0.46-0.79,0.8-0.93c0.92-0.39,1.88-0.62,2.78-1.06c2.08-1.01,4-2.49,6.4-2.57c4.05-0.14,8.55,2.49,10.76,5.83
				c0.76,1.15,1.21,2.43,1.49,3.78c0.18,0.88,0.24,1.91,0.44,2.85c0,0.02,0,0.04,0,0.06c0,0.14,0,0.28-0.01,0.42
				c0,0.03-0.03,0.22-0.01,0.11c-0.01,0.07-0.02,0.15-0.04,0.22c-0.03,0.12-0.06,0.25-0.1,0.37c0,0-0.01,0.04-0.02,0.06
				c0,0.01,0,0.01-0.01,0.03c-0.01,0.02-0.02,0.04-0.02,0.05C184.55,137.35,182.61,137.52,180.59,137.18z M189.16,140.95
				c-0.39,0.81-0.77,1.63-1.04,2.49c-0.06-0.12-0.11-0.25-0.18-0.37c-0.43-0.73-0.98-1.38-1.47-2.07c-0.46-0.64-0.89-1.3-1.28-1.99
				c0.99-0.14,1.95-0.41,2.86-0.8c0.53,0.21,1.14,0.31,1.6,0.34c0.28,0.02,0.59,0,0.89,0.01
				C190.01,139.32,189.56,140.12,189.16,140.95z M211.72,128.04c-0.62-0.04-1.21-0.02-1.82,0.07c-1.4,0.2-2.63,0.77-3.82,1.52
				c-2.45,1.55-4.54,3.61-6.99,5.17c-1.19,0.76-2.45,1.33-3.83,1.62c-1.06,0.23-2.11,0.2-3.18,0.25c-0.76,0.04-1.51,0.09-2.27,0.06
				c-0.26-0.01-0.54-0.03-0.81-0.09c0-0.08,0-0.16,0.01-0.24c0-0.02,0.01-0.12,0.01-0.13c0.01-0.05,0.02-0.1,0.03-0.16
				c0.02-0.12,0.05-0.24,0.09-0.36c0.03-0.11,0.07-0.22,0.11-0.33c2.3-3.71,5.46-6.9,9.55-8.58c2.18-0.89,4.83-1.67,7.19-1.34
				c1.31,0.18,2.43,0.76,3.57,1.4c0.72,0.4,1.5,0.74,2.23,1.15C211.77,128.05,211.74,128.04,211.72,128.04z M228.46,124.06
				c-0.46,0.92-1.82,0.56-2.62,0.46c-1.2-0.14-2.47-0.28-3.64,0.1c-0.53,0.17-1.04,0.45-1.42,0.85c-0.33,0.35-0.45,0.91-0.78,1.22
				c-0.37,0.35-0.88,0.09-1.27-0.12c-0.62-0.34-1.21-0.68-1.93-0.76c-1.26-0.14-2.84,0.1-3.72,1.09c-0.49-0.32-1-0.6-1.52-0.87
				c-0.21-0.11-0.41-0.22-0.61-0.33c0.45-0.52,0.73-1.22,1.15-1.76c0.53-0.68,1.16-1.27,1.83-1.81c1.38-1.12,2.95-2,4.49-2.88
				c1.23-0.7,2.42-1.46,3.53-2.3c0.23,0.05,0.46,0.06,0.69,0.04c0.66,0.05,1.31,0.16,1.96,0.21c0.55,0.13,1.1,0.25,1.65,0.42
				c0.45,0.13,1.9,0.49,2.06,0.95c0.09,0.26-0.21,0.42-0.39,0.58c-0.31,0.28-0.62,0.55-0.82,0.93c-0.46,0.87-0.07,1.85,0.59,2.49
				C228.14,123.03,228.84,123.29,228.46,124.06z"/>
			<path class="st16" d="M229.64,121.87c-0.27-0.26-0.59-0.47-0.85-0.75c-0.23-0.25-0.12-0.25,0.15-0.52
				c0.73-0.72,1.4-1.4,1.04-2.52c-0.35-1.09-1.66-1.55-2.64-1.85c-1.03-0.31-2.09-0.46-3.13-0.72c-0.16-0.04-0.3-0.02-0.43,0.02
				c-0.05-0.03-0.1-0.04-0.15-0.05c0.82-0.83,1.54-1.76,2.09-2.85c1.29-1.27,1.1-3.33,0.38-4.93c-0.87-1.96-2.38-3.59-3.8-5.17
				c-1.32-1.47-2.29-3.03-3.25-4.75c-0.98-1.75-2.12-3.55-3.96-4.5c-0.98-0.5-2.2-0.87-3.3-0.79c-0.52,0.04-1.02,0.2-1.51,0.36
				c-0.39,0.13-1.14,0.53-1.57,0.39c-0.61-0.2-0.61-1.6-0.87-2.11c-0.53-1.04-1.64-1.36-2.72-1.53c-0.87-0.14-1.87-0.07-2.67-0.52
				c-1.02-0.58-1.67-1.68-2.64-2.35c-1.94-1.34-4.48-0.73-6.27,0.6c-1.89,1.4-2.87,3.62-3.68,5.76c-0.72,1.91-1.27,4.04-2.45,5.74
				c-0.31-0.63-0.61-1.26-0.89-1.91c-2-4.63-4.57-10.66-10.62-10.23c-1.53,0.11-2.78,0.59-3.94,1.59c-1.04,0.9-1.89,2.17-3.17,2.74
				c-1.47,0.66-3.08-0.12-4.54-0.44c-1.59-0.35-3.09-0.18-4.33,0.96c-0.65,0.6-1.12,1.37-1.51,2.15c-0.39,0.77-0.72,1.65-1.37,2.24
				c-1.06,0.97-2.7,0.83-3.7,1.9c-1.06,1.13-1.31,3.05-0.92,4.5c0.42,1.54,1.53,2.74,2.55,3.91c0.76,0.86,1.44,1.79,2.1,2.73
				c-1.24-0.4-2.55-0.57-3.79-0.3c-1.14,0.24-2.32,1-2.84,2.07c-0.52,1.08-0.22,2.23,0.11,3.32c0.35,1.16,0.64,2.48,0.35,3.69
				c-0.14,0.58-0.48,1.08-0.67,1.64c-0.17,0.52-0.23,1.08-0.18,1.63c0.21,2.17,2.2,3.55,4.24,3.8c1.52,0.19,3.03-0.32,4.56-0.02
				c1.47,0.29,2.66,1.19,3.93,1.92c-0.06,0.12-0.11,0.24-0.15,0.37c-0.48,0.86-0.36,1.81,0.5,2.42c0.89,0.63,1.92,0.4,2.89,0.77
				c1.19,0.45,2.24,1.77,3.12,2.65c1.01,1,2.03,1.99,3.2,2.8c2.3,1.58,5,2.72,7.76,3.16c1.22,0.19,2.49,0.28,3.76,0.21
				c0.01,0.06,0.02,0.13,0.06,0.2c0.79,1.51,1.9,2.78,2.82,4.21c0.48,0.74,0.71,1.52,0.88,2.33c-0.21,1.68-0.25,3.38-0.4,5.07
				c-0.66,4.45-1.33,8.91-2.36,13.29c-1.46,6.23-1.82,12.62-1.57,19c0.25,6.62,0.14,13.27,0.78,19.87
				c0.63,6.47,1.73,12.81,1.33,19.34c-0.43,7.16-2.23,14.09-4.13,20.97c-0.01,0.05-0.01,0.08-0.01,0.13
				c-2.21,6.33-6.6,11.69-10.1,17.34c-2.02,3.26-3.52,6.66-4.96,10.2c-1.55,3.82-3.02,7.74-3.77,11.8c-0.84,4.48-0.81,9.3,1.4,13.4
				c0.25,0.46,0.86,0.39,1.15,0.07c0.22,0.01,0.44-0.11,0.5-0.36c0.44-1.98-0.29-3.77-0.8-5.66c-0.27-1-0.49-2.02-0.66-3.04
				c0.03-1.98,0.23-3.95,0.68-5.88c0.69-2.97,1.81-5.81,3.07-8.58c2.62-5.75,5.56-11.38,8.81-16.8c0.59-0.98,1.12-2.01,1.67-3.03
				c1.27-1.31,2.28-2.83,3.1-4.47c0.07-0.07,0.12-0.14,0.19-0.2c0.18-0.17,0.2-0.36,0.15-0.54c0.1-0.22,0.21-0.43,0.31-0.66
				c1.26-3,2.15-6.19,2.92-9.35c1.58-6.5,2.21-13.16,2.7-19.82c0.24-3.3,0.23-6.62-0.38-9.87c-0.21-3.49-0.82-6.94-1.1-10.43
				c-0.08-0.98-0.12-1.96-0.11-2.94c0.95-9.43,5.35-18.17,12.52-24.58c1.69-1.51,3.51-2.78,5.35-4.05c0.08,0.27,0.22,0.53,0.38,0.78
				c-0.41,1.7,0.72,3.86,1.69,5.11c1.43,1.84,3.52,3.15,5.59,4.17c1.11,0.55,2.26,1.12,3.47,1.42c1.09,0.28,2.18,0.27,3.29,0.13
				c0.89-0.11,1.91-0.29,2.56-0.96c0.62-0.64,0.57-1.3,0.36-1.99c0.41-0.25,0.8-0.6,1.12-0.87c0.46-0.38,0.91-0.82,1.21-1.35
				c0.35-0.63,0.49-1.36,0.45-2.08c-0.05-0.84-0.46-1.74-0.18-2.57c0.27-0.79,0.86-1.34,0.88-2.23c0.01-0.65-0.23-1.29-0.58-1.83
				c-0.35-0.54-0.81-1.01-1.23-1.5c-0.25-0.28-0.49-0.58-0.6-0.93c0-0.01,0-0.02,0-0.03c0.01-0.23-0.02-0.47-0.06-0.7
				c-0.04-0.26-0.12-0.52-0.21-0.77c0.09-0.1,0.18-0.2,0.26-0.31c0.41-0.61,0.72-1.31,0.63-2.06c-0.08-0.77-0.57-1.33-0.95-1.97
				c-0.45-0.75-0.08-1.7-0.34-2.52c-0.12-0.39-0.39-0.78-0.76-0.99c-0.28-0.16-0.82-0.14-0.99-0.35c-0.18-0.23-0.17-0.93-0.18-1.2
				c-0.03-0.49,0.01-0.98,0.03-1.48c0.05-0.95,0.09-1.95-0.27-2.86c-0.19-0.46-0.7-0.79-1.19-0.48c-0.81,0.5-1.43,1.2-2.12,1.84
				c-0.79,0.72-1.76,1.27-2.64,1.88c-1.67,1.17-3.27,2.45-4.63,3.98c-2.2,2.48-3.49,5.41-3.65,8.68c-0.37,0.71-0.85,1.35-1.27,2.03
				c-2.06,1.11-3.99,2.57-5.74,4.06c-2.18,1.86-4.17,3.95-5.92,6.22c-3.42,4.44-5.9,9.59-7.14,15.06c-0.01,0.05-0.02,0.09-0.03,0.14
				c-0.02-1.06-0.04-2.12-0.06-3.17c-0.16-6.48-0.43-12.92,0.76-19.33c0.68-3.65,1.53-7.25,2.06-10.94
				c0.53-3.68,0.91-7.38,1.45-11.06c0.01-0.06,0-0.12-0.01-0.17c0.01-0.03,0.01-0.06,0.02-0.09c0.24-1.07,0.67-2.02,1.1-3.02
				c0.44-1.02,0.86-2.05,1.46-2.99c0.06-0.1,0.08-0.19,0.09-0.29c0.78-0.03,1.56-0.08,2.29-0.17c2.56-0.29,4.78-1.33,6.85-2.83
				c2.16-1.56,4.11-3.4,6.42-4.74c1.21-0.7,2.51-1.09,3.91-1.07c1.12,0.02,2.13-0.01,2.86-0.97c0.14-0.19,0.14-0.48,0.04-0.71
				c1.1-0.55,2.14-0.68,3.33-0.06c1.08,0.56,2.48,0.97,3.47-0.01c0.35-0.35,0.49-0.81,0.79-1.19c0.38-0.48,1.03-0.59,1.6-0.62
				c1.25-0.05,2.47,0.29,3.71,0.27c1.22-0.02,2.29-0.54,2.81-1.69C230.6,123.74,230.47,122.68,229.64,121.87z M222.12,164.15
				c0.3,0.37,0.67,0.77,0.78,1.25c0.15,0.66-0.46,1.19-0.69,1.77c-0.32,0.8-0.28,1.64-0.13,2.47c0.11,0.62,0.26,1.26,0.02,1.87
				c-0.19,0.48-0.59,0.84-0.99,1.15c0,0-0.01,0.01-0.01,0.01c0.07-0.18,0.13-0.36,0.17-0.55c0.14-0.62,0.03-1.21-0.31-1.74
				c-0.33-0.52-0.83-0.92-1.15-1.45c-0.43-0.71-0.52-1.55-0.4-2.36c0.04-0.24-0.03-0.44-0.15-0.6c0.12-0.08,0.23-0.16,0.35-0.24
				c0.62-0.42,1.22-0.75,1.38-1.55c0.15-0.75-0.21-1.3-0.76-1.76c-0.05-0.04-0.07-0.06-0.1-0.07c0,0,0,0,0,0
				c0.01-0.13,0.1-0.24,0.16-0.34c0.09-0.15,0.19-0.29,0.3-0.42C220.76,162.59,221.48,163.38,222.12,164.15z M205.97,166.19
				c-0.02,0.06,0.05-0.11,0.07-0.16c0.01-0.03,0.02-0.06,0.04-0.09c-0.04,0.09,0.01-0.02,0.02-0.04c0.04-0.08,0.08-0.16,0.12-0.24
				c0.16-0.31,0.32-0.63,0.48-0.95c0.22-0.47,0.41-0.98,0.42-1.5c0.06-0.26,0.09-0.53,0.11-0.81c0.04-0.69-0.11-1.38-0.08-2.07
				c0.01-0.24,0.07-0.46,0.12-0.69c0.06-0.22,0.12-0.44,0.2-0.66c0.01-0.03,0.02-0.06,0.03-0.09c0.06-0.18,0.14-0.35,0.21-0.52
				c0.22-0.48,0.47-0.96,0.68-1.43c0.54-0.97,1.22-1.88,2-2.73c1.29-1.4,2.77-2.58,4.34-3.66c0.8-0.55,1.66-1.06,2.4-1.69
				c0.35-0.3,0.67-0.64,1.01-0.95c0.01,1.01-0.23,2.07-0.15,3.06c0.05,0.63,0.11,1.31,0.45,1.85c0.15,0.24,0.37,0.46,0.61,0.6
				c0.15,0.09,0.34,0.15,0.51,0.19c0.08,0.02,0.3,0.09,0.39,0.09c0.02,0.06,0.04,0.12,0.03,0.15c-0.03,0.16,0,0.37,0,0.53
				c0,0.31-0.01,0.61,0.03,0.92c0.1,0.79,0.54,1.31,0.93,1.97c0.62,1.05-0.64,1.94-1.29,2.65c-0.75,0.82-1.77,2.07-1.14,3.24
				c0.11,0.2,0.27,0.4,0.45,0.54c0,0,0.12,0.09,0.2,0.15c-0.01,0.01-0.01,0.01-0.03,0.03c-0.43,0.49-1.26,0.89-1.81,1.26
				c-2.17,1.44-5.04,3.17-7.76,2.69c-1.04-0.19-2.1-0.55-2.99-1.13C206.31,166.54,206.12,166.38,205.97,166.19
				C205.97,166.19,205.98,166.18,205.97,166.19z M206.84,168.9c1.02,0.43,2.11,0.76,3.22,0.83c1.71,0.11,3.42-0.48,4.95-1.18
				c1.02-0.47,1.96-1.04,2.88-1.65c-0.06,0.82,0.03,1.61,0.37,2.4c0.17,0.41,0.39,0.76,0.67,1.11c0.26,0.33,0.72,0.72,0.74,1.17
				c0.02,0.45-0.28,0.94-0.38,1.38c-0.1,0.48-0.08,0.94,0.08,1.41c0.09,0.26,0.49,0.86,0.36,1.14c-0.11,0.23-0.6,0.32-0.81,0.37
				c-1.96,0.48-3.8-0.01-5.58-0.84c-1.77-0.83-3.6-1.72-5.08-3.02c-1.01-0.89-2.02-2.23-2.44-3.65
				C206.14,168.57,206.48,168.75,206.84,168.9z M155.22,103.96c-0.95-1.16-1.53-2.45-1.09-3.95c0.42-1.44,1.63-1.4,2.82-1.94
				c1.54-0.7,2.23-2.03,2.95-3.47c0.73-1.46,1.72-2.66,3.48-2.36c1.48,0.25,2.87,0.96,4.41,0.88c1.41-0.07,2.57-0.76,3.58-1.69
				c0.93-0.86,1.74-1.96,2.91-2.52c2.15-1.03,4.84-0.17,6.44,1.43c1.71,1.71,2.72,4.05,3.67,6.23c0.54,1.25,1.06,2.51,1.67,3.73
				c0.9,1.78,1.84,3.45,2.4,5.38c1.23,4.21,1.26,8.56,1.27,12.9c0.27-0.88,0.58-1.75,0.8-2.62c0.19-0.74,0.31-1.49,0.42-2.25
				c0.05-0.52,0.08-1.04,0.14-1.55c0.02-0.2,0.05-0.41,0.07-0.61c-0.06-1.83-0.25-3.64-0.69-5.41c-0.51-2.08-1.42-3.97-2.36-5.85
				c2.43-2.93,2.78-6.94,4.97-10.01c1.01-1.41,3.11-2.94,4.95-2.4c1.03,0.3,1.68,1.25,2.42,1.96c0.69,0.66,1.49,1.15,2.44,1.33
				c0.94,0.17,1.98,0.09,2.87,0.45c0.74,0.3,0.65,1.32,0.93,1.97c0.4,0.91,1.17,1.52,2.19,1.49c1.03-0.03,1.92-0.62,2.91-0.75
				c1.88-0.24,3.62,1.18,4.61,2.61c1.09,1.59,1.84,3.38,2.98,4.94c1.23,1.69,2.8,3.1,4.01,4.81c0.59,0.83,1.15,1.74,1.39,2.74
				c0.2,0.84-0.05,1.49-0.41,2.19c-0.8,1.18-1.79,2.2-2.53,3.45c-1.51,1.25-3.29,2.22-4.99,3.15c-1.55,0.85-3.11,1.71-4.48,2.85
				c-0.68,0.56-1.29,1.19-1.82,1.89c-0.39,0.51-0.96,1.25-1.09,1.96c-0.33-0.17-0.66-0.35-1.01-0.5c-2.13-0.88-4.32-0.79-6.54-0.32
				c-3.87,0.8-7.46,2.67-10.22,5.53c-1.08,1.12-2.01,2.4-2.86,3.71c-0.17,0.23-0.34,0.46-0.5,0.69c-0.08-0.54-0.16-1.08-0.27-1.61
				c-0.31-1.48-0.83-2.94-1.67-4.21c-1.44-2.16-3.58-3.89-5.87-5.08c-1.99-1.03-4.24-1.71-6.49-1.61c-0.89-0.33-1.78-0.66-2.68-0.97
				c-0.02-0.01-0.02-0.02-0.04-0.02c-0.23-0.07-0.46-0.15-0.68-0.23c-0.16-0.05-0.33-0.12-0.49-0.17c0,0-0.01,0-0.01,0
				c-5.57-2.17-8.94-8.03-12.09-12.78C157.2,106.12,156.16,105.1,155.22,103.96z M163.69,125.38c-0.95-0.56-1.82-1.25-2.81-1.72
				c-1.05-0.5-2.17-0.73-3.33-0.74c-1.81-0.02-4.13,0.71-5.35-1.13c-0.48-0.72-0.37-1.54-0.01-2.29c0.5-1.02,0.71-2.04,0.64-3.18
				c-0.07-1.08-0.33-2.1-0.63-3.13c-0.29-1.01-0.28-1.81,0.72-2.39c1.77-1.03,3.98,0.11,5.82,0.66c0.91,1.39,1.83,2.78,2.87,4.08
				c2.45,3.03,5.43,5.61,9.27,6.6c0.1,0.03,0.19,0.02,0.28,0.02c-2.08,0.84-3.91,2.31-6.03,3.06c-0.37,0.13-0.77,0.28-1.14,0.48
				C163.91,125.57,163.83,125.46,163.69,125.38z M180.59,137.18c-2.4-0.41-4.68-1.3-6.75-2.57c-2.1-1.28-3.7-3.12-5.6-4.65
				c-0.81-0.66-1.56-1.19-2.61-1.32c-0.02,0-0.05,0-0.07-0.01c-0.08-0.15-0.21-0.26-0.41-0.29c-0.33-0.05-0.92-0.12-1.08-0.48
				c-0.21-0.48,0.46-0.79,0.8-0.93c0.92-0.39,1.88-0.62,2.78-1.06c2.08-1.01,4-2.49,6.4-2.57c4.05-0.14,8.55,2.49,10.76,5.83
				c0.76,1.15,1.21,2.43,1.49,3.78c0.18,0.88,0.24,1.91,0.44,2.85c0,0.02,0,0.04,0,0.06c0,0.14,0,0.28-0.01,0.42
				c0,0.03-0.03,0.22-0.01,0.11c-0.01,0.07-0.02,0.15-0.04,0.22c-0.03,0.12-0.06,0.25-0.1,0.37c0,0-0.01,0.04-0.02,0.06
				c0,0.01,0,0.01-0.01,0.03c-0.01,0.02-0.02,0.04-0.02,0.05C184.55,137.35,182.61,137.52,180.59,137.18z M189.16,140.95
				c-0.39,0.81-0.77,1.63-1.04,2.49c-0.06-0.12-0.11-0.25-0.18-0.37c-0.43-0.73-0.98-1.38-1.47-2.07c-0.46-0.64-0.89-1.3-1.28-1.99
				c0.99-0.14,1.95-0.41,2.86-0.8c0.53,0.21,1.14,0.31,1.6,0.34c0.28,0.02,0.59,0,0.89,0.01
				C190.01,139.32,189.56,140.12,189.16,140.95z M211.72,128.04c-0.62-0.04-1.21-0.02-1.82,0.07c-1.4,0.2-2.63,0.77-3.82,1.52
				c-2.45,1.55-4.54,3.61-6.99,5.17c-1.19,0.76-2.45,1.33-3.83,1.62c-1.06,0.23-2.11,0.2-3.18,0.25c-0.76,0.04-1.51,0.09-2.27,0.06
				c-0.26-0.01-0.54-0.03-0.81-0.09c0-0.08,0-0.16,0.01-0.24c0-0.02,0.01-0.12,0.01-0.13c0.01-0.05,0.02-0.1,0.03-0.16
				c0.02-0.12,0.05-0.24,0.09-0.36c0.03-0.11,0.07-0.22,0.11-0.33c2.3-3.71,5.46-6.9,9.55-8.58c2.18-0.89,4.83-1.67,7.19-1.34
				c1.31,0.18,2.43,0.76,3.57,1.4c0.72,0.4,1.5,0.74,2.23,1.15C211.77,128.05,211.74,128.04,211.72,128.04z M228.46,124.06
				c-0.46,0.92-1.82,0.56-2.62,0.46c-1.2-0.14-2.47-0.28-3.64,0.1c-0.53,0.17-1.04,0.45-1.42,0.85c-0.33,0.35-0.45,0.91-0.78,1.22
				c-0.37,0.35-0.88,0.09-1.27-0.12c-0.62-0.34-1.21-0.68-1.93-0.76c-1.26-0.14-2.84,0.1-3.72,1.09c-0.49-0.32-1-0.6-1.52-0.87
				c-0.21-0.11-0.41-0.22-0.61-0.33c0.45-0.52,0.73-1.22,1.15-1.76c0.53-0.68,1.16-1.27,1.83-1.81c1.38-1.12,2.95-2,4.49-2.88
				c1.23-0.7,2.42-1.46,3.53-2.3c0.23,0.05,0.46,0.06,0.69,0.04c0.66,0.05,1.31,0.16,1.96,0.21c0.55,0.13,1.1,0.25,1.65,0.42
				c0.45,0.13,1.9,0.49,2.06,0.95c0.09,0.26-0.21,0.42-0.39,0.58c-0.31,0.28-0.62,0.55-0.82,0.93c-0.46,0.87-0.07,1.85,0.59,2.49
				C228.14,123.03,228.84,123.29,228.46,124.06z"/>
		</g>
		<path class="st16" d="M144.92,156.97c0.89,1.06,1.64,2.13,2.35,3.34c0.44,0.74,0.85,1.49,1.2,2.27c0.29,0.64,0.54,1.28,0.86,1.9"
			/>
		<path class="st16" d="M160.04,191.32c-0.83,0.41-1.53,0.81-2.24,1.39c-0.25,0.2-0.53,0.38-0.75,0.61
			c-0.15,0.16-0.24,0.36-0.41,0.5"/>
		<path class="st16" d="M207.35,112.36c-2.92,2.7-5.79,3.27-9.06,5.47c-1.03,0.69-1.99,1.49-2.9,2.33c-0.1-0.07-0.18-0.14-0.28-0.21
			c0.17-0.28,0.33-0.56,0.5-0.85c1.88-3.18,6.09-6.19,7.7-7.55c3.03-2.57,3.76-3.8,5.24-7.65c0.22-0.58-1.87,3.14-2.25,3.63
			c-1.35,1.78-2.06,2-3.29,3.07c-1.63,1.41-3.12,2.31-4.75,3.72c-1.61,1.4-2.95,2.84-4.08,4.64c-0.07,0.11-0.13,0.24-0.2,0.35
			c-0.25-0.12-0.51-0.23-0.77-0.34c0.48-1.49,1.15-3.01,1.84-4.41c0.73-1.49,1.7-2.89,2.24-4.47c0.54-1.61,0.66-3.16,0.82-4.85
			c0.05-0.58-0.98,4.62-2.64,7.01c-1.03,1.49-1.14,2.07-1.9,3.72c-0.5,1.1-0.88,1.51-1.27,2.66c-0.02-0.01-0.04-0.01-0.06-0.01
			c-0.01,0-0.01-0.01-0.01-0.01c-0.49-0.16-1-0.25-1.52-0.31c-0.09-0.02-0.19-0.04-0.28-0.05c-0.22-0.03-0.44-0.02-0.66-0.03
			c0.18-0.59,0.35-1.19,0.51-1.79c0.08-0.83,0.19-1.66,0.31-2.48c0.1-0.67,0.11-1.35,0.18-2.02c0.01-0.13,0.03-0.25,0.04-0.38
			c-0.01-0.26-0.02-0.53-0.06-0.79c-0.03-0.23-0.17-0.35-0.34-0.4c-0.28-0.33-0.93-0.25-0.88,0.27c0.07,0.62,0.06,1.25,0.03,1.87
			c-0.08,0.08-0.13,0.19-0.14,0.34c-0.02,0.62-0.03,1.24-0.05,1.86c-0.02,0.22-0.05,0.43-0.07,0.65c-0.1,0.93-0.2,1.87-0.28,2.8
			c-0.02-0.01-0.05-0.01-0.07-0.02c-0.87-0.15-1.72-0.18-2.57-0.13c-0.62-3.1-1.02-4.77-1.02-4.77c-0.84-2.08-1.94-5.77-3.13-7.32
			c-0.37-0.48-3.03-2.55-2.55-2.16c1.69,1.4,3.14,4.12,3.92,6.29c0.99,2.74,1.55,6.92,1.74,8.08c-0.79,0.12-1.58,0.32-2.36,0.64
			c-0.1-0.16-0.22-0.31-0.32-0.49c-0.95-1.63-1.76-3.35-2.7-4.99c-1.74-3.04-3.19-5.88-6.31-8.36c-0.72-0.57-3.9-1.94-3.34-1.57
			c1.33,0.87,3.16,1.5,4.51,3.24c0.84,1.09,3.58,6.18,4.45,7.79c0.88,1.61,1.64,3.28,2.58,4.86c-0.54,0.24-1.07,0.5-1.59,0.78
			c-0.11-0.07-0.23-0.14-0.34-0.22c-1.57-1.14-4.69-7.18-9.74-8.82c-0.68-0.22,2.61,1.92,3.18,2.32c3.46,2.48,4.23,6.57,5.55,7.54
			c-0.56,0.38-1.09,0.79-1.58,1.27c-0.84,0.83,0.46,2.12,1.29,1.29c0.18-0.18,0.4-0.34,0.6-0.51c0.02,0,0.03,0,0.05,0.01
			c0,0,0,0.01,0.01,0.01c0.03,0.02,0.05,0.04,0.08,0.06c0.05,0.09,0.12,0.17,0.22,0.23c0.51,0.33,0.99,0.71,1.55,0.96
			c0.1,0.04,0.19,0.07,0.28,0.09c0.17,0.15,0.35,0.28,0.53,0.37c0.18,0.24,0.43,0.32,0.68,0.29c0.27,0.36,0.62,0.62,1.01,0.76
			c0.14,0.29,0.3,0.56,0.5,0.8c0.91,2.08,1.78,4.18,2.61,6.3c0.12,0.3,0.32,0.47,0.55,0.56c0.1,0.66,1.11,0.87,1.34,0.11
			c0.12-0.03,0.24-0.09,0.35-0.19c0.52-0.5,0.66-1.38,0.95-2.03c0,0,0,0,0,0c0.14-0.04,0.27-0.14,0.38-0.28
			c0.17-0.11,0.3-0.27,0.4-0.45c0.17-0.05,0.33-0.16,0.44-0.33c0.14-0.03,0.29-0.09,0.41-0.19c0.33-0.28,0.63-0.59,0.92-0.91
			c0.22-0.13,0.41-0.32,0.6-0.53c0.27,0.06,0.55,0.01,0.76-0.25c0.25-0.31,0.5-0.62,0.74-0.94c0.19-0.02,0.38-0.09,0.54-0.23
			c0.17-0.15,0.31-0.32,0.47-0.48c0.01,0.05,0.01,0.1,0.02,0.15c0.15,0.77,1.19,0.62,1.41,0c0.08-0.22,0.16-0.44,0.23-0.65
			c0.26,0.17,0.57,0.26,1.02,0.18c0.31-0.06,0.56-0.35,0.64-0.64c0.26-0.91-0.31-1.88-0.77-2.65c-0.45-0.76-1.11-1.46-1.78-2.05
			c1.04-0.91,2.12-1.81,3.35-2.44c5.55-2.82,7.02-4.58,11.82-9.38C213.33,107.37,207.9,111.85,207.35,112.36z"/>
		<path class="st16" d="M172.25,121.42c-0.72-0.21-1.47-0.35-2.21-0.48c-0.12-0.14-0.29-0.23-0.51-0.19
			c-0.14,0.02-0.28,0.03-0.42,0.04c-0.7-0.11-1.4-0.19-2.11-0.16c-1.12-0.25-2.22-0.66-3.34-0.94c-1.88-0.45-3.9-0.71-5.73-0.06
			c-1.8,0.63,1.01-0.21,2.02-0.05c2.06,0.33,2.28,0.9,4.23,1.45c1.28,0.36,2.55,0.71,3.84,0.8c0.11,0.02,0.23,0.05,0.34,0.07
			c0.12,0.02,0.23,0.03,0.35,0.05c0.51,0.11,1.03,0.19,1.54,0.25c0.17,0.03,0.34,0.07,0.51,0.09c0.12,0.02,0.23-0.01,0.34-0.05
			c0.09,0.02,0.17,0.03,0.26,0.05c0.06,0.01,0.12,0.01,0.18,0.01c0.15,0.04,0.3,0.06,0.45,0.1
			C172.61,122.57,172.88,121.61,172.25,121.42z"/>
		<path class="st16" d="M190.77,137.72c-0.36-0.4-0.92-0.37-1.4-0.26c-0.2,0.05-0.38,0.14-0.53,0.26c-0.02-0.06-0.04-0.12-0.07-0.18
			c-0.02-0.04-0.03-0.07-0.05-0.11c-0.01-0.03-0.02-0.05-0.05-0.12c-0.09-0.16-0.2-0.26-0.35-0.36c-0.45-0.31-1.06,0-1.22,0.47
			c-0.07,0.02-0.14,0.04-0.21,0.09c-0.12,0.07-0.22,0.16-0.33,0.25c-0.01,0.01-0.05,0.04-0.07,0.06c-0.02,0.01-0.05,0.03-0.06,0.03
			c-0.01,0-0.06,0.03-0.08,0.03c-0.04,0.01-0.07,0.02-0.11,0.04c-0.05,0.01-0.09,0.03-0.14,0.04c-0.04,0.01-0.09,0.02-0.13,0.03
			c-0.03,0-0.06-0.01-0.07-0.01c-0.06,0-0.11-0.01-0.17-0.01c-0.18-0.01-0.37,0-0.55,0.04c-0.5,0.11-0.87,0.55-0.86,1.07
			c0.01,0.52,0.35,0.98,0.69,1.35c0.13,0.14,0.26,0.27,0.39,0.4c0.19,0.18,0.22,0.22,0.33,0.39c0.19,0.28,0.26,0.61,0.51,0.91
			c0.09,0.2,0.24,0.35,0.46,0.43c0.07,0.56,0.22,1.21,0.82,1.31c0.5,0.08,0.91-0.12,1.09-0.62c0.07-0.19,0.08-0.39,0.13-0.58
			c0.03-0.1,0.06-0.2,0.1-0.3c0.01-0.02,0-0.01,0.01-0.01c0.02-0.05,0.04-0.1,0.07-0.14c0.16-0.35,0.35-0.67,0.55-1
			c0.11-0.17,0.2-0.34,0.31-0.51c0.02-0.03,0.15-0.21,0.07-0.1c0.08-0.1,0.16-0.2,0.24-0.3c0.31-0.4,0.48-0.59,0.76-0.99
			C191.17,138.82,191.17,138.16,190.77,137.72z"/>
		<path class="st16" d="M201.89,172.53c-1.28,1.39-2.5,2.65-4.26,3.41c-1.86,0.8-3.79,1.58-5.56,2.56
			c-1.75,0.97-3.22,2.45-4.25,4.16c-0.46,0.77-1,1.59-1.27,2.45c-0.32,1.04-0.5,2.15-0.68,3.21c-0.01,0.05,0,0.09,0,0.13
			c-0.02,0-0.03,0.01-0.05,0.01c-0.43,0.14-0.72,0.79-0.3,1.12c0.83,0.65,1.75,0.3,2.69,0.07c1.08-0.25,2.1-0.7,3.09-1.18
			c1.95-0.94,3.45-2.34,4.83-3.97c1.37-1.6,2.45-3.49,3.58-5.27c1.07-1.69,1.85-3.54,2.56-5.4c0.15-0.21,0.31-0.42,0.45-0.65
			C203.03,172.67,202.32,172.07,201.89,172.53z"/>
		<path class="st16" d="M213.2,158.67c0.54-0.37,4.3-3.2,3.73-2.85c-3.53,2.18-10.24,6.61-12.3,10.26c-0.35,0.62,0.6,1.17,0.95,0.56
			c0.13-0.22,0.26-0.42,0.39-0.63c0.05,0,0.09,0.01,0.14,0c0.77-0.14,1.48-0.32,2.2-0.61c0.67-0.26,1.25-0.61,1.87-0.96
			c1.32-0.74,4.57-3.44,5.79-4.33c0.53-0.39-2.88,1.81-3.48,2.16c-1.24,0.73-1.7,0.85-2.96,1.56c-0.61,0.35-2.35,0.77-2.69,0.87
			C208.57,162.27,210.57,160.47,213.2,158.67z"/>
		<path class="st16" d="M186.01,218.96c-0.16-0.72-0.33-1.49-0.56-2.19c-0.18-0.57-0.51-1.11-0.76-1.65
			c-0.54-1.19-1.43-2.24-2.22-3.28c-0.87-1.14-1.98-1.87-3.07-2.77c-1.14-0.93-2.34-1.45-3.68-2.02c-1.3-0.55-2.51-1.17-3.69-1.95
			c-0.4-0.27-0.78-0.56-1.15-0.86c-0.22-0.21-0.42-0.43-0.63-0.65c-0.22-0.22-0.41-0.42-0.6-0.67c-0.38-0.51-0.72-1.07-1.06-1.62
			c-0.24-0.38-0.5-0.75-0.75-1.13c-0.07-0.14-0.13-0.28-0.2-0.41c-0.68-1.4-1.16-2.89-1.74-4.33c-2.23-5.52-5.63-10.32-10.4-13.94
			c-2.79-2.12-6-3.61-9.16-5.09c-0.6-0.28-1.19-0.59-1.79-0.9c0,0-0.01-0.01-0.01-0.01c-0.02-0.01-0.05-0.02-0.07-0.03
			c-0.84-0.43-1.69-0.87-2.57-1.23c-0.79-0.33-1.63-0.52-2.42-0.86c-0.66-0.28-1.23-0.57-1.96-0.6c-0.38-0.01-0.59,0.22-0.65,0.51
			c-0.05,0.09-0.05,0.18-0.04,0.28c-0.01,0.13,0.03,0.26,0.13,0.36c0.16,0.17,0.35,0.32,0.54,0.46c0.02,0.02,0.04,0.03,0.07,0.05
			c0.02,0.01,0.01,0.01,0.01,0.01c0.03,0.02,0.09,0.07,0.1,0.08c0.06,0.05,0.13,0.1,0.19,0.15c0.03,0.12,0.1,0.24,0.22,0.31
			c0.16,0.1,0.32,0.2,0.48,0.3c0.07,0.08,0.13,0.16,0.2,0.23c0.17,0.17,0.35,0.33,0.52,0.5c0.03,0.03,0.06,0.07,0.09,0.1
			c0.08,0.09,0.15,0.18,0.23,0.27c0.02,0.02,0.03,0.04,0.05,0.07c0.17,0.25,0.37,0.49,0.58,0.7c0.29,0.36,0.57,0.72,0.83,1.09
			c0.86,1.26,1.43,2.64,2.01,4.03c0.57,1.38,1.33,2.66,1.94,4.02c0.58,1.3,1.13,2.81,1.98,3.96c0.91,1.25,1.9,2.45,2.8,3.73
			c0.83,1.17,1.66,2.32,2.69,3.33c2.11,2.07,4.53,3.32,7.19,4.52c1.39,0.63,2.74,0.95,4.26,1.13c0.74,0.09,1.49,0.14,2.24,0.17
			c0.49,0.02,0.96,0.05,1.38-0.18c0.16,0.18,0.34,0.34,0.5,0.53c0.25,0.3,0.52,0.58,0.81,0.86c0.01,0.01,0.01,0.01,0.02,0.02
			c0.2,0.21,0.43,0.39,0.62,0.61c0.06,0.08,0.14,0.12,0.23,0.13c0.36,0.3,0.73,0.59,1.1,0.87c1.05,0.79,2.11,1.52,3.3,2.07
			c1.2,0.56,2.6,0.99,3.64,1.83c1,0.81,2.14,1.59,3,2.55c0.43,0.47,0.78,1,1.17,1.5c0.4,0.49,0.81,0.96,1.1,1.53
			c1.21,2.41,1.71,5.17,2.02,7.84c0.08,0.74,1.08,0.75,1.15,0C186.38,221.86,186.33,220.39,186.01,218.96z"/>
		<path class="st16" d="M227.37,110.08c-0.67,0.43-0.99,1.14-1.32,1.83c-0.08,0.16-0.14,0.32-0.22,0.48
			c-0.37,0.49-0.73,0.98-1.03,1.52c-0.19,0.34-0.4,0.71-0.46,1.1c-0.01,0.08-0.02,0.17-0.03,0.25c0,0.01-0.02,0.13,0,0.07
			s-0.01,0.05-0.02,0.06c-0.01,0.04-0.02,0.08-0.03,0.12c-0.05,0.27-0.05,0.59,0.18,0.78c0.22,0.18,0.47,0.18,0.69,0
			c0.01-0.01,0.01-0.02,0.02-0.02c0.03,0.01,0.06,0.02,0.09,0.02c0.04,0,0.08-0.01,0.11-0.01c0.05-0.01,0.06-0.01,0.1-0.02
			c0.01,0,0.03-0.01,0.04-0.02c0.12,0.22,0.37,0.36,0.63,0.33c0.33-0.05,0.51-0.3,0.55-0.62c-0.02,0.18,0.08-0.13,0.08-0.15
			c0.05-0.12,0.07-0.25,0.08-0.39c0-0.06-0.02-0.21-0.02-0.23c0-0.12,0.04-0.25,0.06-0.37c0.08-0.49,0.22-0.97,0.35-1.45
			c0.13-0.49,0.29-0.97,0.47-1.44c0.09-0.24,0.15-0.48,0.24-0.71c0.09-0.24,0.19-0.44,0.21-0.69
			C228.16,110.14,227.68,109.89,227.37,110.08z"/>
		<g>
			<path class="st16" d="M243.34,123.54C243.33,123.55,243.33,123.55,243.34,123.54L243.34,123.54z"/>
			<g>
				<path class="st16" d="M244.45,122.33c-0.47-0.78-1.57-1.29-2.47-1c-0.79,0.25-1.28,0.97-1.59,1.72
					c-0.06,0.07-0.11,0.14-0.13,0.24c0,0.03-0.01,0.05-0.01,0.08c-0.04,0.04-0.07,0.08-0.1,0.13c-0.09,0.16-0.13,0.35-0.13,0.53
					c0,0.29,0.08,0.58,0.2,0.84c0.07,0.15,0.18,0.28,0.29,0.41c-0.04,0.04-0.08,0.08-0.11,0.14c-0.78,1.45-1.6,2.84-2.58,4.17
					c-0.97,1.33-1.85,2.72-2.99,3.92c-1.1,1.15-2.21,2.32-3.29,3.5c-1.04,1.14-1.87,2.51-2.17,4.03c-0.11,0.57,0.72,1.02,1,0.42
					c0.67-1.43,1.34-2.77,2.51-3.88c1.2-1.14,2.34-2.33,3.44-3.56c2.1-2.36,3.92-5.03,5.45-7.8c0.04-0.08,0.05-0.15,0.07-0.22
					c0.3,0.06,0.61,0.08,0.92,0.02c0.48-0.09,0.85-0.36,1.15-0.74C244.55,124.46,245.04,123.31,244.45,122.33z M243.27,123.03
					c0,0.01,0,0.02-0.01,0.02c0,0,0,0.01-0.01,0.01c0,0.01,0,0-0.01,0.02c-0.02,0.03-0.04,0.07-0.05,0.1
					c-0.02,0.03-0.04,0.06-0.07,0.1c0.06-0.09-0.03,0.03-0.03,0.04c-0.1,0.12-0.2,0.25-0.31,0.36c-0.01,0.01-0.01,0.01-0.02,0.02
					c-0.24,0.21-0.47,0.39-0.72,0.55c0,0,0,0,0,0c-0.03,0.01-0.06,0.02-0.1,0.03c-0.03,0.01-0.07,0.01-0.1,0.02c0,0,0,0,0,0
					c-0.01,0-0.15,0-0.18,0c-0.01,0-0.01,0-0.02,0c0,0-0.05-0.01-0.08-0.02c-0.01,0,0,0-0.01-0.01c-0.03-0.02-0.06-0.03-0.09-0.05
					c-0.02-0.01-0.05-0.03-0.07-0.04c0,0,0-0.01,0-0.01c0-0.05,0-0.1,0-0.15c0-0.06,0.01-0.13,0.01-0.19
					c0.02-0.03,0.05-0.05,0.06-0.08c0.02-0.06,0.04-0.13,0.07-0.19c0-0.01,0.01-0.03,0.02-0.04c0,0,0,0,0,0
					c0.07-0.14,0.13-0.27,0.21-0.4c0.04-0.06,0.08-0.13,0.12-0.19c0.01-0.02,0.03-0.04,0.04-0.05c0.05-0.06,0.1-0.11,0.16-0.16
					c0.01-0.01,0,0,0,0c0.03-0.02,0.07-0.04,0.08-0.05c0.02-0.01,0.05-0.03,0.08-0.04c0,0,0,0,0,0c0.05-0.01,0.11-0.03,0.16-0.04
					c0.03,0,0.07,0,0.08,0c0.01,0,0.04,0,0.07,0c0.02,0,0.04,0.01,0.05,0.01c0.07,0.02,0.14,0.03,0.21,0.06c0.01,0,0.01,0,0.02,0.01
					c0.02,0.01,0.06,0.03,0.07,0.03c0.06,0.03,0.12,0.08,0.18,0.11c0.03,0.03,0.07,0.06,0.1,0.1c0,0,0.01,0.02,0.02,0.03
					c0-0.01,0-0.01,0.02,0.01c0,0.01,0.01,0.01,0.01,0.02l0,0c0.01,0.02,0.02,0.04,0.04,0.06
					C243.27,123.02,243.27,123.02,243.27,123.03z"/>
				<path class="st16" d="M243.24,122.95L243.24,122.95c-0.01-0.01-0.01-0.01-0.02-0.02C243.23,122.94,243.23,122.95,243.24,122.95z
					"/>
			</g>
			<path class="st16" d="M243.22,122.93C243.22,122.93,243.22,122.93,243.22,122.93C243.21,122.93,243.21,122.92,243.22,122.93z"/>
		</g>
		<path class="st16" d="M252.97,122.54c-0.41-0.4-1-0.58-1.56-0.45c-0.3,0.07-0.54,0.22-0.76,0.41c-0.18,0.08-0.36,0.16-0.53,0.26
			c-0.37,0.22-0.69,0.51-1.01,0.8c-0.61,0.54-1.2,1.03-1.69,1.69c-0.57,0.77-1.08,1.85-0.94,2.84c-0.06,0.02-0.12,0.03-0.18,0.07
			c-0.51,0.32-1,0.7-1.54,0.99c-0.57,0.3-1.19,0.48-1.79,0.72c-1.16,0.47-2.26,1.03-3.47,1.36c-0.48,0.13-0.92,0.35-1.39,0.48
			c-0.57,0.16-0.95,0.43-1.46,0.72c-1.1,0.62-2.12,1.32-2.82,2.4c-0.41,0.63,0.39,1.35,1,1c0.49-0.28,0.94-0.64,1.39-0.97
			c0.49-0.37,1.02-0.64,1.54-0.96c0.2-0.12,0.38-0.3,0.6-0.38c0.22-0.09,0.45-0.11,0.67-0.2c0.52-0.23,1.06-0.34,1.59-0.52
			c1.12-0.38,2.16-0.94,3.24-1.41c0.58-0.26,1.18-0.48,1.72-0.83c0.51-0.33,0.97-0.74,1.48-1.08c0.05-0.03,0.08-0.08,0.12-0.12
			c1.17,1,2.98,0.34,4.07-0.49c0.64-0.48,1.15-1.08,1.59-1.74c0.46-0.68,0.82-1.41,0.89-2.24
			C253.79,124.09,253.53,123.1,252.97,122.54z M251.03,125.29c-0.26,0.49-0.57,0.92-0.91,1.32c-0.34,0.39-0.76,0.79-1.15,1.09
			c-0.11,0.08-0.22,0.16-0.34,0.22c-0.06,0.03-0.1,0.04-0.21,0.07c-0.04,0.01-0.07,0.02-0.11,0.02c-0.03-0.01-0.05-0.03-0.07-0.04
			l-0.02-0.01c0,0-0.01-0.02-0.03-0.03c0,0,0,0,0,0c-0.02-0.04-0.05-0.08-0.07-0.12c0.08,0.15-0.03-0.11-0.04-0.18
			c0-0.02-0.01-0.01-0.01-0.02c0-0.01,0-0.01,0-0.03c0-0.05-0.01-0.1-0.01-0.15c0-0.05,0-0.1,0-0.15c0-0.03,0-0.04,0-0.05
			c0-0.01,0.01-0.01,0.01-0.05c0.02-0.1,0.04-0.19,0.07-0.29c0,0.01,0.03-0.07,0.04-0.11c0.02-0.04,0.04-0.09,0.05-0.1
			c0.13-0.28,0.28-0.55,0.44-0.8c0.09-0.13,0.2-0.24,0.29-0.35c0.29-0.25,0.58-0.49,0.9-0.7c0.14-0.09,0.28-0.19,0.43-0.27
			c0.04-0.02,0.07-0.04,0.11-0.06c0.01,0,0.11-0.05,0.07-0.03c-0.04,0.02,0.09-0.03,0.1-0.04c0.04-0.01,0.08-0.03,0.12-0.04
			c0.15-0.05,0.3-0.07,0.45-0.1c0,0.01,0.01,0.02,0.01,0.04c0.01,0.05,0.04,0.1,0.07,0.14c0.01,0.02,0.04,0.03,0.06,0.05
			C251.21,124.8,251.14,125.08,251.03,125.29z"/>
		<path class="st16" d="M252.93,86.6c-0.04,2.54-0.6,5.12-1.49,7.48c-0.82,2.2-1.58,4.46-2.93,6.42c-1.41,2.04-3.02,3.75-4.95,5.28
			c-1.76,1.39-3.43,2.8-4.27,4.96c-0.4,1.04-0.96,2.81-0.67,4.16c-0.11,0.04-0.22,0.11-0.3,0.22c-1.39,1.83-2.64,3.69-3.68,5.74
			c-0.09,0.18-0.17,0.36-0.25,0.55c0.11-0.98,0.21-1.96,0.35-2.93c0.43-2.97,1.23-6.03,2.48-8.77c1.16-2.55,2.35-5.2,2.94-7.95
			c0.64-2.95,1.24-6.13,1.12-9.15c-0.02-0.63-0.75-0.78-1.1-0.44c-0.15,0.06-0.28,0.18-0.34,0.38c-0.42,1.62-1.01,3.16-1.69,4.68
			c-0.6,1.33-1.42,2.46-2.14,3.72c-1.45,2.53-2.9,5.11-3.57,7.97c-0.67,2.85-0.49,5.76-0.28,8.66c0.22,2.93,0.28,5.9,0.17,8.84
			c-0.09,0.24-0.2,0.47-0.28,0.71c-0.7,1.99-1.41,4.06-1.75,6.15c-0.05-0.2-0.07-0.4-0.13-0.6c-0.37-1.24-0.74-2.49-1.35-3.64
			c-0.6-1.13-1.38-2.16-1.83-3.36c-0.25-0.66-1.12-0.62-1.41-0.18c-0.23-0.12-0.49-0.08-0.71,0.06c-0.29-0.22-0.71-0.17-0.96,0.06
			c-0.01-0.2-0.16-0.41-0.36-0.46c-0.21-0.05-0.48,0.03-0.57,0.23c-0.05,0.12-0.09,0.23-0.12,0.35c-0.09,0.1-0.15,0.22-0.14,0.37
			c0.03,0.42,0.12,0.84,0.22,1.25c0.17,1.14,0.49,2.25,0.86,3.36c0.23,0.7,0.41,1.42,0.69,2.1c0.26,0.65,0.65,1.22,1.01,1.83
			c0.69,1.17,1.45,2.25,2.21,3.37c0.36,0.53,0.88,1,1.2,1.54c0.09,0.15,0.18,0.3,0.29,0.43c0.04,0.09,0.1,0.16,0.17,0.22
			c-0.17,0.94-0.34,1.88-0.57,2.82c-0.36,1.52-0.47,3.1-0.81,4.62c-0.35,1.58-0.55,3.18-0.77,4.78c-0.13,0.98-0.22,1.96-0.3,2.94
			c-0.02-1.79-0.23-3.53-0.6-5.33c-0.33-1.6-0.93-3.1-1.68-4.53c-0.01-0.11-0.02-0.22-0.04-0.33c-0.08-0.66-0.26-1.31-0.28-1.98
			c-0.02-0.67,0.08-1.34,0.06-2.01c-0.01-0.62,0-1.23-0.03-1.85c0.15-0.01,0.3-0.04,0.44-0.11c0.26-0.13,0.49-0.39,0.63-0.64
			c0.14-0.23,0.22-0.52,0.21-0.79c-0.01-0.26-0.07-0.51-0.21-0.74c-0.15-0.23-0.34-0.42-0.57-0.57c-0.19-0.13-0.42-0.24-0.65-0.27
			c-0.3-0.05-0.57-0.01-0.84,0.13c-0.4,0.19-0.69,0.62-0.79,1.04c-0.12,0.49-0.02,1.05,0.36,1.4c0.12,0.11,0.26,0.2,0.41,0.26
			c0.03,0.76-0.02,1.52-0.03,2.27c-0.01,0.58-0.09,1.17-0.09,1.75c-0.38-0.61-0.77-1.22-1.21-1.81c-0.56-0.74-1.24-1.36-1.92-1.98
			c0.37-0.25,0.73-0.54,1.01-0.88c0.28-0.34,0.49-0.72,0.61-1.15c0.12-0.43,0.08-0.81-0.01-1.24c-0.17-0.83-0.61-1.5-1.28-2.02
			c-0.33-0.26-0.71-0.43-1.08-0.6c-0.09-0.12-0.21-0.21-0.36-0.27c-0.12-0.05-0.25-0.09-0.37-0.14c-0.1-0.07-0.2-0.13-0.3-0.21
			c-0.17-0.16-0.41-0.15-0.59-0.07c-0.44-0.1-0.88-0.15-1.35-0.07c-0.74,0.13-1.52,0.61-2,1.18c-1.23,1.46-0.42,3.43,0.69,4.69
			c0.51,0.58,1.1,1.06,1.83,1.34c0.61,0.23,1.21,0.25,1.8,0.11c0.75,0.73,1.56,1.43,2.17,2.29c0.59,0.84,1.06,1.68,1.56,2.56
			c1.09,1.88,2.07,3.77,2.52,5.91c0.25,1.16,0.47,2.28,0.51,3.47c0.03,1.1,0.01,2.2,0.03,3.3c0.03,2.29-0.06,4.61,0.09,6.89
			c0.01,0.09,0.03,0.17,0.07,0.23c0,0.11,0.01,0.22,0,0.33c-0.03,0.31-0.07,0.59-0.07,0.91c0,0.11-0.01,0.22-0.02,0.33
			c-0.02,0.16-0.05,0.32-0.07,0.48c-0.22,1.59-0.49,3.18-0.7,4.78c-0.06,0.47-0.08,0.94-0.1,1.41c-0.19,0.75-0.4,1.49-0.62,2.25
			c-0.47,1.61-1.02,3.22-1.42,4.85c-0.44,1.74-0.87,3.49-1.34,5.23c-0.9,3.35-1.86,6.7-3.16,9.93c-0.27,0.66-0.61,1.29-0.86,1.96
			c-0.28,0.75-0.7,1.38-1.05,2.08c-0.81,1.62-1.48,3.3-2.23,4.95c-0.38,0.82-0.79,1.66-1.23,2.45c-0.48,0.86-1.14,1.59-1.68,2.41
			c-0.52,0.8-1.01,1.55-1.61,2.3c-0.24,0.29-0.4,0.6-0.59,0.92c-0.06,0.1-0.15,0.18-0.22,0.27c-0.07-0.36-0.14-0.72-0.18-1.08
			c-0.13-1.11-0.26-2.29-0.13-3.4c0.13-1.09,0.4-2.24,0.68-3.3c0.28-1.05,0.79-2.05,1-3.12c0.15-0.75,0.25-1.53,0.33-2.31
			c0.61,0.36,1.47,0.16,2.06-0.27c1.56-1.13,2.57-2.92,2.85-4.82c0.08-0.57,0.08-1.12,0.07-1.69c-0.01-0.47,0.08-0.99-0.02-1.45
			c-0.19-0.94-1.18-1.11-1.82-0.48c-0.5,0.5-0.83,1.2-1.24,1.77c-0.59,0.81-1.22,1.59-1.83,2.38c0.06-0.94,0.1-1.88,0.13-2.83
			c0.02-0.51,0.18-1.01,0.18-1.52c0-0.07-0.02-0.14-0.02-0.21c0-0.01,0-0.01,0.01-0.01c0,0,0,0-0.01,0.01c0,0,0-0.01,0-0.01
			c0.01-0.03,0.03-0.05,0.04-0.07c0,0-0.02,0.05-0.03,0.08c0,0,0.01-0.01,0.02-0.01c0.02-0.01,0.13-0.08,0.12-0.08
			c0.05-0.03,0.09-0.05,0.14-0.07c0.02-0.01,0.02-0.01,0.04-0.02c0.06-0.02,0.12-0.05,0.19-0.07c0.11-0.04,0.23-0.08,0.34-0.11
			c0.69-0.24,1.3-0.6,1.86-1.07c0.98-0.82,1.62-2.1,1.61-3.39c-0.01-1.47-0.89-2.7-2.26-3.22c-0.64-0.24-1.42-0.27-2.07-0.03
			c-0.66,0.25-1.15,0.79-1.48,1.41c-0.38,0.74-0.6,1.55-0.62,2.39c-0.02,0.92,0.2,1.82,0.32,2.72c0,0.03,0.03,0.06,0.03,0.09
			c0.03,0.56,0.18,1.13,0.16,1.69c-0.01,0.42-0.16,0.83-0.18,1.25c-0.06,1.05-0.05,2.09-0.15,3.14c-0.1,1.09,0.03,2.18,0,3.28
			c-0.03,1.11-0.16,2.46-0.44,3.54c-0.55,2.07-1.25,4.08-1.53,6.22c-0.14,1.08-0.07,2.21,0.06,3.29c0.12,1,0.48,1.94,0.63,2.92
			c-0.38,0.48-0.76,0.95-1.13,1.43c-0.56,0.73-1.12,1.5-1.55,2.31c-0.44,0.83-0.8,1.68-1.29,2.49c-1.37,2.28-2.98,4.35-4.71,6.35
			c0.23-0.54,0.47-1.07,0.73-1.6c1.2-2.42,2.65-4.83,3.39-7.45c1.47-5.21,1.77-10.85,0.38-16.12c-0.3-1.14-0.53-2.3-0.86-3.43
			c-0.22-1.13-0.48-2.27-0.78-3.37c-0.37-1.31-0.99-2.69-1.89-3.72c-0.29-0.33-0.78-0.2-1,0.11c-0.24,0.1-0.43,0.33-0.34,0.66
			c0.15,0.55,0.27,1.1,0.36,1.67c-0.01,0.59-0.02,1.17,0.06,1.75c0.08,0.63,0.04,1.24,0.05,1.87c0.01,0.29,0.04,0.58,0.06,0.88
			c0,0.32,0.01,0.63,0.01,0.95c-0.14,1.03-0.28,2.07-0.44,3.1c-0.23,1.5-0.65,2.96-0.91,4.45c-0.26,1.46-0.43,2.93-0.66,4.39
			c-0.23,1.45-0.62,2.86-0.9,4.31c-0.24,1.27-0.89,2.47-1.33,3.68c-0.95,2.61-2.12,5.17-2.97,7.81c-0.77,2.39-0.57,5.19,0.1,7.61
			c-0.41,0.4-0.82,0.81-1.23,1.22c-0.67,0.66-1.4,1.27-2.02,1.98c-1.33,1.52-2.74,2.96-4.12,4.43c-0.63,0.67-1.23,1.38-1.94,1.97
			c-0.34,0.28-0.56,0.58-0.8,0.94c-0.33,0.49-0.7,0.89-1.09,1.34c-0.66,0.76-1.16,1.62-1.73,2.45c-0.6,0.87-1.26,1.7-1.86,2.57
			c-1.17,1.7-2.13,3.54-3.29,5.23c-0.49,0.71,0.57,1.47,1.16,0.9c0.61-0.6,0.94-1.35,1.4-2.07c0.49-0.78,1.04-1.51,1.51-2.29
			c0.99-1.64,2.22-3.12,3.26-4.73c0.5-0.77,1.2-1.38,1.72-2.13c0.25-0.36,0.42-0.73,0.76-1.02c0.38-0.33,0.72-0.64,1.06-1.01
			c1.39-1.54,2.85-3.02,4.26-4.55c1.24-1.35,2.56-2.56,3.87-3.84c1.26-1.23,2.44-2.52,3.61-3.82c0.1-0.06,0.2-0.14,0.27-0.26
			c0.02-0.03,0.03-0.06,0.05-0.09c0.05-0.06,0.11-0.12,0.16-0.18c1.27-1.42,2.58-2.75,3.75-4.25c0.68-0.89,1.39-1.76,2.07-2.65
			c0.89,0.78,2.86,0.34,3.8,0.32c0.42-0.01,0.8-0.11,1.21-0.19c0.52-0.1,1.05-0.07,1.58-0.14c0.94-0.11,1.83-0.57,2.69-0.95
			c1.62-0.72,3.24-1.59,4.74-2.54c2.84-1.79,5.46-4.51,6.98-7.52c1.7-3.37,3.06-6.85,4.5-10.34c1.6-3.87,3.35-7.85,5.66-11.35
			c0.12-0.17,0.14-0.34,0.12-0.5c0.31-0.47,0.11-1.25-0.62-1.24c-1.19,0.01-2.15,0.56-3.05,1.29c-0.97,0.79-1.9,1.69-2.62,2.73
			c-0.8,1.15-1.64,2.3-2.25,3.57c-0.6,1.25-1.16,2.52-1.69,3.8c-1.1,2.64-2.95,5.1-4.89,7.17c-0.98,1.04-2.01,2.02-3.07,2.97
			c-1.03,0.92-1.89,1.99-2.93,2.9c-2.04,1.78-4.23,3.91-6.95,4.56c0.27-0.53,0.56-1.06,0.89-1.56c0.54-0.83,1.09-1.64,1.66-2.43
			c0.15-0.06,0.26-0.18,0.31-0.4c0-0.01,0-0.02,0-0.04c0.01-0.01,0.01-0.01,0.02-0.02c0.04-0.02,0.09-0.04,0.13-0.07
			c0.64-0.51,1.03-0.95,1.47-1.63c0.44-0.67,1.03-1.23,1.47-1.91c0.96-1.46,1.99-2.83,2.78-4.39c0.81-1.58,1.56-3.18,2.3-4.79
			c0.68-1.49,1.49-2.88,2.11-4.39c0.61-1.48,1.25-2.94,1.81-4.45c0.12-0.21,0.23-0.41,0.34-0.62c0.51-1.01,0.95-2.07,1.39-3.11
			c0.22-0.52,0.37-1.05,0.54-1.58c0.17-0.54,0.43-1.06,0.66-1.58c0.43-0.97,0.92-1.92,1.21-2.95c0.22-0.43,0.44-0.89,0.75-1.25
			c0.16-0.19,0.37-0.36,0.54-0.54c0.19-0.2,0.41-0.38,0.61-0.57c0.02-0.02,0.04-0.04,0.07-0.06c0.15,0.36,0.38,0.68,0.73,0.95
			c0.57,0.43,1.28,0.84,1.96,1.07c1.71,0.6,3.34,0.89,5.15,0.67c1.7-0.2,3.19-0.99,4.49-2.08c0.63-0.53,1.15-1.12,1.61-1.8
			c0.37-0.54,0.91-1.25,0.82-1.95c-0.06-0.46-0.39-0.77-0.88-0.67c-0.42,0.09-0.74,0.35-1.12,0.54c-0.45,0.23-0.94,0.36-1.43,0.47
			c-1.15,0.25-2.31,0.37-3.48,0.32c-0.54-0.03-1.08-0.07-1.63-0.11c0.51-0.2,1.02-0.42,1.53-0.62c0.77-0.3,1.57-0.54,2.31-0.92
			c0.66-0.34,1.21-0.79,1.75-1.28c0.18-0.17,0.37-0.34,0.52-0.54c0.05,0.02,0.11,0.05,0.16,0.07c0.82,0.34,1.89,0.16,2.61-0.34
			c0.99-0.68,1.51-2.03,1.52-3.2c0-0.63-0.17-1.26-0.58-1.74c-0.43-0.5-1.14-0.73-1.79-0.68c-1.09,0.08-2.01,0.91-2.53,1.83
			c-0.55,0.97-0.7,2-0.68,3.1c0,0.14,0.06,0.27,0.14,0.38c-0.15,0.12-0.3,0.24-0.45,0.36c-0.73,0.58-1.48,0.99-2.36,1.31
			c-0.88,0.32-1.74,0.68-2.61,1.01c-0.85,0.32-1.74,0.44-2.58,0.76c-1.53,0.58-2.99,1.17-4.36,2.06c-0.61,0.39-1.08,0.87-1.48,1.4
			c0.1-0.42,0.2-0.85,0.32-1.27c0.23-0.82,0.57-1.6,0.79-2.43c0.1-0.4,0.22-0.8,0.35-1.21c0.05-0.07,0.1-0.15,0.15-0.22
			c0.41-0.68,0.73-1.42,1.16-2.08c0.76-1.16,1.8-2.23,2.83-3.14c0.5-0.44,0.96-0.9,1.42-1.39c0.45-0.48,1.04-0.79,1.59-1.15
			c1.23-0.82,2.41-1.71,3.66-2.5c2.35-1.5,4.83-2.83,6.36-5.26c0.8-1.26,1.32-2.73,1.91-4.1c0.27-0.64,0.58-1.27,0.83-1.92
			c0.28-0.74,0.38-1.53,0.6-2.28c0.48-1.67,1.13-3.29,1.41-5.01c0.25-1.57,0.61-3.1,0.73-4.69c0.1-0.22,0.21-0.44,0.31-0.66
			c0.34-0.82-0.99-1.17-1.32-0.36c-0.06,0.15-0.15,0.3-0.21,0.45c-0.06,0.08-0.11,0.17-0.14,0.29c-0.42,0.91-0.92,1.78-1.47,2.63
			c-0.07,0.05-0.13,0.11-0.18,0.2c-0.1,0.18-0.2,0.36-0.3,0.53c-1.91,2.75-4.37,5.18-6.92,7.23c-1.89,1.51-3.85,2.89-5.61,4.57
			c-0.87,0.83-1.67,1.73-2.54,2.57c-0.81,0.78-1.37,1.83-2.02,2.75c-0.2,0.29-0.4,0.59-0.58,0.9c0.06-0.34,0.11-0.68,0.17-1.02
			c0.48-2.48,0.69-5.03,0.9-7.54c0.1-1.24,0.31-2.48,0.45-3.72c0.14-1.25,0.43-2.47,0.59-3.71c0.18-1.43,0.3-2.93,0.65-4.33
			c0.11-0.43,0.18-0.87,0.25-1.32c0.16-0.05,0.29-0.16,0.34-0.38c0.45-2.39,0.72-4.83,1.09-7.24c0.33-2.14,1.1-4.22,1.83-6.25
			c0.37-1.03,0.83-2.03,1.2-3.06c0.38-1.06,0.73-2.12,1.21-3.15c0.9-1.92,1.99-3.71,3.19-5.45c0.03,0.03,0.05,0.08,0.09,0.11
			c0.12,0.1,0.24,0.18,0.37,0.24c0.1,0.22,0.31,0.37,0.59,0.27c0.04-0.01,0.07-0.03,0.11-0.05c1.7,0.24,3.83-1.28,4.98-2.15
			c0.88-0.67,1.88-1.29,2.64-2.1c0.8-0.84,1.41-1.87,2-2.86c0.6-1.01,1.07-2.06,1.59-3.11c0.56-1.13,0.9-2.15,1.16-3.38
			c0.57-2.63,1.02-5.24,1.2-7.93c0.12-1.85,0.23-3.7,0.16-5.54c0.13-1.01,0.21-2.01,0.21-2.97
			C254.37,85.68,252.95,85.68,252.93,86.6z M219.68,136.61c-0.1,0.04-0.2,0.08-0.31,0.11c-0.13,0.04-0.11,0.03-0.23,0.04
			c-0.4,0.02-0.77-0.06-1.08-0.21c-0.71-0.35-1.24-0.85-1.85-1.33c0-0.03,0-0.06,0-0.06c0.02-0.29-0.11-0.54-0.32-0.71
			c0.17-0.15,0.4-0.31,0.64-0.41c0.67-0.28,1.41,0.08,2.04,0.32c0.52,0.36,1.05,0.7,1.35,1.23c0.09,0.15,0.15,0.36,0.16,0.52
			c0.01,0.13,0.02,0.26,0.03,0.38C219.96,136.52,219.82,136.56,219.68,136.61z M210.55,184.62c0.04-0.09,0.02-0.07,0.1-0.22
			c0.06-0.11,0.12-0.22,0.18-0.33c0.06-0.09,0.1-0.14,0.12-0.17c0.04-0.05,0.08-0.09,0.13-0.13c0.02-0.02,0.07-0.06,0.09-0.07
			c0.15-0.1,0.22-0.12,0.42-0.12c0.26-0.01,0.47,0.03,0.74,0.14c0.24,0.1,0.42,0.28,0.58,0.49c-0.03,0.05-0.07,0.11-0.08,0.17
			c-0.04,0.14-0.07,0.28-0.12,0.42c-0.01,0.03-0.1,0.24-0.03,0.11c-0.02,0.05-0.05,0.1-0.08,0.15c-0.01,0.02-0.03,0.04-0.04,0.06
			c-0.01,0.01-0.01,0.01-0.02,0.02c-0.05,0.05-0.1,0.1-0.15,0.15c-0.04,0.04-0.08,0.07-0.13,0.11c-0.01,0.01-0.08,0.06-0.1,0.08
			c-0.29,0.21-0.6,0.38-0.92,0.56c-0.03,0.01-0.07,0.01-0.1,0.02c-0.31,0.07-0.62,0.19-0.83,0.43
			C210.28,185.85,210.32,185.24,210.55,184.62z M205.92,220.52c2.31-0.29,4.29-1.83,6.05-3.24c2.15-1.73,4.06-3.69,6.08-5.56
			c2.09-1.93,3.98-4.12,5.54-6.5c1.49-2.28,2.33-4.84,3.58-7.23c-0.13,0.39-0.26,0.77-0.41,1.16c-1.04,2.64-2.27,5.19-3.59,7.7
			c-1.29,2.46-2.78,4.89-4.38,7.15c-0.62,0.87-1.29,1.76-2.02,2.59c-0.6,0.46-1.21,0.91-1.84,1.34c-1.68,1.16-3.51,1.99-5.44,2.61
			c-0.83,0.27-1.6,0.7-2.44,0.95c-0.64,0.19-1.28,0.29-1.93,0.34C205.41,221.39,205.67,220.96,205.92,220.52z M239.47,171.97
			c0.04-0.15,0.13-0.38,0.16-0.45c0.08-0.16,0.16-0.32,0.25-0.47c0.09-0.16,0.19-0.29,0.26-0.37c0.25-0.29,0.43-0.45,0.74-0.61
			c0.01,0,0.05-0.02,0.08-0.04c0.02-0.01,0.05-0.02,0.05-0.02c0.08-0.02,0.15-0.04,0.23-0.06c0.01,0,0.12-0.01,0.15-0.01
			c0.06,0,0.12,0.01,0.18,0.01c0.01,0,0.03,0,0.04,0.01c0.06,0.01,0.11,0.03,0.17,0.05c0,0,0.01,0,0.01,0
			c0.04,0.03,0.1,0.06,0.14,0.08c0,0,0,0,0,0c0,0,0.01,0.01,0.01,0.01c-0.5,0.23-0.72,0.85-0.99,1.32
			c-0.01,0.02-0.02,0.04-0.03,0.06c-0.03,0.02-0.07,0.07-0.07,0.07c0,0-0.1,0.08-0.04,0.03c-0.18,0.14-0.38,0.25-0.58,0.36
			c-0.27,0.14-0.55,0.26-0.83,0.39C239.41,172.22,239.43,172.09,239.47,171.97z M228.98,163.25c0.69-0.97,1.35-2.05,2.24-2.84
			c0.9-0.81,1.66-1.75,2.55-2.58c1.77-1.65,3.74-3.04,5.59-4.6c0.74-0.62,1.47-1.28,2.18-1.95c-0.17,0.37-0.34,0.72-0.54,1.07
			c-0.79,1.35-1.85,2.5-2.76,3.77c-0.89,1.25-1.95,2.3-3.04,3.38c-1.02,1.01-2.16,1.88-3.19,2.88c-1.06,1.04-2.08,2.11-3.1,3.19
			c-0.71,0.75-1.32,1.52-1.86,2.36c0.01-0.27,0.02-0.53,0.03-0.8C227.54,165.75,228.15,164.42,228.98,163.25z M233.49,117.49
			c-0.2-2.85-0.44-5.69,0.3-8.49c0.76-2.84,2.22-5.5,3.71-8.01c0.35-0.59,0.77-1.13,1.11-1.73c0.33-0.59,0.59-1.22,0.85-1.85
			c-0.23,1.48-0.42,2.96-0.74,4.43c-0.62,2.78-1.9,5.33-3.03,7.93c-0.54,1.24-0.97,2.6-1.36,3.9
			C233.95,114.9,233.7,116.2,233.49,117.49z M249.49,101.86c-0.26,0.77-0.47,1.53-0.8,2.28c-0.66,1.53-1.3,3.07-2,4.58
			c-0.36,0.76-0.7,1.56-1.2,2.25c-0.43,0.59-0.94,1.11-1.3,1.76c-0.01,0.03-0.02,0.05-0.03,0.08c-0.25,0.23-0.51,0.44-0.79,0.66
			c-0.27,0.2-0.5,0.42-0.73,0.67c-0.14,0.08-0.28,0.17-0.42,0.24c-0.33,0.16-1.49,0.74-1.85,0.45c-0.43-0.34-0.2-1.77-0.1-2.19
			c0.27-1.13,0.73-2.05,1.34-3.02c1.1-1.75,3.06-2.96,4.64-4.25c1.29-1.05,2.42-2.47,3.37-3.9
			C249.6,101.59,249.54,101.72,249.49,101.86z"/>
		<path class="st16" d="M196.07,279.15c-1.49-2.41-2.98-4.79-4.09-7.41c-1.11-2.61-2.11-5.25-3-7.94c-0.43-1.3-0.62-2.68-0.87-4.02
			c-0.19-0.99-0.33-1.99-0.46-2.99c0.08-0.92-0.16-1.79-0.26-2.78c-0.15-1.37-0.22-2.74-0.37-4.11c-0.15-1.45-0.31-2.89-0.47-4.34
			c-0.15-1.39-0.11-2.8-0.24-4.2c-0.13-1.41-0.04-2.8-0.12-4.2c-0.07-1.38-0.32-2.72-0.35-4.1c-0.03-1.41-0.22-2.8-0.25-4.21
			c-0.04-1.5-0.21-2.99-0.38-4.48c-0.34-2.89-0.7-5.77-0.88-8.68c-0.17-2.77-0.95-5.48-1.4-8.22c-0.23-1.38-0.34-2.74-0.67-4.1
			c-0.34-1.37-0.67-2.74-1.05-4.1c-0.76-2.69-1.76-5.3-2.95-7.83c-0.32-0.68-0.57-1.39-0.92-2.05c-0.33-0.65-0.7-1.27-0.98-1.95
			c-0.44-1.05-0.85-2.12-1.27-3.18c0.01-0.03,0.03-0.04,0.04-0.07c0.21-1.66,0.25-3.33,0.27-5c0.02-1.59,0.12-3.18,0.11-4.77
			c-0.02-3.31-0.26-6.6-1.09-9.81c-0.32-1.24-0.7-2.72-1.55-3.72c-0.59-0.69-1.55-0.92-2.15-0.12c-0.61,0.81-0.78,2.18-0.88,3.14
			c-0.16,1.54-0.13,3.13-0.12,4.67c0.02,1.88,0.43,3.74,0.71,5.59c0.07,0.44,0.17,0.88,0.26,1.32c-0.53-1.14-1.15-2.22-1.89-3.29
			c-1.14-1.63-2.23-3.3-3.29-4.97c-1.06-1.67-1.86-3.43-3.25-4.87c-0.5-0.52-0.99-1.05-1.49-1.58c0.06-0.1,0.09-0.22,0.07-0.36
			c-0.19-1.35-0.25-2.67-0.04-4.03c0.21-1.36,0.82-2.59,1.33-3.85c0.53-1.31,1.05-2.64,1.55-3.97c0.27-0.73,1.17-2.47,0.22-3.02
			c-0.94-0.55-2.01,0.68-2.56,1.29c-0.83,0.93-1.46,1.98-2.09,3.05c-1.26,2.13-2.14,4.37-2.29,6.84c-0.68-0.63-1.38-1.25-2.06-1.88
			c-0.26-0.58-0.49-1.17-0.64-1.79c-0.11-0.45-0.26-0.9-0.28-1.36c-0.02-0.51,0.02-1.04,0.02-1.55c0-0.99-0.05-2.07,0.13-3.04
			c0.14-0.78,0.46-1.52,0.75-2.26c0.8-0.29,1.65-0.39,2.48-0.6c1.01-0.25,1.91-0.64,2.85-1.09c0.99-0.47,1.81-1.11,2.59-1.87
			c0.72-0.69,1.28-1.37,1.52-2.36c0.22-0.91-0.1-1.9-0.85-2.48c-0.77-0.59-1.84-0.64-2.76-0.51c-0.36,0.05-0.76,0.11-1.12,0.01
			c-0.04-0.01-0.04-0.01-0.06-0.01c0.03,0,0.05-0.01,0.05-0.04c0-0.1,0.02-0.21,0.03-0.32c0.01-0.2,0.03-0.41-0.01-0.61
			c-0.17-1.02-1.2-1.13-2.05-1.15c-1.22-0.02-2.37-0.59-3.6-0.56c-0.81,0.02-1.44,0.39-1.95,0.92c-0.9-0.1-1.67-0.54-2.54-0.76
			c-0.86-0.21-1.72-0.02-2.44,0.52c-0.66,0.49-1.09,1.3-1.35,2.07c-0.33,0.94-0.02,1.63,0.5,2.42c0.23,0.35,0.53,0.65,0.78,1
			c0.25,0.35,0.46,0.74,0.76,1.05c0.34,0.35,0.67,0.73,1.06,1.03c0.34,0.26,0.73,0.44,1.08,0.68c0.33,0.23,0.6,0.52,0.91,0.77
			c0.38,0.3,0.8,0.48,1.22,0.72c0.31,0.17,0.57,0.42,0.87,0.6c0.23,0.14,0.45,0.23,0.68,0.3c-0.3,0.75-0.6,1.51-0.75,2.3
			c-0.19,1.06-0.14,2.22-0.15,3.29c0,0.55-0.05,1.11-0.02,1.66c0.02,0.33,0.09,0.65,0.17,0.97c-0.82-0.82-1.64-1.65-2.52-2.39
			c-1.36-1.15-2.55-2.58-3.81-3.84c-0.72-0.72-1.41-1.46-2.07-2.22c-0.04-0.26-0.24-0.49-0.49-0.61c-0.46-0.55-0.92-1.09-1.35-1.67
			c-0.01-0.02-0.03-0.04-0.04-0.06c0.01-0.08,0.01-0.16-0.01-0.24c0.4-0.68,0.41-1.75,0.48-2.45c0.12-1.19,0.17-2.39,0.11-3.58
			c-0.05-1.16-0.21-2.31-0.34-3.47c-0.13-1.16-0.1-2.46-0.54-3.56c-0.12-0.3-0.44-0.49-0.76-0.46c-0.83,0.08-1.02,1.09-1.22,1.74
			c-0.27,0.86-0.49,1.73-0.74,2.6c-0.26,0.92-0.28,1.9-0.34,2.84c-0.03,0.47-0.04,0.93-0.02,1.39c-1.12-1.95-2.15-3.96-3.12-5.99
			c0.01-0.08,0-0.15-0.03-0.23c0.1-0.04,0.19-0.1,0.26-0.22c0.56-0.96,1.09-1.84,1.82-2.68c0.78-0.89,1.49-1.89,2.17-2.85
			c1.06-1.5,1.89-3.2,1.35-5.05c-0.52-1.79-2.3-2.75-4.04-1.81c-0.74,0.39-1.21,1.16-1.67,1.84c-0.24,0.36-0.45,0.97-0.99,0.85
			c-0.48-0.11-0.89-0.72-1.27-1c-0.68-0.49-1.37-0.84-2.23-0.75c-0.87,0.1-1.58,0.73-1.98,1.48c-0.21,0.4-0.38,0.85-0.51,1.28
			c-0.17,0.55-0.24,0.77-0.86,0.68c-0.41-0.06-0.74-0.19-1.16-0.13c-0.53,0.08-1.07,0.31-1.54,0.56c-0.69,0.37-1.19,0.92-1.29,1.72
			c-0.04,0.33-0.03,0.73,0.09,1.04c0.06,0.16,0.17,0.31,0.28,0.44c0.09,0.11,0.21,0.21,0.33,0.28c0.22,0.14,0.22,0.15,0,0.02
			c-0.3,0.31-0.63,0.5-0.9,0.85c-0.34,0.43-0.63,0.91-0.95,1.36c-0.52,0.73-1.12,1.51-1.04,2.46c0.08,0.9,0.9,1.15,1.71,1.18
			c1.3,0.05,2.59-0.29,3.88-0.42c2.54-0.25,5.07-0.37,7.61-0.17c1.59,3.31,3.34,6.57,5.39,9.63c0.26,0.39,0.54,0.77,0.81,1.16
			c-0.23-0.1-0.46-0.19-0.69-0.3c-0.79-0.38-1.58-0.81-2.3-1.33c-0.7-0.5-1.35-1.08-2.01-1.64c-0.72-0.61-1.32-1.35-2.03-1.97
			c-0.35-0.3-0.97-0.08-1.02,0.39c-0.07,0.63,0.34,1.19,0.62,1.67c0.39,0.68,0.89,1.33,1.43,1.9c0.89,0.96,1.87,1.82,2.89,2.63
			c0.23,0.26,0.5,0.49,0.75,0.73c0.3,0.3,0.66,0.38,1,0.54c0.41,0.2,0.79,0.26,1.24,0.3c-0.1-0.01,0.11,0.02,0.13,0.02
			c0.09,0.01,0.18,0.03,0.27,0.04c0.22,0.02,0.45,0.02,0.67,0.02c0.15,0,0.31-0.01,0.46,0c0.01,0.01,0.14,0.04,0.15,0.04
			c0.07,0.01,0.13,0.01,0.2,0.02c0.19,0.01,0.36-0.01,0.52-0.05c0.12,0.15,0.23,0.31,0.36,0.45c0.47,0.56,0.98,1.08,1.49,1.6
			c-0.15-0.05-0.31-0.1-0.47-0.13c-1.09-0.24-2.08-0.19-3.19-0.18c-0.72,0.01-1.45,0.05-2.17,0.11c-0.01-0.01-0.01-0.03-0.01-0.04
			c-0.16-0.23-0.41-0.27-0.6-0.42c-0.21-0.16-0.4-0.35-0.6-0.51c-0.47-0.38-0.95-0.75-1.42-1.13c-0.47-0.38-0.95-0.74-1.44-1.09
			c-0.45-0.32-1.04-0.86-1.63-0.61c-0.19,0.08-0.36,0.26-0.38,0.47c-0.05,0.44,0.19,0.75,0.38,1.1c0.17,0.31,0.36,0.62,0.56,0.91
			c0.42,0.6,0.91,1.15,1.42,1.68c0.01,0.01,0.01,0.01,0.02,0.01c-0.57,0.05-1.15,0.1-1.72,0.13c-0.36,0.02-0.73,0-1.09,0
			c-0.22-0.84-0.91-1.59-1.37-2.31c-0.55-0.84-1.17-1.63-1.8-2.4c-0.62-0.77-1.28-1.51-2.01-2.18c-0.53-0.49-1.6-1.52-2.35-0.87
			c-0.18,0.16-0.34,0.39-0.29,0.65c0.26,1.34,1,2.55,1.71,3.7c0.59,0.95,1.21,1.89,1.87,2.8c-0.66-0.2-1.31-0.45-1.91-0.77
			c-1.77-0.94-3.42-2.38-4.8-3.91c0.17-0.29,0.29-0.61,0.43-0.91c0.15-0.34,0.46-0.7,0.48-1.09c0.18-0.18,0.35-0.38,0.49-0.61
			c0.38-0.63,0.7-1.29,1.06-1.93c0.73-1.28,0.93-2.7,0.06-3.97c-0.33-0.48-0.8-0.9-1.37-1.06c-0.76-0.21-1.45,0.15-2.08,0.54
			c-0.24,0.15-0.52,0.44-0.81,0.5c-0.34,0.07-0.49-0.16-0.75-0.36c-0.51-0.37-1.13-0.58-1.77-0.5c-1.11,0.13-1.95,1.25-2.43,2.18
			c-0.22,0.42-0.38,0.93-0.71,1.27c-0.52,0.54-1.17-0.03-1.75-0.19c-1.21-0.34-2.23,0.66-2.08,1.86c0.2,1.6,1.61,2.64,2.87,3.41
			c0.74,0.45,1.44,0.87,2.3,1.07c0.97,0.23,1.99,0.26,2.97,0.39c0.19,0.03,0.34-0.03,0.45-0.13c0.04,0.02,0.08,0.04,0.12,0.05
			c0.46,0.07,0.95,0.2,1.42,0.17c0.69,0.78,1.44,1.52,2.24,2.21c-0.31-0.08-0.62-0.16-0.94-0.22c-0.02-0.01-0.03-0.02-0.05-0.02
			c-0.94-0.23-1.87-0.49-2.81-0.73c-0.79-0.2-1.61-0.46-2.44-0.48c-0.76-0.02-1.73,0.4-1.37,1.34c0.24,0.64,0.91,1.1,1.48,1.43
			c1.41,0.8,2.97,1.39,4.56,1.67c0.83,0.15,1.68,0.21,2.52,0.16c0.89-0.05,1.77-0.31,2.66-0.31c0.19,0,0.33-0.08,0.42-0.19
			c1.63,0.71,3.37,1.08,5.17,1.29c2.52,0.29,5.17,0.01,7.67-0.33c2.39-0.32,4.84-0.68,7,0.62c0.13,0.08,0.25,0.08,0.36,0.05
			c0.12,0.13,0.25,0.26,0.37,0.4c1.17,1.34,2.5,2.55,3.77,3.8c1.41,1.39,2.87,2.75,4.34,4.08c0.71,0.65,1.35,1.33,1.98,2.06
			c0.6,0.68,1.27,1.28,1.82,2c0.99,1.29,1.98,2.51,2.84,3.88c-0.95-0.74-1.97-1.4-2.97-2.07c-2.12-1.43-4.28-2.82-6.73-3.59
			c-0.67-0.21-1.68-0.65-2.27-0.03c-0.68,0.72,0.29,1.79,0.74,2.34c1.45,1.79,3.47,3.03,5.4,4.22c0.55,0.34,1.1,0.71,1.67,1.01
			c0.57,0.3,1.19,0.49,1.79,0.72c0.46,0.18,0.94,0.37,1.42,0.54c0.31,0.13,0.61,0.27,0.93,0.39c0.2,0.07,0.43,0.12,0.62,0.23
			c0.15,0.09,0.3,0.25,0.49,0.31c0.17,0.06,0.41,0.09,0.55,0.14c0.2,0.07,0.38,0.2,0.57,0.3c0.19,0.1,0.4,0.16,0.59,0.27
			c0.12,0.07,0.23,0.15,0.34,0.23c0.34,0.52,0.67,1.03,1.03,1.54c0.61,0.86,1.34,1.68,1.86,2.6c0.22,0.39,0.44,0.77,0.66,1.15
			c-0.2-0.05-0.4-0.1-0.55-0.14c-1.21-0.33-2.39-0.67-3.63-0.9c-1.38-0.25-2.76-0.48-4.13-0.76c-0.72-0.15-1.5-0.28-2.26-0.45
			c0.04-0.09,0.06-0.19,0.04-0.29c-0.07-0.33-0.27-0.61-0.4-0.92c-0.15-0.35-0.34-0.68-0.55-0.99c-0.39-0.59-0.87-1.12-1.35-1.64
			c-0.47-0.51-0.97-1.02-1.43-1.51c-0.42-0.45-0.87-0.93-1.47-1.13c-0.35-0.12-0.81,0.03-0.85,0.46c-0.05,0.45,0.23,0.76,0.47,1.1
			c0.25,0.35,0.48,0.85,0.73,1.25c0.42,0.67,0.74,1.4,1.11,2.11c-0.49-0.31-0.96-0.64-1.37-1.01c-0.38-0.35-0.83-0.7-1.16-1.1
			c-0.45-0.54-0.8-1.19-1.18-1.77c-0.75-1.14-1.43-2.28-2.06-3.49c-0.56-1.06-1.24-2.01-1.9-3.01c-0.74-1.12-1.49-2.17-2.33-3.23
			c-0.46-0.58-0.96-1.02-1.51-1.42c0.27-0.28,0.5-0.6,0.76-0.92c0.37-0.46,0.76-0.92,1.09-1.41c0.32-0.47,0.49-1.02,0.62-1.56
			c0.18-0.79,0.14-1.75-0.41-2.39c-0.3-0.34-0.71-0.55-1.16-0.61c-0.32-0.04-0.61,0.04-0.92,0.08c-0.36,0.04-0.69,0.04-1.01,0.23
			c-0.2,0.12-0.36,0.28-0.51,0.46c-0.06,0.07-0.11,0.15-0.17,0.21c-0.03,0.04-0.2,0.15-0.11,0.15c-0.16,0-0.4-0.24-0.55-0.31
			c-0.27-0.11-0.57-0.18-0.85-0.19c-0.51-0.03-1.01,0.2-1.48,0.39c-0.54,0.22-1.02,0.52-1.33,1.03c-0.27,0.43-0.4,0.93-0.46,1.43
			c-0.02,0.17,0,0.64-0.11,0.77c-0.12,0.13-0.39,0.07-0.59,0.07c-1.01,0-2.07,0.84-2,1.92c0.08,1.21,1.33,2.01,2.45,2.14
			c1.5,0.16,3-0.51,4.5-0.41c0.16,0.01,0.29-0.04,0.39-0.12c0.29-0.02,0.56-0.11,0.82-0.22c0.17,0.11,0.34,0.22,0.5,0.35
			c0.51,0.41,0.88,0.93,1.28,1.45c0.71,0.92,1.35,1.83,1.98,2.8c0.09,0.14,0.18,0.27,0.27,0.41c-0.52-0.4-1.01-0.77-1.59-1.08
			c-0.22-0.12-0.41-0.27-0.61-0.41c-0.24-0.24-0.49-0.46-0.78-0.62c-0.1-0.06-0.2-0.12-0.3-0.18c0,0,0,0-0.01-0.01
			c0,0-0.01,0-0.01,0c-0.28-0.17-0.56-0.35-0.87-0.45c-0.4-0.13-0.87-0.25-1.22,0.06c-0.37,0.33-0.27,0.87-0.02,1.24
			c0.22,0.32,0.53,0.56,0.8,0.82c0.38,0.38,0.76,0.76,1.13,1.14c0.33,0.34,0.73,0.59,1.13,0.85c0.44,0.28,0.87,0.58,1.33,0.84
			c0.52,0.3,1.05,0.55,1.6,0.78c0.48,0.2,1.04,0.56,1.57,0.49c0.51,0.86,1.02,1.72,1.54,2.58c0.59,0.98,1.11,1.94,1.95,2.73
			c0.88,0.83,1.72,1.51,2.77,2.13c1.16,0.68,2.23,1.09,3.54,1.39c1.32,0.3,2.65,0.55,3.98,0.76c1.5,0.24,3.01,0.43,4.52,0.66
			c0.57,0.09,1.13,0.26,1.7,0.36c0.22,0.04,1.06,0.08,1.32,0.23c0.07,0.13,0.15,0.26,0.22,0.38c0.09,0.16,0.22,0.24,0.36,0.27
			c0.78,1.4,1.55,2.81,2.23,4.26c1.17,2.48,1.97,5.11,3.24,7.53c0.62,1.19,1.13,2.48,1.65,3.72c0.53,1.26,1,2.56,1.41,3.87
			c0.41,1.31,0.76,2.64,1.08,3.97c0.34,1.37,0.75,2.76,0.95,4.16c0.19,1.36,0.35,2.73,0.55,4.1c0.19,1.35,0.48,2.69,0.67,4.04
			c0.19,1.39,0.21,2.77,0.3,4.16c0.1,1.42,0.31,2.83,0.46,4.24c0.16,1.45,0.34,2.89,0.48,4.34c0.14,1.43,0.12,2.86,0.24,4.29
			c0.12,1.39,0.12,2.79,0.26,4.17c0.13,1.35,0.32,2.65,0.29,4.01c0,0.24,0.01,0.48,0.01,0.72c0,0.07,0,0.14,0,0.21
			c0.01,0.29,0.03,0.57,0.04,0.86c0.03,0.66,0.08,1.32,0.14,1.98c0.02,0.28,0.04,0.57,0.05,0.85c0.05,1.56,0.2,3.1,0.36,4.65
			c0.17,1.59,0.39,3.18,0.49,4.78c0.09,1.47,0.53,2.98,0.48,4.45c-0.01,0.24,0.1,0.45,0.25,0.61c0.22,1.81,0.5,3.61,0.9,5.39
			c0.32,1.39,0.89,2.71,1.32,4.06c0.45,1.41,1.02,2.74,1.62,4.09c1.35,3.03,3,5.78,4.95,8.46
			C195.52,280.63,196.51,279.87,196.07,279.15z M159.43,137.26c0.1,0.01,0.2,0.02,0.3,0.02c0.75,0.02,1.5-0.27,2.24-0.15
			c0.99,0.17,1.24,1.04,0.84,1.87c-0.35,0.72-1.05,1.24-1.69,1.7c-0.68,0.49-1.42,0.86-2.16,1.26c-0.86,0.46-1.66,0.81-2.61,1.04
			c-0.3,0.07-0.66,0.15-1.01,0.25c-0.02-0.04-0.05-0.08-0.07-0.12c0.3-0.36,0.6-0.71,0.91-1.06c0.48-0.54,0.88-1.14,1.3-1.72
			C158.19,139.36,158.89,138.36,159.43,137.26z M152.59,135.52c1.03-1.73,3.19-0.45,4.73-0.32c0.18,0.02,0.87,0.03,0.92,0.11
			c0.05,0.09-0.01,0.32-0.02,0.42c-0.01,0.22-0.02,0.43,0.02,0.64c0.02,0.08,0.06,0.12,0.08,0.19c-0.56,1.09-1.26,2.11-1.9,3.16
			c-0.53,0.86-1.09,1.69-1.68,2.51c-0.12-0.2-0.24-0.41-0.34-0.62c-0.31-0.68-0.58-1.39-0.82-2.1c-0.42-1.25-0.85-2.51-1.19-3.79
			C152.48,135.67,152.54,135.6,152.59,135.52z M152.67,142.62c-0.31-0.19-0.63-0.34-0.91-0.57c-0.27-0.22-0.5-0.49-0.76-0.72
			c-0.55-0.48-1.19-0.8-1.71-1.33c-0.25-0.25-0.51-0.5-0.72-0.79c-0.24-0.32-0.44-0.66-0.71-0.95c-0.4-0.44-1.01-1.06-0.86-1.7
			c0.14-0.61,0.46-1.31,0.99-1.66c0.88-0.58,1.77-0.12,2.69,0.16c-0.02,0.08-0.03,0.16-0.01,0.24c0.4,1.63,0.69,3.28,1.28,4.85
			c0.44,1.15,1.04,2.37,1.89,3.32C153.42,143.24,153.11,142.9,152.67,142.62z M124.14,131.03c-0.28,0.02-0.92,0.06-1.06-0.13
			c-0.22-0.29,0.46-1.2,0.6-1.4c0.49-0.72,0.92-1.45,1.54-2.04c0.71,0.56,1.44,1.1,2.24,1.51c0.84,0.44,1.74,0.81,2.63,1.14
			c0.34,0.12,0.68,0.23,1.03,0.33C128.79,130.54,126.45,130.89,124.14,131.03z M134.16,124.3c-0.18,0.87-0.37,1.71-0.39,2.6
			c-0.02,0.88-0.04,1.81,0.14,2.68c0.03,0.14,0.07,0.3,0.11,0.46c-0.14-0.03-0.27-0.05-0.41-0.09c-0.92-0.25-1.86-0.58-2.75-0.93
			c-1.13-0.44-2.22-0.95-3.27-1.54c-0.53-0.42-1.01-0.9-1.49-1.38c-0.03-0.03-0.07-0.05-0.11-0.07c-0.01-0.01-0.02-0.03-0.04-0.04
			c0,0-0.01,0-0.01-0.01c-0.01-0.01,0-0.02-0.01-0.04c-0.13-0.28-0.41-0.42-0.54-0.69c-0.3-0.59,0.15-1.03,0.65-1.28
			c0.35-0.17,0.74-0.33,1.13-0.35c0.36-0.02,0.69,0.12,1.05,0.13c0.63,0.03,1.28-0.18,1.63-0.74c0.39-0.63,0.41-1.44,0.83-2.07
			c0.63-0.94,1.54-0.66,2.3-0.06c0.56,0.44,0.98,0.97,1.69,1.18c0,0,0.01,0,0.01,0c-0.1,0.3-0.2,0.59-0.28,0.9
			C134.3,123.41,134.25,123.86,134.16,124.3z M135.19,128.93c-0.09-0.76-0.1-1.56-0.05-2.32c0.05-0.77,0.23-1.51,0.36-2.26
			c0.14-0.78,0.29-1.52,0.52-2.28c0.02-0.08,0.02-0.15,0.01-0.22c0.16-0.11,0.31-0.24,0.45-0.39c0.47-0.56,0.79-1.25,1.27-1.81
			c0.69-0.81,1.91-0.9,2.49,0.06c1.12,1.84-0.31,3.89-1.4,5.36c-0.66,0.89-1.33,1.74-2.03,2.58c-0.57,0.68-0.97,1.48-1.41,2.25
			C135.3,129.58,135.23,129.26,135.19,128.93z M141.55,135.36c0.05,1.05,0.1,2.09,0.06,3.14c-0.01,0.43-0.04,0.85-0.06,1.28
			c-0.03-0.08-0.07-0.15-0.09-0.22c-0.26-0.81-0.51-1.62-0.71-2.44c-0.01-0.05-0.05-0.1-0.08-0.14c-0.04-1.15,0.12-2.34,0.3-3.46
			c0.06-0.4,0.17-0.8,0.29-1.2C141.36,133.35,141.5,134.35,141.55,135.36z M118.87,141.78c-0.12-0.01-0.21,0.03-0.3,0.07
			c-1.08-0.12-2.2-0.21-3.18-0.68c-1.04-0.5-2.21-1.19-2.88-2.14c-0.25-0.35-0.74-1.17-0.31-1.54c0.38-0.33,1.08,0.18,1.48,0.3
			c0.37,0.11,0.72,0.1,1.04,0.01c0.03,0.05,0.06,0.09,0.12,0.12c0.17,0.11,0.21,0.28,0.3,0.45c0.13,0.26,0.3,0.49,0.5,0.7
			c0.39,0.44,0.79,0.88,1.24,1.24c0.44,0.36,0.96,0.65,1.46,0.93c0.44,0.24,0.9,0.43,1.38,0.57
			C119.43,141.87,119.16,141.79,118.87,141.78z M120.12,137.62c0.05,1.01-0.11,1.94-0.27,2.93c-0.01,0.07,0,0.14,0.01,0.2
			c-0.41-0.13-0.8-0.31-1.18-0.52c-0.46-0.26-0.92-0.54-1.33-0.86c-0.41-0.32-0.81-0.68-1.16-1.07c-0.28-0.31-0.42-0.7-0.72-0.97
			c0.11-0.1,0.21-0.21,0.31-0.34c0.45-0.65,0.69-1.39,1.18-2.02c0.32-0.41,0.65-0.87,1.23-0.86c0.6,0.01,0.91,0.49,1.4,0.75
			c0.04,0.02,0.08,0.03,0.12,0.05c0.08,0.39,0.19,0.78,0.27,1.17C120.08,136.61,120.1,137.12,120.12,137.62z M120.99,140.74
			c0.08-0.51,0.19-1.03,0.25-1.54c0.06-0.54,0.04-1.09,0-1.64c-0.06-0.89-0.16-1.79-0.49-2.62c0.43-0.16,0.85-0.46,1.25-0.7
			c0.35-0.21,0.73-0.43,1.14-0.24c0.26,0.12,0.47,0.35,0.64,0.57c0.46,0.62,0.47,1.26,0.25,1.97c-0.2,0.63-0.57,1.1-0.89,1.67
			c-0.33,0.57-0.57,1.13-1.06,1.58c-0.38,0.34-0.75,0.68-1.12,1.03C120.97,140.8,120.98,140.78,120.99,140.74z M131.24,147.6
			c-0.12-0.13-0.24-0.26-0.36-0.39c-0.19-0.18-0.39-0.35-0.59-0.52c-0.74-0.98-1.4-2.02-2.03-3.07c-0.26-0.42-0.51-0.86-0.76-1.3
			c0.01,0.01,0.02,0.02,0.03,0.03c0.61,0.58,1.15,1.23,1.68,1.88c0.53,0.64,1.09,1.27,1.58,1.93c0.24,0.33,0.46,0.66,0.71,0.98
			c0.13,0.16,0.26,0.34,0.39,0.52C131.68,147.66,131.46,147.63,131.24,147.6z M159.22,159.09c-0.11-0.12-0.22-0.25-0.33-0.37
			c-0.05-0.1-0.1-0.19-0.15-0.31c-0.14-0.33-0.22-0.65-0.29-0.99c0-0.01,0-0.01,0-0.01c0.04-1.07,0.23-2.13,0.51-3.16
			c0.26-0.95,0.71-1.81,1.14-2.69c0.45-0.92,0.96-1.85,1.53-2.69c0.26-0.38,0.54-0.74,0.84-1.09c0.02-0.02,0.04-0.04,0.05-0.06
			c-0.05,0.1-0.1,0.21-0.13,0.29c-0.23,0.58-0.48,1.16-0.72,1.73c-0.53,1.24-1.1,2.47-1.61,3.71
			C159.34,155.22,158.91,157.2,159.22,159.09z M163.22,168.01c-0.01,0-0.01-0.01-0.02-0.01c-0.32-0.19-0.68-0.27-1.01-0.44
			c-0.1-0.05-0.22-0.05-0.32-0.01c-0.27-0.11-0.54-0.23-0.8-0.34c-0.91-0.37-1.81-0.71-2.66-1.21c-1.72-0.99-3.52-1.97-5.01-3.29
			c-0.35-0.31-0.68-0.64-0.99-0.99c-0.14-0.16-0.27-0.33-0.4-0.49c-0.02-0.03-0.05-0.07-0.07-0.12c0.06,0.02,0.12,0.04,0.17,0.06
			c0.47,0.16,0.94,0.33,1.41,0.52c2.01,0.84,3.76,2.17,5.54,3.4c0.96,0.66,1.94,1.26,2.89,1.94c0.44,0.32,0.89,0.66,1.35,0.98
			C163.27,168.02,163.25,168.01,163.22,168.01z M138.27,157.55c-0.86,0.05-1.79,0.21-2.48-0.46c-0.29-0.28-0.35-0.67-0.04-0.96
			c0.33-0.31,0.71-0.21,1.11-0.25c0.18-0.02,0.31-0.08,0.44-0.14c0.01,0.01,0.01,0.02,0.03,0.03c0.74,0.56,1.57,1.01,2.43,1.34
			c0.18,0.07,0.37,0.15,0.56,0.22C139.63,157.4,138.96,157.51,138.27,157.55z M141.63,155.2c-0.01,0.28,0,0.69-0.06,0.9
			c-0.02,0.08-0.06,0.16-0.1,0.23c-0.03,0.02-0.05,0.03-0.08,0.05c-0.39-0.14-0.77-0.3-1.16-0.45c-0.77-0.3-1.47-0.67-2.12-1.16
			c-0.04-0.03-0.08-0.04-0.12-0.06c0.03-0.17,0.06-0.35,0.07-0.54c0.03-0.38,0.09-0.77,0.27-1.12c0.24-0.46,0.7-0.61,1.15-0.79
			c0.45-0.18,0.78-0.32,1.23-0.05c0.18,0.11,0.35,0.23,0.52,0.32c-0.02,0.11-0.02,0.22,0.02,0.33
			C141.51,153.62,141.66,154.41,141.63,155.2z M142.4,152.43c0-0.01-0.01-0.01-0.01-0.01c0.12-0.09,0.24-0.19,0.34-0.3
			c0.09-0.1,0.18-0.24,0.31-0.3c0.21-0.1,0.54-0.06,0.77-0.08c0.32-0.03,0.62-0.07,0.82,0.22c0.14,0.21,0.16,0.52,0.15,0.76
			c-0.02,0.38-0.14,0.81-0.29,1.16c-0.22,0.47-0.69,0.88-1.03,1.26c-0.2,0.22-0.4,0.47-0.6,0.71c0.01-0.21,0.01-0.37,0.02-0.6
			C142.89,154.28,142.71,153.34,142.4,152.43z M172.94,179.61c0.01-0.08,0.01-0.17-0.02-0.26c-0.75-2.78-1.24-5.59-1.69-8.43
			c-0.22-1.38-0.21-2.74-0.21-4.14c0.01-1.39,0.01-2.76,0.3-4.12c0.06-0.3,0.1-0.7,0.27-0.96c0.16-0.24,0.17-0.26,0.4-0.03
			c0.16,0.16,0.26,0.4,0.36,0.6c0.58,1.17,0.93,2.47,1.2,3.75c0.59,2.75,0.75,5.58,0.76,8.38c0.01,2.54-0.01,5.09-0.18,7.62
			C173.76,181.22,173.36,180.41,172.94,179.61z"/>
	</g>
	<g>
		<path class="st16" d="M68.53,254.57c0.83,1.69,2.67,1.16,11.66-3.28c8.99-4.44,10.53-5.57,9.7-7.26l0.93-0.46l3.27,6.63
			l-0.93,0.46c-0.85-1.72-2.76-1.07-11.65,3.32l-8.76,4.32l23.04-4.65l0.46,0.93l-17.53,15.38l8.59-4.24
			c8.72-4.31,10.24-6.17,9.39-7.89l0.93-0.46l2.8,5.67l-0.93,0.46c-0.83-1.69-3.49-0.63-11.61,3.38c-8.13,4.01-10.58,5.47-9.75,7.16
			l-0.93,0.46l-2.55-5.17l14.87-13.08l-19.41,3.89l-2.52-5.11L68.53,254.57z"/>
		<path class="st16" d="M82.06,245.43c-5.31,1.84-9.65,1.07-11.01-2.84c-1.36-3.92,1.58-7.2,6.89-9.04
			c5.31-1.84,9.65-1.07,11.01,2.84C90.3,240.3,87.37,243.59,82.06,245.43z M79,236.62c-4.68,1.62-7.54,3.32-6.77,5.56
			s4.07,1.8,8.75,0.18c4.72-1.63,7.58-3.33,6.8-5.57S83.72,234.99,79,236.62z"/>
		<path class="st16" d="M68.51,222.61c1.97-0.5,3.34,0.23,3.62,1.34c0.18,0.72-0.18,1.42-0.76,1.68c-0.51-0.37-1.15-0.47-1.76-0.32
			c-0.68,0.17-1,0.71-0.89,1.18c0.15,0.61,1.38,2.13,7.01,0.72c6.68-1.68,8.28-2.42,7.82-4.25l1-0.25l1.73,6.89l-1,0.25
			c-0.47-1.87-2.26-1.72-8.37-0.19c-6.1,1.53-7.75,2.25-7.28,4.12l-1,0.25l-1.19-4.74l3.48-0.88c-2.81-0.1-4.38-1.19-4.71-2.52
			C65.79,224.25,67,222.99,68.51,222.61z"/>
		<path class="st16" d="M72.3,206.28c5.59-0.89,9.64,0.31,10.21,3.89c0.24,1.53-0.15,2.87-1.74,3.95c7-1.22,8.35-1.88,8.09-3.53
			l1.02-0.16l1.11,7.02l-1.02,0.16c-0.3-1.9-2.22-1.93-12.23-0.35c-10.12,1.6-11.53,2.16-11.23,4.06l-1.02,0.16l-0.76-4.79
			l2.08-0.33c-1.63-0.38-2.72-1.33-3.02-3.23C63.23,209.55,66.71,207.17,72.3,206.28z M72.81,209.5c-4.97,0.79-7.86,1.92-7.51,4.15
			c0.34,2.16,3.41,2.38,8.42,1.59c4.93-0.78,7.89-1.96,7.55-4.12C80.92,208.89,77.71,208.72,72.81,209.5z"/>
		<path class="st16" d="M79.3,188.77l1.03-0.06l0.38,7.09l-1.03,0.06c-0.1-1.92-1.75-2.13-11.46-1.6c-2.96,0.16-4.25,0.82-4.17,2.34
			c0.08,1.4,1.25,3.19,6.76,3.04c7.83-0.5,9.02-0.97,8.93-2.71l1.03-0.06l0.38,7.09l-1.03,0.06c-0.1-1.92-1.56-2.14-11.79-1.58
			c-10.23,0.55-12.06,0.95-11.96,2.87l-1.07,0.06l-0.28-5.21c3.15,0.09,6.89-0.04,11.43-0.29c-3.04-0.69-4.23-2.11-4.33-4.1
			c-0.13-2.44,1.33-4.07,5.99-4.33C77.79,190.92,79.41,190.69,79.3,188.77z"/>
		<path class="st16" d="M77.13,178.35c0.88-0.4,1.57-0.97,2.05-1.7c0.48-0.73,0.77-1.59,0.87-2.57c0.06-0.61,0.02-1.2-0.11-1.75
			s-0.35-1.05-0.64-1.48c-0.3-0.43-0.67-0.79-1.12-1.06c-0.45-0.28-0.97-0.45-1.57-0.5c-0.69-0.07-1.27,0.02-1.74,0.27
			s-0.88,0.6-1.21,1.05c-0.33,0.46-0.63,0.98-0.9,1.56s-0.53,1.19-0.79,1.81c-0.27,0.62-0.56,1.22-0.88,1.8
			c-0.32,0.58-0.71,1.09-1.17,1.53c-0.46,0.44-1.03,0.78-1.69,1c-0.66,0.23-1.45,0.3-2.38,0.21c-0.87-0.08-1.63-0.33-2.28-0.74
			s-1.17-0.93-1.57-1.56c-0.4-0.63-0.68-1.33-0.84-2.12s-0.2-1.59-0.12-2.43c0.1-1.08,0.39-2.06,0.86-2.94
			c0.47-0.88,1.18-1.62,2.14-2.2l0.99,1.7c-0.7,0.4-1.24,0.9-1.62,1.49c-0.38,0.59-0.62,1.31-0.7,2.17
			c-0.06,0.59-0.03,1.17,0.07,1.72c0.11,0.55,0.29,1.05,0.56,1.47c0.27,0.43,0.62,0.79,1.06,1.07c0.44,0.29,0.98,0.46,1.61,0.52
			c0.99,0.09,1.77-0.08,2.34-0.53c0.58-0.45,1.06-1.04,1.44-1.76c0.38-0.72,0.73-1.51,1.04-2.38c0.32-0.86,0.71-1.65,1.17-2.36
			s1.07-1.29,1.81-1.72s1.73-0.59,2.96-0.48c0.89,0.09,1.67,0.33,2.32,0.73c0.66,0.4,1.19,0.91,1.61,1.52s0.71,1.3,0.88,2.07
			s0.22,1.55,0.14,2.35c-0.12,1.3-0.47,2.48-1.03,3.53s-1.42,1.92-2.57,2.59L77.13,178.35z"/>
		<path class="st16" d="M72.29,156.49l-0.65,3.64l8.29,1.49c0.57,0.1,1.04,0.03,1.41-0.23c0.37-0.26,0.6-0.66,0.7-1.21
			c0.06-0.31,0.07-0.64,0.05-0.97c-0.03-0.34-0.08-0.66-0.15-0.98l1.51,0.13c0.05,0.33,0.09,0.71,0.11,1.13s0,0.79-0.05,1.1
			c-0.11,0.59-0.28,1.08-0.53,1.47c-0.25,0.39-0.54,0.69-0.89,0.89c-0.34,0.21-0.72,0.33-1.13,0.38c-0.42,0.05-0.85,0.03-1.31-0.05
			l-8.3-1.49l-0.49,2.76l-1.49-0.27l0.49-2.76l-3.67-0.66l0.3-1.65l3.67,0.66l0.65-3.64L72.29,156.49z"/>
		<path class="st16" d="M83.3,144.53c0.23,0.06,0.52,0.13,0.86,0.2c0.34,0.07,0.68,0.15,1.03,0.23c0.35,0.08,0.67,0.15,0.97,0.21
			c0.3,0.06,0.54,0.11,0.7,0.16l-0.43,1.62c-0.47-0.11-0.93-0.21-1.36-0.32c-0.44-0.11-0.72-0.16-0.86-0.16l-0.02,0.08
			c0.6,0.51,1.05,1.2,1.34,2.09c0.3,0.89,0.31,1.84,0.04,2.85c-0.26,0.97-0.62,1.73-1.09,2.27s-1,0.92-1.59,1.14
			c-0.59,0.22-1.23,0.31-1.91,0.26c-0.68-0.05-1.37-0.16-2.05-0.34l-7.44-1.97l0.43-1.62l7.36,1.95c0.51,0.13,1.01,0.22,1.51,0.26
			c0.5,0.04,0.97-0.01,1.41-0.13c0.44-0.12,0.82-0.36,1.16-0.71c0.33-0.35,0.59-0.84,0.76-1.49c0.16-0.6,0.2-1.19,0.14-1.77
			c-0.07-0.59-0.26-1.13-0.58-1.63c-0.32-0.5-0.77-0.95-1.35-1.34s-1.3-0.71-2.17-0.94l-6.25-1.66l0.43-1.62L83.3,144.53z"/>
		<path class="st16" d="M89.93,130.32l-0.02,0.05c0.32,0.41,0.57,0.85,0.73,1.33s0.26,0.98,0.3,1.48s0.01,1.01-0.07,1.52
			c-0.08,0.51-0.21,0.99-0.39,1.44c-0.36,0.92-0.84,1.72-1.46,2.38c-0.61,0.66-1.31,1.17-2.09,1.51s-1.62,0.52-2.51,0.53
			c-0.9,0.02-1.81-0.15-2.73-0.51c-0.92-0.36-1.71-0.84-2.37-1.45c-0.65-0.61-1.16-1.3-1.51-2.08c-0.35-0.78-0.53-1.62-0.55-2.52
			c-0.01-0.9,0.16-1.82,0.51-2.74c0.17-0.45,0.4-0.9,0.68-1.33s0.6-0.83,0.96-1.17s0.77-0.65,1.21-0.9s0.92-0.41,1.44-0.5l0.02-0.05
			l-9.8-3.76l0.6-1.57l19.76,7.59l-0.6,1.57L89.93,130.32z M86.07,128.65c-0.68-0.26-1.37-0.38-2.07-0.35
			c-0.7,0.03-1.36,0.19-1.98,0.47c-0.62,0.28-1.17,0.68-1.67,1.19s-0.88,1.12-1.16,1.84c-0.28,0.73-0.4,1.44-0.37,2.14
			c0.03,0.69,0.19,1.33,0.48,1.92c0.28,0.59,0.68,1.11,1.2,1.56c0.52,0.45,1.12,0.8,1.79,1.07c0.68,0.26,1.36,0.4,2.05,0.41
			s1.33-0.1,1.93-0.35c0.61-0.25,1.15-0.62,1.64-1.11c0.49-0.49,0.87-1.1,1.15-1.84c0.27-0.71,0.4-1.43,0.37-2.14
			c-0.03-0.71-0.18-1.38-0.45-2c-0.27-0.62-0.66-1.18-1.16-1.67S86.75,128.91,86.07,128.65z"/>
		<path class="st16" d="M77.92,118.67c-0.32-0.15-0.54-0.39-0.65-0.71s-0.1-0.65,0.06-0.97c0.15-0.32,0.39-0.54,0.71-0.65
			c0.32-0.11,0.65-0.09,0.96,0.06c0.32,0.15,0.54,0.39,0.65,0.71c0.11,0.32,0.1,0.65-0.06,0.97c-0.15,0.32-0.39,0.54-0.71,0.65
			S78.24,118.82,77.92,118.67z M82.72,120.5l0.72-1.52l11.68,5.57l-0.72,1.52L82.72,120.5z"/>
		<path class="st16" d="M90.96,118.08c-0.86-0.49-1.56-1.09-2.12-1.8c-0.55-0.71-0.94-1.47-1.17-2.29
			c-0.23-0.82-0.28-1.68-0.15-2.57c0.13-0.9,0.44-1.77,0.93-2.63c0.49-0.86,1.09-1.56,1.8-2.12c0.71-0.55,1.47-0.94,2.3-1.17
			c0.83-0.22,1.69-0.27,2.57-0.15c0.89,0.12,1.76,0.43,2.62,0.92c0.86,0.49,1.56,1.09,2.12,1.8s0.94,1.47,1.17,2.3
			s0.27,1.69,0.15,2.57c-0.12,0.89-0.43,1.76-0.92,2.62c-0.49,0.86-1.09,1.57-1.8,2.13c-0.71,0.56-1.48,0.95-2.3,1.17
			s-1.68,0.26-2.57,0.14C92.69,118.88,91.82,118.57,90.96,118.08z M91.8,116.62c0.63,0.36,1.28,0.6,1.96,0.72
			c0.67,0.12,1.33,0.1,1.97-0.05s1.23-0.43,1.79-0.84c0.56-0.41,1.03-0.96,1.42-1.64s0.62-1.36,0.7-2.05s0.02-1.35-0.17-1.97
			c-0.19-0.62-0.51-1.2-0.95-1.72c-0.44-0.52-0.98-0.97-1.61-1.33c-0.63-0.36-1.28-0.6-1.96-0.72c-0.67-0.12-1.33-0.1-1.97,0.05
			s-1.23,0.43-1.79,0.84c-0.56,0.41-1.03,0.96-1.42,1.64s-0.62,1.37-0.7,2.05c-0.07,0.69-0.02,1.35,0.17,1.97
			c0.19,0.63,0.51,1.2,0.95,1.72C90.63,115.82,91.17,116.26,91.8,116.62z"/>
	</g>
</g>
</svg>
