<?xml version="1.0" encoding="utf-8"?>
<!-- Generator: Adobe Illustrator 26.0.2, SVG Export Plug-In . SVG Version: 6.00 Build 0)  -->
<svg version="1.1" id="Layer_1" xmlns="http://www.w3.org/2000/svg" xmlns:xlink="http://www.w3.org/1999/xlink" x="0px" y="0px"
	 viewBox="0 0 360 360" style="enable-background:new 0 0 360 360;" xml:space="preserve">
<style type="text/css">
	.st0{fill:#B65B4E;}
	.st1{fill:none;}
	.st2{fill:#B55B4E;}
	.st3{fill:#2E2B29;}
	.st4{fill:#7E3E34;}
	.st5{fill:none;stroke:#7E3E34;stroke-width:12;stroke-miterlimit:10;}
	.st6{fill:#222220;}
	.st7{fill:#3C3637;}
	.st8{fill:none;stroke:#B55B4E;stroke-width:2;stroke-miterlimit:10;}
	.st9{fill:none;stroke:#7E3E34;stroke-width:2;stroke-miterlimit:10;}
	.st10{fill:none;stroke:#7E3E34;stroke-miterlimit:10;}
	.st11{fill:none;stroke:#3C3637;stroke-width:12;stroke-miterlimit:10;}
	.st12{fill:none;stroke:#3C3637;stroke-width:2;stroke-miterlimit:10;}
	.st13{fill:none;stroke:#3C3637;stroke-miterlimit:10;}
	.st14{fill:none;stroke:#B55B4E;stroke-width:12;stroke-miterlimit:10;}
	.st15{fill:none;stroke:#B55B4E;stroke-miterlimit:10;}
	.st16{fill:#F7E6E5;}
	.st17{fill:none;stroke:#F7E6E5;stroke-width:12;stroke-miterlimit:10;}
	.st18{fill:none;stroke:#F7E6E5;stroke-width:2;stroke-miterlimit:10;}
	.st19{fill:none;stroke:#F7E6E5;stroke-miterlimit:10;}
</style>
<g>
	<g>
		<path class="st4" d="M240.95,96.74c-0.35-0.34-0.77-0.61-1.1-0.98c-0.3-0.32-0.16-0.33,0.2-0.68c0.95-0.93,1.82-1.82,1.35-3.28
			c-0.45-1.42-2.16-2.02-3.44-2.41c-1.34-0.4-2.73-0.6-4.09-0.94c-0.21-0.05-0.39-0.02-0.56,0.03c-0.06-0.03-0.13-0.05-0.2-0.06
			c1.07-1.08,2.01-2.3,2.72-3.72c1.68-1.65,1.43-4.34,0.5-6.42c-1.14-2.55-3.1-4.68-4.95-6.74c-1.72-1.91-2.98-3.95-4.24-6.19
			c-1.28-2.28-2.77-4.63-5.17-5.86c-1.27-0.66-2.86-1.13-4.3-1.03c-0.68,0.05-1.33,0.25-1.97,0.47c-0.51,0.17-1.49,0.69-2.05,0.51
			c-0.79-0.26-0.8-2.09-1.13-2.74c-0.69-1.36-2.14-1.78-3.55-1.99c-1.14-0.18-2.44-0.09-3.48-0.67c-1.33-0.75-2.18-2.19-3.44-3.06
			c-2.52-1.74-5.84-0.95-8.17,0.78c-2.47,1.83-3.75,4.71-4.8,7.5c-0.94,2.49-1.66,5.27-3.2,7.48c-0.4-0.82-0.79-1.64-1.16-2.48
			c-2.61-6.03-5.95-13.89-13.84-13.33c-2,0.14-3.62,0.77-5.14,2.08c-1.35,1.17-2.46,2.82-4.14,3.57c-1.91,0.86-4.02-0.16-5.91-0.57
			c-2.08-0.46-4.03-0.24-5.65,1.25c-0.85,0.78-1.46,1.78-1.97,2.8c-0.5,1.01-0.94,2.15-1.79,2.92c-1.39,1.27-3.52,1.08-4.82,2.48
			c-1.38,1.48-1.71,3.97-1.2,5.86c0.54,2.01,1.99,3.57,3.33,5.09c0.99,1.12,1.88,2.33,2.74,3.56c-1.61-0.52-3.32-0.74-4.93-0.39
			c-1.49,0.32-3.02,1.3-3.7,2.7c-0.68,1.41-0.29,2.91,0.14,4.33c0.45,1.51,0.83,3.23,0.46,4.8c-0.18,0.76-0.63,1.4-0.87,2.14
			c-0.22,0.68-0.3,1.41-0.24,2.12c0.28,2.83,2.87,4.63,5.52,4.96c1.98,0.25,3.95-0.42,5.95-0.03c1.92,0.38,3.46,1.55,5.12,2.5
			c-0.08,0.15-0.15,0.31-0.19,0.49c-0.63,1.13-0.47,2.36,0.65,3.15c1.16,0.82,2.5,0.52,3.77,1c1.55,0.59,2.91,2.31,4.07,3.45
			c1.31,1.3,2.64,2.59,4.17,3.64c2.99,2.06,6.52,3.54,10.12,4.12c1.28,0.21,2.62,0.28,3.95,0.27c1.57-0.3,3.15-0.49,4.72-0.61
			c0.57-0.16,1.12-0.35,1.66-0.59c0.68,0.27,1.46,0.4,2.05,0.43c1.28-0.03,2.58-0.04,3.89-0.02c0.77-0.04,1.54-0.08,2.26-0.16
			c3.34-0.37,6.23-1.74,8.93-3.69c2.81-2.03,5.36-4.43,8.37-6.18c1.57-0.92,3.27-1.42,5.1-1.39c1.46,0.02,2.78-0.02,3.72-1.27
			c0.19-0.25,0.18-0.62,0.05-0.93c1.43-0.72,2.79-0.89,4.34-0.08c1.41,0.74,3.24,1.27,4.53-0.02c0.46-0.46,0.64-1.06,1.02-1.55
			c0.49-0.62,1.34-0.77,2.09-0.81c1.63-0.07,3.22,0.37,4.83,0.35c1.59-0.02,2.98-0.71,3.66-2.2
			C242.19,99.18,242.02,97.79,240.95,96.74z M154.98,101.31c-1.23-0.73-2.37-1.62-3.67-2.24c-1.37-0.65-2.83-0.95-4.35-0.97
			c-2.35-0.03-5.38,0.93-6.98-1.48c-0.62-0.94-0.49-2.01-0.02-2.98c0.65-1.33,0.92-2.65,0.83-4.15c-0.09-1.41-0.43-2.73-0.82-4.08
			c-0.38-1.32-0.37-2.35,0.94-3.11c2.31-1.34,5.19,0.14,7.58,0.85c1.19,1.81,2.39,3.63,3.75,5.31c3.19,3.95,7.08,7.31,12.09,8.61
			c0.13,0.03,0.25,0.03,0.36,0.02c-2.71,1.09-5.09,3.01-7.86,3.99c-0.49,0.17-1,0.37-1.48,0.62
			C155.28,101.55,155.16,101.42,154.98,101.31z M185.01,115.46c0,0.04-0.03,0.29-0.01,0.15c-0.01,0.1-0.03,0.19-0.05,0.29
			c-0.03,0.16-0.08,0.32-0.13,0.48c0,0-0.02,0.05-0.03,0.08c-0.01,0.01-0.01,0.02-0.01,0.04c-0.01,0.02-0.02,0.05-0.03,0.07
			c-2.57,0.35-5.1,0.57-7.73,0.12c-3.12-0.53-6.1-1.7-8.8-3.34c-2.74-1.67-4.82-4.06-7.29-6.07c-1.05-0.85-2.03-1.55-3.41-1.73
			c-0.03,0-0.06,0-0.09-0.01c-0.1-0.19-0.28-0.34-0.54-0.37c-0.43-0.06-1.21-0.15-1.41-0.62c-0.27-0.63,0.6-1.03,1.04-1.22
			c1.2-0.51,2.45-0.81,3.63-1.38c2.71-1.31,5.22-3.25,8.34-3.35c5.28-0.18,11.14,3.25,14.02,7.6c0.99,1.5,1.57,3.17,1.94,4.92
			c0.24,1.15,0.31,2.48,0.57,3.72c0,0.02,0,0.05,0,0.07C185.03,115.09,185.03,115.28,185.01,115.46z M187.1,112.59
			c-0.11-0.7-0.21-1.41-0.35-2.1c-0.4-1.93-1.08-3.83-2.18-5.49c-1.87-2.82-4.66-5.07-7.65-6.61c-2.6-1.34-5.53-2.23-8.46-2.1
			c-1.16-0.43-2.32-0.86-3.49-1.26c-0.02-0.01-0.03-0.02-0.05-0.03c-0.3-0.08-0.6-0.19-0.89-0.29c-0.21-0.07-0.42-0.15-0.64-0.22
			c0,0-0.01,0-0.01,0c-7.26-2.82-11.66-10.47-15.76-16.65c-1.07-1.62-2.44-2.95-3.66-4.44c-1.24-1.51-2-3.19-1.42-5.15
			c0.55-1.88,2.12-1.82,3.68-2.53c2-0.92,2.91-2.65,3.85-4.52c0.95-1.9,2.24-3.46,4.54-3.07c1.93,0.33,3.74,1.25,5.74,1.15
			c1.83-0.09,3.35-0.99,4.67-2.2c1.21-1.12,2.27-2.56,3.79-3.29c2.81-1.34,6.31-0.22,8.4,1.87c2.23,2.23,3.54,5.27,4.78,8.12
			c0.71,1.63,1.38,3.28,2.18,4.86c1.17,2.32,2.4,4.49,3.13,7.01c1.6,5.49,1.64,11.16,1.66,16.82c0.35-1.14,0.75-2.28,1.04-3.42
			c0.24-0.96,0.41-1.94,0.55-2.93c0.07-0.67,0.11-1.35,0.18-2.02c0.03-0.26,0.06-0.53,0.09-0.8c-0.08-2.38-0.33-4.75-0.9-7.05
			c-0.67-2.71-1.85-5.17-3.07-7.63c3.17-3.82,3.62-9.04,6.48-13.04c1.31-1.84,4.06-3.83,6.45-3.13c1.35,0.39,2.19,1.63,3.15,2.55
			c0.9,0.86,1.94,1.5,3.17,1.73c1.22,0.23,2.58,0.12,3.75,0.59c0.97,0.39,0.84,1.71,1.22,2.56c0.52,1.18,1.52,1.98,2.85,1.95
			c1.34-0.04,2.5-0.81,3.8-0.98c2.45-0.31,4.72,1.54,6.01,3.41c1.43,2.07,2.4,4.41,3.88,6.44c1.6,2.2,3.65,4.04,5.23,6.27
			c0.77,1.09,1.5,2.26,1.81,3.57c0.26,1.09-0.06,1.95-0.53,2.85c-1.04,1.54-2.34,2.87-3.3,4.5c-1.97,1.63-4.29,2.9-6.51,4.11
			c-2.03,1.11-4.05,2.24-5.84,3.71c-0.88,0.73-1.68,1.55-2.38,2.46c-0.51,0.67-1.25,1.63-1.42,2.55c-0.43-0.22-0.86-0.46-1.32-0.65
			c-2.78-1.15-5.63-1.02-8.53-0.42c-5.05,1.05-9.73,3.48-13.32,7.21c-1.41,1.46-2.62,3.12-3.73,4.84
			C187.53,111.99,187.31,112.29,187.1,112.59z M217.59,104.78c-0.8-0.05-1.57-0.02-2.37,0.09c-1.82,0.27-3.43,1-4.98,1.98
			c-3.2,2.02-5.92,4.7-9.11,6.74c-1.55,0.98-3.19,1.73-4.99,2.11c-1.38,0.29-2.75,0.26-4.14,0.33c-0.99,0.05-1.97,0.12-2.96,0.08
			c-0.34-0.01-0.7-0.04-1.05-0.12c0-0.11,0-0.21,0.01-0.32c0-0.02,0.02-0.15,0.02-0.17c0.01-0.07,0.02-0.14,0.03-0.2
			c0.03-0.16,0.07-0.32,0.12-0.47c0.04-0.14,0.09-0.29,0.15-0.43c3-4.84,7.12-8.99,12.45-11.19c2.84-1.17,6.29-2.17,9.38-1.75
			c1.7,0.23,3.17,1,4.65,1.82c0.94,0.53,1.95,0.97,2.9,1.5C217.65,104.79,217.62,104.79,217.59,104.78z M239.4,99.59
			c-0.59,1.2-2.37,0.73-3.42,0.6c-1.56-0.18-3.22-0.37-4.75,0.13c-0.69,0.22-1.35,0.59-1.85,1.11c-0.43,0.45-0.59,1.18-1.02,1.59
			c-0.48,0.46-1.15,0.12-1.66-0.16c-0.81-0.45-1.58-0.88-2.52-0.99c-1.64-0.18-3.7,0.13-4.85,1.41c-0.64-0.41-1.3-0.78-1.98-1.13
			c-0.27-0.14-0.53-0.29-0.8-0.43c0.59-0.67,0.96-1.59,1.5-2.29c0.68-0.88,1.52-1.65,2.38-2.36c1.8-1.46,3.84-2.61,5.85-3.76
			c1.6-0.92,3.15-1.91,4.59-3c0.3,0.06,0.6,0.08,0.89,0.06c0.85,0.07,1.7,0.21,2.56,0.27c0.72,0.16,1.44,0.33,2.15,0.54
			c0.58,0.18,2.48,0.64,2.68,1.24c0.12,0.34-0.27,0.55-0.5,0.76c-0.41,0.37-0.81,0.72-1.07,1.21c-0.61,1.14-0.09,2.41,0.77,3.24
			C238.99,98.25,239.9,98.59,239.4,99.59z"/>
		<path class="st4" d="M240.95,96.74c-0.35-0.34-0.77-0.61-1.1-0.98c-0.3-0.32-0.16-0.33,0.2-0.68c0.95-0.93,1.82-1.82,1.35-3.28
			c-0.45-1.42-2.16-2.02-3.44-2.41c-1.34-0.4-2.73-0.6-4.09-0.94c-0.21-0.05-0.39-0.02-0.56,0.03c-0.06-0.03-0.13-0.05-0.2-0.06
			c1.07-1.08,2.01-2.3,2.72-3.72c1.68-1.65,1.43-4.34,0.5-6.42c-1.14-2.55-3.1-4.68-4.95-6.74c-1.72-1.91-2.98-3.95-4.24-6.19
			c-1.28-2.28-2.77-4.63-5.17-5.86c-1.27-0.66-2.86-1.13-4.3-1.03c-0.68,0.05-1.33,0.25-1.97,0.47c-0.51,0.17-1.49,0.69-2.05,0.51
			c-0.79-0.26-0.8-2.09-1.13-2.74c-0.69-1.36-2.14-1.78-3.55-1.99c-1.14-0.18-2.44-0.09-3.48-0.67c-1.33-0.75-2.18-2.19-3.44-3.06
			c-2.52-1.74-5.84-0.95-8.17,0.78c-2.47,1.83-3.75,4.71-4.8,7.5c-0.94,2.49-1.66,5.27-3.2,7.48c-0.4-0.82-0.79-1.64-1.16-2.48
			c-2.61-6.03-5.95-13.89-13.84-13.33c-2,0.14-3.62,0.77-5.14,2.08c-1.35,1.17-2.46,2.82-4.14,3.57c-1.91,0.86-4.02-0.16-5.91-0.57
			c-2.08-0.46-4.03-0.24-5.65,1.25c-0.85,0.78-1.46,1.78-1.97,2.8c-0.5,1.01-0.94,2.15-1.79,2.92c-1.39,1.27-3.52,1.08-4.82,2.48
			c-1.38,1.48-1.71,3.97-1.2,5.86c0.54,2.01,1.99,3.57,3.33,5.09c0.99,1.12,1.88,2.33,2.74,3.56c-1.61-0.52-3.32-0.74-4.93-0.39
			c-1.49,0.32-3.02,1.3-3.7,2.7c-0.68,1.41-0.29,2.91,0.14,4.33c0.45,1.51,0.83,3.23,0.46,4.8c-0.18,0.76-0.63,1.4-0.87,2.14
			c-0.22,0.68-0.3,1.41-0.24,2.12c0.28,2.83,2.87,4.63,5.52,4.96c1.98,0.25,3.95-0.42,5.95-0.03c1.92,0.38,3.46,1.55,5.12,2.5
			c-0.08,0.15-0.15,0.31-0.19,0.49c-0.63,1.13-0.47,2.36,0.65,3.15c1.16,0.82,2.5,0.52,3.77,1c1.55,0.59,2.91,2.31,4.07,3.45
			c1.31,1.3,2.64,2.59,4.17,3.64c2.99,2.06,6.52,3.54,10.12,4.12c1.28,0.21,2.62,0.28,3.95,0.27c1.57-0.3,3.15-0.49,4.72-0.61
			c0.57-0.16,1.12-0.35,1.66-0.59c0.68,0.27,1.46,0.4,2.05,0.43c1.28-0.03,2.58-0.04,3.89-0.02c0.77-0.04,1.54-0.08,2.26-0.16
			c3.34-0.37,6.23-1.74,8.93-3.69c2.81-2.03,5.36-4.43,8.37-6.18c1.57-0.92,3.27-1.42,5.1-1.39c1.46,0.02,2.78-0.02,3.72-1.27
			c0.19-0.25,0.18-0.62,0.05-0.93c1.43-0.72,2.79-0.89,4.34-0.08c1.41,0.74,3.24,1.27,4.53-0.02c0.46-0.46,0.64-1.06,1.02-1.55
			c0.49-0.62,1.34-0.77,2.09-0.81c1.63-0.07,3.22,0.37,4.83,0.35c1.59-0.02,2.98-0.71,3.66-2.2
			C242.19,99.18,242.02,97.79,240.95,96.74z M154.98,101.31c-1.23-0.73-2.37-1.62-3.67-2.24c-1.37-0.65-2.83-0.95-4.35-0.97
			c-2.35-0.03-5.38,0.93-6.98-1.48c-0.62-0.94-0.49-2.01-0.02-2.98c0.65-1.33,0.92-2.65,0.83-4.15c-0.09-1.41-0.43-2.73-0.82-4.08
			c-0.38-1.32-0.37-2.35,0.94-3.11c2.31-1.34,5.19,0.14,7.58,0.85c1.19,1.81,2.39,3.63,3.75,5.31c3.19,3.95,7.08,7.31,12.09,8.61
			c0.13,0.03,0.25,0.03,0.36,0.02c-2.71,1.09-5.09,3.01-7.86,3.99c-0.49,0.17-1,0.37-1.48,0.62
			C155.28,101.55,155.16,101.42,154.98,101.31z M185.01,115.46c0,0.04-0.03,0.29-0.01,0.15c-0.01,0.1-0.03,0.19-0.05,0.29
			c-0.03,0.16-0.08,0.32-0.13,0.48c0,0-0.02,0.05-0.03,0.08c-0.01,0.01-0.01,0.02-0.01,0.04c-0.01,0.02-0.02,0.05-0.03,0.07
			c-2.57,0.35-5.1,0.57-7.73,0.12c-3.12-0.53-6.1-1.7-8.8-3.34c-2.74-1.67-4.82-4.06-7.29-6.07c-1.05-0.85-2.03-1.55-3.41-1.73
			c-0.03,0-0.06,0-0.09-0.01c-0.1-0.19-0.28-0.34-0.54-0.37c-0.43-0.06-1.21-0.15-1.41-0.62c-0.27-0.63,0.6-1.03,1.04-1.22
			c1.2-0.51,2.45-0.81,3.63-1.38c2.71-1.31,5.22-3.25,8.34-3.35c5.28-0.18,11.14,3.25,14.02,7.6c0.99,1.5,1.57,3.17,1.94,4.92
			c0.24,1.15,0.31,2.48,0.57,3.72c0,0.02,0,0.05,0,0.07C185.03,115.09,185.03,115.28,185.01,115.46z M187.1,112.59
			c-0.11-0.7-0.21-1.41-0.35-2.1c-0.4-1.93-1.08-3.83-2.18-5.49c-1.87-2.82-4.66-5.07-7.65-6.61c-2.6-1.34-5.53-2.23-8.46-2.1
			c-1.16-0.43-2.32-0.86-3.49-1.26c-0.02-0.01-0.03-0.02-0.05-0.03c-0.3-0.08-0.6-0.19-0.89-0.29c-0.21-0.07-0.42-0.15-0.64-0.22
			c0,0-0.01,0-0.01,0c-7.26-2.82-11.66-10.47-15.76-16.65c-1.07-1.62-2.44-2.95-3.66-4.44c-1.24-1.51-2-3.19-1.42-5.15
			c0.55-1.88,2.12-1.82,3.68-2.53c2-0.92,2.91-2.65,3.85-4.52c0.95-1.9,2.24-3.46,4.54-3.07c1.93,0.33,3.74,1.25,5.74,1.15
			c1.83-0.09,3.35-0.99,4.67-2.2c1.21-1.12,2.27-2.56,3.79-3.29c2.81-1.34,6.31-0.22,8.4,1.87c2.23,2.23,3.54,5.27,4.78,8.12
			c0.71,1.63,1.38,3.28,2.18,4.86c1.17,2.32,2.4,4.49,3.13,7.01c1.6,5.49,1.64,11.16,1.66,16.82c0.35-1.14,0.75-2.28,1.04-3.42
			c0.24-0.96,0.41-1.94,0.55-2.93c0.07-0.67,0.11-1.35,0.18-2.02c0.03-0.26,0.06-0.53,0.09-0.8c-0.08-2.38-0.33-4.75-0.9-7.05
			c-0.67-2.71-1.85-5.17-3.07-7.63c3.17-3.82,3.62-9.04,6.48-13.04c1.31-1.84,4.06-3.83,6.45-3.13c1.35,0.39,2.19,1.63,3.15,2.55
			c0.9,0.86,1.94,1.5,3.17,1.73c1.22,0.23,2.58,0.12,3.75,0.59c0.97,0.39,0.84,1.71,1.22,2.56c0.52,1.18,1.52,1.98,2.85,1.95
			c1.34-0.04,2.5-0.81,3.8-0.98c2.45-0.31,4.72,1.54,6.01,3.41c1.43,2.07,2.4,4.41,3.88,6.44c1.6,2.2,3.65,4.04,5.23,6.27
			c0.77,1.09,1.5,2.26,1.81,3.57c0.26,1.09-0.06,1.95-0.53,2.85c-1.04,1.54-2.34,2.87-3.3,4.5c-1.97,1.63-4.29,2.9-6.51,4.11
			c-2.03,1.11-4.05,2.24-5.84,3.71c-0.88,0.73-1.68,1.55-2.38,2.46c-0.51,0.67-1.25,1.63-1.42,2.55c-0.43-0.22-0.86-0.46-1.32-0.65
			c-2.78-1.15-5.63-1.02-8.53-0.42c-5.05,1.05-9.73,3.48-13.32,7.21c-1.41,1.46-2.62,3.12-3.73,4.84
			C187.53,111.99,187.31,112.29,187.1,112.59z M217.59,104.78c-0.8-0.05-1.57-0.02-2.37,0.09c-1.82,0.27-3.43,1-4.98,1.98
			c-3.2,2.02-5.92,4.7-9.11,6.74c-1.55,0.98-3.19,1.73-4.99,2.11c-1.38,0.29-2.75,0.26-4.14,0.33c-0.99,0.05-1.97,0.12-2.96,0.08
			c-0.34-0.01-0.7-0.04-1.05-0.12c0-0.11,0-0.21,0.01-0.32c0-0.02,0.02-0.15,0.02-0.17c0.01-0.07,0.02-0.14,0.03-0.2
			c0.03-0.16,0.07-0.32,0.12-0.47c0.04-0.14,0.09-0.29,0.15-0.43c3-4.84,7.12-8.99,12.45-11.19c2.84-1.17,6.29-2.17,9.38-1.75
			c1.7,0.23,3.17,1,4.65,1.82c0.94,0.53,1.95,0.97,2.9,1.5C217.65,104.79,217.62,104.79,217.59,104.78z M239.4,99.59
			c-0.59,1.2-2.37,0.73-3.42,0.6c-1.56-0.18-3.22-0.37-4.75,0.13c-0.69,0.22-1.35,0.59-1.85,1.11c-0.43,0.45-0.59,1.18-1.02,1.59
			c-0.48,0.46-1.15,0.12-1.66-0.16c-0.81-0.45-1.58-0.88-2.52-0.99c-1.64-0.18-3.7,0.13-4.85,1.41c-0.64-0.41-1.3-0.78-1.98-1.13
			c-0.27-0.14-0.53-0.29-0.8-0.43c0.59-0.67,0.96-1.59,1.5-2.29c0.68-0.88,1.52-1.65,2.38-2.36c1.8-1.46,3.84-2.61,5.85-3.76
			c1.6-0.92,3.15-1.91,4.59-3c0.3,0.06,0.6,0.08,0.89,0.06c0.85,0.07,1.7,0.21,2.56,0.27c0.72,0.16,1.44,0.33,2.15,0.54
			c0.58,0.18,2.48,0.64,2.68,1.24c0.12,0.34-0.27,0.55-0.5,0.76c-0.41,0.37-0.81,0.72-1.07,1.21c-0.61,1.14-0.09,2.41,0.77,3.24
			C238.99,98.25,239.9,98.59,239.4,99.59z"/>
		<path class="st4" d="M212.56,83.65c-3.8,3.51-7.55,4.27-11.81,7.13c-1.35,0.9-2.59,1.94-3.78,3.04c-0.13-0.09-0.23-0.19-0.36-0.27
			c0.22-0.37,0.43-0.74,0.65-1.1c2.45-4.15,7.94-8.06,10.03-9.84c3.94-3.35,4.9-4.95,6.83-9.97c0.29-0.76-2.44,4.09-2.93,4.73
			c-1.76,2.32-2.68,2.61-4.28,4c-2.13,1.84-4.07,3.01-6.19,4.85c-2.1,1.82-3.84,3.7-5.32,6.05c-0.09,0.15-0.17,0.31-0.26,0.46
			c-0.33-0.16-0.66-0.3-1-0.44c0.63-1.94,1.5-3.92,2.4-5.75c0.95-1.94,2.22-3.77,2.92-5.83c0.71-2.1,0.86-4.11,1.07-6.32
			c0.07-0.76-1.28,6.03-3.43,9.14c-1.35,1.95-1.49,2.7-2.47,4.85c-0.66,1.44-1.15,1.97-1.65,3.46c-0.02-0.01-0.05-0.01-0.07-0.02
			c-0.01,0-0.01-0.01-0.02-0.01c-0.63-0.2-1.31-0.32-1.99-0.4c-0.12-0.02-0.25-0.05-0.37-0.07c-0.29-0.04-0.57-0.02-0.86-0.03
			c0.24-0.77,0.45-1.56,0.67-2.34c0.1-1.08,0.25-2.16,0.41-3.23c0.03-0.22,0.05-0.45,0.07-0.68c0.14-0.49,0.24-0.99,0.28-1.46
			c0.04-0.42-0.01-0.84-0.01-1.27c0-0.46,0.02-0.9-0.04-1.36c-0.11-0.92-0.45-1.81-0.68-2.71c-0.1-0.41-0.22-0.81-0.37-1.21
			c-0.12-0.33-0.33-0.69-0.4-1.04c-0.02-0.12-0.05-0.24-0.07-0.35c-0.18-1-1.77-0.75-1.75,0.24c0,0.34,0.08,0.68,0.17,1.01
			c0.19,1.08,0.36,2.16,0.57,3.23c0.11,0.59,0.09,1.22,0.17,1.81c0.09,0.67,0.03,1.37,0.02,2.05c0,0.07,0.02,0.13,0.04,0.19
			c-0.06,0.66-0.12,1.33,0.04,1.99c0.05,0.21,0.2,0.35,0.38,0.46c0,0.03,0,0.06,0,0.09c-0.03,0.28-0.06,0.56-0.09,0.85
			c-0.13,1.22-0.26,2.43-0.36,3.65c-0.03-0.01-0.06-0.02-0.1-0.02c-1.13-0.19-2.25-0.23-3.35-0.17c-0.8-4.04-1.33-6.22-1.33-6.22
			c-1.09-2.71-2.52-7.52-4.08-9.55c-0.48-0.63-3.95-3.33-3.33-2.81c2.2,1.82,4.1,5.38,5.11,8.2c1.29,3.57,2.03,9.02,2.27,10.53
			c-1.04,0.16-2.06,0.42-3.08,0.83c-0.14-0.21-0.28-0.41-0.41-0.63c-1.24-2.13-2.29-4.36-3.51-6.5c-2.27-3.96-4.16-7.66-8.22-10.9
			c-0.93-0.74-5.08-2.52-4.35-2.04c1.73,1.13,4.12,1.95,5.88,4.22c1.09,1.41,4.66,8.06,5.8,10.15c1.15,2.1,2.14,4.28,3.37,6.33
			c-0.7,0.32-1.39,0.65-2.07,1.02c-0.14-0.1-0.3-0.18-0.44-0.28c-2.05-1.48-6.11-9.35-12.69-11.49c-0.89-0.29,3.41,2.5,4.14,3.02
			c4.51,3.23,5.51,8.56,7.23,9.83c-0.73,0.5-1.42,1.03-2.05,1.66c-1.07,1.06,0.52,2.68,1.61,1.73c0.14,0.25,0.36,0.47,0.65,0.56
			c1.16,0.38,2.23,0.94,3.24,1.59c0.14,0.12,0.3,0.22,0.44,0.34c1.02,0.9,1.96,1.9,2.93,2.86c0.06,0.06,0.14,0.1,0.21,0.14
			c0.13,0.18,0.29,0.33,0.42,0.52c0.23,0.34,0.45,0.68,0.66,1.03c0.5,1.19,1,2.38,1.48,3.58c0.2,0.77,0.36,1.55,0.46,2.35
			c0.07,0.56,0.2,1.32,0.06,1.89c-0.18,0.77,0.63,1.43,1.34,1.03c0.75-0.43,0.84-1.24,0.83-2.03c0-0.09-0.02-0.19-0.02-0.28
			c0.19-0.1,0.35-0.27,0.43-0.54c0.16-0.04,0.31-0.11,0.45-0.25c0.68-0.66,0.95-0.9,1.33-1.75c0,0,0.37-0.12,0.37-0.12
			c0.18-0.06,0.15-0.56,0.29-0.75c0.22-0.15,0.48-0.11,0.61-0.35c0.23-0.07,0.07-0.84,0.22-1.06c0.19-0.04,0.37-0.12,0.53-0.25
			c0.43-0.37,0.82-0.77,1.2-1.19c0.28-0.17,0.53-0.42,0.79-0.7c0.35,0.08,0.72,0.01,0.98-0.32c0.33-0.41,0.66-0.81,0.97-1.23
			c0.25-0.03,0.49-0.12,0.7-0.3c0.22-0.19,0.63-0.49,0.64-0.43c0.19,1,1.54,0.8,1.83,0c0.1-0.28,0.21-0.57,0.3-0.85
			c0.34,0.22,0.75,0.34,1.32,0.23c0.4-0.07,0.73-0.46,0.83-0.83c0.33-1.19-0.4-2.45-1-3.46c-0.59-0.99-1.45-1.9-2.32-2.68
			c1.36-1.19,2.76-2.36,4.37-3.18c7.24-3.68,9.15-5.97,15.4-12.22C220.35,77.15,213.28,82.98,212.56,83.65z"/>
		<path class="st4" d="M163.59,94.96c-0.94-0.27-1.92-0.46-2.89-0.62c-0.15-0.18-0.38-0.3-0.67-0.25c-0.18,0.03-0.36,0.04-0.54,0.05
			c-0.91-0.14-1.83-0.25-2.75-0.21c-1.46-0.32-2.89-0.87-4.36-1.22c-2.45-0.59-5.08-0.92-7.47-0.08c-2.35,0.83,1.32-0.28,2.64-0.07
			c2.69,0.43,2.97,1.18,5.52,1.89c1.67,0.47,3.32,0.92,5.01,1.04c0.15,0.03,0.29,0.07,0.44,0.09c0.15,0.02,0.3,0.04,0.45,0.07
			c0.66,0.15,1.34,0.24,2.01,0.32c0.22,0.04,0.44,0.09,0.66,0.12c0.16,0.02,0.31-0.01,0.44-0.06c0.11,0.02,0.23,0.04,0.34,0.07
			c0.08,0.02,0.15,0.02,0.23,0.01c0.19,0.05,0.39,0.08,0.58,0.13C164.06,96.46,164.41,95.19,163.59,94.96z"/>
	</g>
	<path class="st4" d="M303.41,91.86c-1.5,1.24-3.28,2.18-5.09,2.84c-1.69,0.61-3.38,1.29-5.18,1.47c-1.88,0.19-3.67,0.1-5.53-0.26
		c-1.68-0.33-3.33-0.61-5-0.03c-0.8,0.28-2.11,0.84-2.75,1.67c-0.08-0.04-0.17-0.07-0.28-0.07c-1.75,0.1-3.45,0.29-5.16,0.71
		c-0.15,0.04-0.29,0.08-0.44,0.12c0.62-0.42,1.24-0.85,1.88-1.25c1.94-1.22,4.12-2.27,6.33-2.9c2.06-0.59,4.19-1.21,6.08-2.23
		c2.03-1.09,4.18-2.32,5.88-3.88c0.36-0.33,0.08-0.82-0.29-0.86c-0.11-0.06-0.24-0.08-0.39-0.01c-1.15,0.56-2.33,0.98-3.56,1.34
		c-1.07,0.31-2.14,0.39-3.22,0.6c-2.19,0.41-4.41,0.85-6.41,1.87c-1.99,1.02-3.6,2.57-5.17,4.13c-1.59,1.58-3.3,3.09-5.06,4.48
		c-0.18,0.06-0.37,0.11-0.55,0.18c-1.5,0.58-3.06,1.19-4.44,2.03c0.09-0.13,0.2-0.24,0.28-0.37c0.54-0.83,1.08-1.66,1.45-2.59
		c0.36-0.91,0.58-1.87,1.05-2.73c0.26-0.48-0.19-0.96-0.59-0.91c-0.04-0.19-0.19-0.33-0.38-0.38c-0.02-0.28-0.25-0.5-0.51-0.53
		c0.11-0.11,0.16-0.3,0.09-0.44c-0.07-0.14-0.25-0.26-0.42-0.22c-0.09,0.03-0.18,0.06-0.26,0.1c-0.1,0-0.2,0.02-0.28,0.1
		c-0.23,0.23-0.43,0.48-0.62,0.75c-0.58,0.67-1.06,1.4-1.53,2.16c-0.29,0.48-0.62,0.94-0.88,1.44c-0.25,0.48-0.39,0.99-0.56,1.49
		c-0.34,0.98-0.59,1.96-0.87,2.96c-0.13,0.47-0.15,1.01-0.3,1.46c-0.04,0.13-0.09,0.26-0.1,0.38c-0.03,0.07-0.04,0.14-0.04,0.21
		c-0.63,0.37-1.27,0.73-1.92,1.07c-1.06,0.54-2.04,1.26-3.09,1.81c-1.09,0.58-2.12,1.25-3.16,1.92c-0.64,0.41-1.25,0.85-1.86,1.28
		c1.03-0.9,1.94-1.88,2.8-2.99c0.76-0.98,1.34-2.07,1.8-3.22c0.06-0.06,0.12-0.12,0.17-0.18c0.35-0.37,0.63-0.8,1.01-1.14
		c0.38-0.34,0.82-0.62,1.2-0.96c0.35-0.31,0.71-0.61,1.06-0.93c0.08,0.08,0.17,0.15,0.28,0.2c0.21,0.09,0.47,0.09,0.69,0.05
		c0.2-0.04,0.41-0.13,0.56-0.27c0.15-0.14,0.26-0.3,0.32-0.49c0.06-0.2,0.07-0.41,0.05-0.62c-0.02-0.17-0.07-0.36-0.17-0.51
		c-0.12-0.2-0.28-0.33-0.49-0.43c-0.31-0.13-0.7-0.09-1,0.06c-0.35,0.18-0.62,0.51-0.64,0.91c-0.01,0.12,0.01,0.25,0.05,0.37
		c-0.42,0.39-0.89,0.74-1.34,1.11c-0.34,0.28-0.72,0.53-1.06,0.82c0.17-0.53,0.33-1.05,0.45-1.6c0.15-0.69,0.18-1.39,0.21-2.1
		c0.33,0.09,0.68,0.15,1.01,0.15c0.34,0,0.66-0.07,0.97-0.22c0.31-0.15,0.51-0.36,0.72-0.62c0.4-0.51,0.57-1.1,0.54-1.75
		c-0.01-0.32-0.1-0.62-0.19-0.93c0.03-0.11,0.02-0.23-0.02-0.34c-0.03-0.1-0.07-0.19-0.11-0.29c-0.01-0.09-0.03-0.18-0.03-0.27
		c0-0.18-0.11-0.31-0.25-0.38c-0.16-0.3-0.35-0.59-0.63-0.82c-0.44-0.37-1.11-0.58-1.68-0.58c-1.46,0.01-2.2,1.45-2.39,2.72
		c-0.08,0.58-0.07,1.17,0.13,1.73c0.17,0.47,0.45,0.83,0.83,1.1c-0.05,0.8-0.05,1.62-0.26,2.4c-0.2,0.75-0.46,1.45-0.72,2.18
		c-0.55,1.56-1.17,3.07-2.19,4.4c-0.55,0.72-1.09,1.41-1.77,2.02c-0.63,0.57-1.27,1.1-1.91,1.65c-1.32,1.16-2.71,2.25-3.97,3.46
		c-0.05,0.05-0.08,0.1-0.1,0.15c-0.06,0.06-0.12,0.11-0.19,0.16c-0.19,0.14-0.38,0.25-0.56,0.41c-0.06,0.06-0.13,0.1-0.2,0.15
		c-0.1,0.07-0.21,0.13-0.32,0.2c-1.03,0.66-2.09,1.29-3.13,1.96c-0.31,0.2-0.59,0.42-0.87,0.64c-0.53,0.26-1.07,0.5-1.62,0.75
		c-1.17,0.53-2.38,1-3.53,1.57c-1.23,0.61-2.46,1.22-3.7,1.81c-2.4,1.14-4.82,2.24-7.34,3.08c-0.52,0.17-1.05,0.29-1.57,0.47
		c-0.57,0.2-1.15,0.27-1.74,0.42c-1.34,0.33-2.66,0.78-3.98,1.15c-0.66,0.19-1.36,0.36-2.04,0.5c-0.74,0.15-1.49,0.12-2.23,0.22
		c-0.72,0.09-1.4,0.18-2.13,0.2c-0.29,0.01-0.55,0.07-0.83,0.11c-0.09,0.01-0.18,0-0.26,0c0.17-0.22,0.35-0.44,0.53-0.64
		c0.58-0.62,1.2-1.28,1.91-1.76c0.7-0.47,1.5-0.88,2.26-1.24c0.75-0.36,1.59-0.56,2.31-0.96c0.51-0.29,1.02-0.61,1.51-0.95
		c0.09,0.54,0.63,0.93,1.18,1.07c1.43,0.35,2.98,0.05,4.22-0.73c0.37-0.23,0.69-0.51,1.02-0.8c0.27-0.24,0.61-0.44,0.84-0.73
		c0.45-0.58,0.06-1.24-0.62-1.3c-0.54-0.05-1.11,0.11-1.65,0.16c-0.76,0.06-1.53,0.08-2.3,0.12c0.58-0.43,1.14-0.87,1.71-1.32
		c0.31-0.24,0.67-0.4,0.97-0.65c0.04-0.04,0.08-0.08,0.11-0.12c0,0,0.01,0,0.01,0c0,0,0,0-0.01,0c0,0,0.01-0.01,0.01-0.01
		c0.02-0.01,0.04-0.01,0.06-0.01c0,0-0.04,0.01-0.06,0.02c0,0,0.01,0,0.01,0c0.02,0.01,0.11,0.03,0.11,0.03
		c0.04,0.01,0.08,0.03,0.11,0.04c0.01,0.01,0.02,0.01,0.03,0.01c0.04,0.02,0.09,0.05,0.13,0.07c0.08,0.05,0.16,0.1,0.24,0.14
		c0.48,0.28,0.99,0.46,1.54,0.55c0.97,0.16,2.02-0.1,2.77-0.74c0.85-0.73,1.13-1.86,0.75-2.91c-0.18-0.49-0.55-0.96-1.01-1.22
		c-0.48-0.26-1.03-0.28-1.55-0.16c-0.62,0.14-1.2,0.42-1.7,0.82c-0.54,0.44-0.96,1.02-1.43,1.53c-0.02,0.02-0.02,0.04-0.03,0.06
		c-0.31,0.3-0.57,0.67-0.9,0.93c-0.25,0.2-0.56,0.32-0.82,0.52c-0.64,0.48-1.24,1-1.9,1.47c-0.69,0.48-1.26,1.1-1.91,1.62
		c-0.66,0.54-1.51,1.13-2.28,1.49c-1.48,0.71-2.99,1.3-4.38,2.19c-0.7,0.45-1.32,1.05-1.89,1.66c-0.52,0.56-0.89,1.24-1.39,1.81
		c-0.46,0.02-0.93,0.03-1.4,0.05c-0.7,0.03-1.43,0.09-2.11,0.24c-0.7,0.16-1.37,0.37-2.09,0.48c-2,0.33-4.01,0.42-6.02,0.41
		c0.43-0.13,0.86-0.26,1.29-0.37c2.01-0.5,4.12-0.85,6.01-1.72c3.76-1.73,7.19-4.35,9.57-7.76c0.52-0.74,1.07-1.45,1.57-2.2
		c0.55-0.69,1.08-1.4,1.57-2.13c0.58-0.86,1.08-1.91,1.23-2.94c0.05-0.33-0.27-0.56-0.56-0.53c-0.18-0.09-0.41-0.08-0.55,0.13
		c-0.24,0.36-0.51,0.7-0.79,1.04c-0.35,0.28-0.69,0.57-0.99,0.9c-0.33,0.36-0.7,0.64-1.06,0.96c-0.17,0.15-0.32,0.31-0.48,0.47
		c-0.18,0.16-0.36,0.32-0.55,0.48c-0.67,0.43-1.34,0.86-2.02,1.28c-0.99,0.61-2.04,1.09-3.04,1.67c-0.98,0.57-1.91,1.2-2.88,1.79
		c-0.96,0.58-1.98,1.06-2.95,1.61c-0.86,0.49-1.88,0.71-2.8,1.05c-1.99,0.74-4.06,1.33-6.02,2.14c-1.77,0.73-3.3,2.24-4.38,3.83
		c-0.44-0.04-0.88-0.07-1.32-0.11c-0.72-0.06-1.43-0.18-2.15-0.19c-1.54-0.02-3.08-0.12-4.62-0.2c-0.71-0.03-0.18-0.61-9.06,0.27
		c-8.88,0.88-19.41,8.33-22.65,10.1c-4.42,2.41-7.92,4.39-7.99,4.61c-0.19,0.6,0,0.97,0.62,0.81c1.43-0.37,7.8-4.73,15.69-8.85
		c1.8-0.94,4.9-2.74,6.53-3.53c4.15-2.03,10.07-2.05,11.52-2.24c0.7-0.09,3.79-0.01,4.17,0c1.59,0.05,3.17,0.16,4.76,0.22
		c1.4,0.05,2.76,0.22,4.15,0.35c1.34,0.12,2.67,0.17,4.01,0.21c0.09,0.03,0.18,0.05,0.29,0.03c0.03,0,0.05-0.01,0.08-0.02
		c0.06,0,0.12,0,0.18,0.01c1.45,0.03,2.88,0.14,4.33,0.07c0.85-0.04,1.71-0.06,2.57-0.11c-0.02,0.9,1.22,1.83,1.69,2.37
		c0.21,0.24,0.46,0.41,0.71,0.61c0.32,0.25,0.56,0.58,0.86,0.85c0.53,0.49,1.24,0.78,1.89,1.09c1.22,0.59,2.53,1.09,3.82,1.5
		c2.45,0.77,5.33,0.94,7.83,0.34c2.8-0.68,5.51-1.61,8.24-2.5c3.04-0.99,6.22-1.94,9.41-2.33c0.16-0.02,0.27-0.09,0.35-0.18
		c0.43-0.06,0.78-0.55,0.41-0.98c-0.6-0.68-1.39-0.97-2.26-1.13c-0.94-0.17-1.93-0.27-2.88-0.18c-1.07,0.11-2.15,0.19-3.19,0.46
		c-1.02,0.27-2.04,0.57-3.05,0.9c-2.08,0.67-4.43,0.81-6.59,0.71c-1.09-0.05-2.17-0.17-3.25-0.32c-1.04-0.14-2.1-0.12-3.14-0.27
		c-2.05-0.3-4.37-0.52-6.1-1.79c0.45-0.11,0.89-0.2,1.35-0.26c0.75-0.1,1.49-0.18,2.24-0.24c0.11,0.06,0.24,0.07,0.38-0.02
		c0.01,0,0.01-0.01,0.02-0.02c0.01,0,0.01,0,0.02,0c0.03,0.01,0.06,0.03,0.1,0.04c0.62,0.12,1.06,0.13,1.68,0.05
		c0.61-0.08,1.23-0.01,1.84-0.09c1.32-0.17,2.63-0.25,3.93-0.56c1.32-0.32,2.62-0.67,3.93-1.04c1.2-0.34,2.41-0.56,3.6-0.95
		c1.16-0.38,2.33-0.73,3.49-1.15c0.18-0.04,0.35-0.07,0.53-0.11c0.84-0.2,1.68-0.47,2.5-0.73c0.41-0.13,0.79-0.3,1.19-0.47
		c0.4-0.17,0.83-0.28,1.25-0.4c0.78-0.23,1.58-0.41,2.31-0.75c0.36-0.09,0.74-0.18,1.1-0.19c0.19,0,0.39,0.03,0.58,0.05
		c0.21,0.01,0.42,0.05,0.63,0.07c0.02,0,0.04,0.01,0.07,0.01c-0.14,0.26-0.21,0.55-0.19,0.89c0.03,0.55,0.15,1.16,0.35,1.67
		c0.5,1.29,1.14,2.38,2.16,3.33c0.96,0.89,2.16,1.36,3.43,1.58c0.62,0.11,1.22,0.11,1.84,0.05c0.5-0.05,1.18-0.09,1.54-0.48
		c0.24-0.26,0.25-0.61-0.05-0.84c-0.26-0.2-0.57-0.26-0.87-0.38c-0.36-0.15-0.67-0.37-0.98-0.6c-0.71-0.54-1.36-1.16-1.91-1.87
		c-0.25-0.33-0.5-0.67-0.74-1c0.37,0.19,0.75,0.38,1.11,0.58c0.56,0.3,1.09,0.64,1.68,0.89c0.52,0.22,1.06,0.31,1.61,0.39
		c0.19,0.02,0.38,0.04,0.57,0.03c0.01,0.04,0.02,0.09,0.04,0.13c0.21,0.64,0.84,1.18,1.49,1.35c0.89,0.24,1.93-0.13,2.62-0.7
		c0.37-0.31,0.65-0.72,0.72-1.2c0.08-0.5-0.14-1.02-0.49-1.38c-0.59-0.6-1.52-0.72-2.31-0.57c-0.83,0.16-1.51,0.59-2.14,1.14
		c-0.08,0.07-0.13,0.17-0.15,0.27c-0.14-0.02-0.29-0.06-0.43-0.09c-0.7-0.14-1.31-0.37-1.93-0.72c-0.62-0.35-1.25-0.67-1.88-1.02
		c-0.61-0.33-1.12-0.79-1.72-1.13c-1.09-0.6-2.16-1.16-3.36-1.52c-0.53-0.16-1.04-0.2-1.55-0.17c0.3-0.15,0.59-0.3,0.9-0.44
		c0.59-0.27,1.22-0.46,1.8-0.74c0.28-0.14,0.58-0.27,0.87-0.4c0.07-0.01,0.14-0.01,0.2-0.02c0.6-0.1,1.19-0.28,1.79-0.36
		c1.05-0.13,2.19-0.06,3.23,0.09c0.5,0.07,1,0.11,1.51,0.14c0.51,0.02,0.97,0.21,1.46,0.35c1.09,0.31,2.19,0.56,3.27,0.89
		c2.03,0.63,4.04,1.41,6.21,1.1c1.13-0.16,2.24-0.59,3.33-0.92c0.51-0.16,1.03-0.29,1.53-0.47c0.57-0.21,1.08-0.54,1.62-0.78
		c1.21-0.54,2.47-0.97,3.61-1.66c1.04-0.63,2.11-1.18,3.09-1.9c0.18-0.05,0.36-0.09,0.54-0.15c0.64-0.21,0.19-1.15-0.44-0.95
		c-0.12,0.04-0.25,0.06-0.37,0.1c-0.08,0-0.16,0.02-0.24,0.06c-0.74,0.2-1.49,0.34-2.26,0.45c-0.06-0.02-0.13-0.02-0.21-0.01
		c-0.15,0.03-0.31,0.06-0.46,0.09c-2.55,0.25-5.18,0.02-7.63-0.45c-1.82-0.35-3.59-0.81-5.44-1c-0.92-0.1-1.84-0.12-2.75-0.21
		c-0.86-0.09-1.75,0.11-2.6,0.19c-0.27,0.02-0.54,0.06-0.81,0.1c0.23-0.13,0.45-0.28,0.68-0.4c1.69-0.95,3.26-2.09,4.83-3.21
		c0.77-0.56,1.59-1.05,2.39-1.58c0.8-0.54,1.65-0.97,2.45-1.49c0.92-0.6,1.85-1.28,2.84-1.77c0.31-0.15,0.6-0.33,0.89-0.51
		c0.11,0.07,0.24,0.09,0.39,0.01c1.62-0.92,3.17-1.98,4.75-2.95c1.41-0.87,3-1.45,4.54-2.03c0.78-0.3,1.59-0.52,2.37-0.81
		c0.81-0.3,1.59-0.63,2.43-0.86c1.56-0.42,3.14-0.68,4.75-0.84c0,0.04-0.02,0.07-0.02,0.11c0,0.12,0.02,0.23,0.04,0.34
		c-0.08,0.16-0.06,0.36,0.14,0.48c0.03,0.02,0.05,0.03,0.08,0.04c0.7,1.1,2.65,1.59,3.72,1.83c0.83,0.18,1.68,0.45,2.53,0.49
		c0.89,0.05,1.79-0.11,2.66-0.25c0.88-0.15,1.73-0.4,2.6-0.61c0.94-0.23,1.69-0.54,2.54-1c1.81-0.97,3.56-2,5.21-3.23
		c1.14-0.85,2.26-1.7,3.3-2.65c0.65-0.43,1.27-0.88,1.83-1.34C304.66,92.25,303.96,91.42,303.41,91.86z M257.84,97.29
		c-0.07-0.04-0.15-0.08-0.22-0.12c-0.09-0.06-0.07-0.05-0.14-0.12c-0.21-0.22-0.35-0.47-0.41-0.73c-0.15-0.59-0.12-1.14-0.14-1.74
		c0.02-0.01,0.03-0.03,0.04-0.03c0.18-0.13,0.26-0.33,0.25-0.54c0.18,0.03,0.38,0.08,0.55,0.17c0.49,0.25,0.65,0.86,0.83,1.34
		c0.05,0.48,0.11,0.96-0.05,1.4c-0.05,0.13-0.14,0.26-0.22,0.35c-0.07,0.07-0.14,0.14-0.21,0.21
		C258.04,97.41,257.94,97.34,257.84,97.29z M225.39,115.77c0.07-0.03,0.05-0.02,0.18-0.05c0.09-0.02,0.19-0.04,0.28-0.06
		c0.08-0.01,0.13-0.01,0.16-0.01c0.05,0,0.09,0,0.14,0.01c0.02,0,0.07,0.01,0.09,0.02c0.13,0.04,0.18,0.07,0.28,0.18
		c0.13,0.15,0.22,0.29,0.29,0.5c0.06,0.19,0.05,0.38,0,0.58c-0.05,0.01-0.09,0.01-0.14,0.04c-0.1,0.05-0.2,0.1-0.31,0.14
		c-0.02,0.01-0.19,0.06-0.08,0.03c-0.04,0.01-0.08,0.02-0.12,0.03c-0.02,0-0.04,0-0.05,0.01c-0.01,0-0.01,0-0.02,0
		c-0.05-0.01-0.11-0.01-0.16-0.01c-0.04-0.01-0.08-0.01-0.13-0.02c-0.01,0-0.08-0.02-0.09-0.02c-0.27-0.07-0.52-0.16-0.78-0.25
		c-0.02-0.02-0.04-0.03-0.06-0.05c-0.2-0.15-0.42-0.26-0.66-0.27C224.54,116.22,224.91,115.93,225.39,115.77z M202.2,130.86
		c1.32,1.2,3.19,1.59,4.88,1.91c2.07,0.4,4.16,0.53,6.25,0.78c2.16,0.26,4.37,0.28,6.53,0c2.07-0.26,3.97-1.04,5.98-1.5
		c-0.29,0.12-0.58,0.23-0.88,0.33c-2.05,0.7-4.15,1.25-6.26,1.73c-2.07,0.47-4.22,0.8-6.33,0.99c-0.81,0.07-1.66,0.12-2.51,0.11
		c-0.57-0.12-1.13-0.26-1.69-0.41c-1.51-0.4-2.89-1.06-4.22-1.87c-0.57-0.35-1.2-0.58-1.76-0.95c-0.43-0.28-0.8-0.6-1.15-0.96
		C201.44,130.99,201.82,130.93,202.2,130.86z M247.07,126.32c0.1-0.05,0.29-0.12,0.34-0.13c0.13-0.04,0.26-0.07,0.4-0.09
		c0.14-0.02,0.26-0.03,0.34-0.03c0.3,0,0.47,0.03,0.72,0.13c0.01,0,0.04,0.02,0.06,0.03c0.01,0.01,0.03,0.02,0.03,0.02
		c0.05,0.03,0.1,0.07,0.15,0.11c0,0.01,0.07,0.07,0.08,0.08c0.03,0.03,0.05,0.07,0.08,0.11c0.01,0.01,0.01,0.02,0.02,0.03
		c0.02,0.04,0.04,0.08,0.06,0.12c0,0,0,0.01,0,0.01c0,0.04,0.01,0.08,0.02,0.12c0,0,0,0,0,0c0,0,0,0.01,0,0.01
		c-0.38-0.18-0.85,0-1.26,0.08c-0.01,0-0.03,0.01-0.05,0.01c-0.03,0-0.08-0.01-0.07-0.01c0,0-0.09-0.02-0.04-0.01
		c-0.17-0.04-0.34-0.1-0.5-0.16c-0.21-0.08-0.42-0.19-0.64-0.29C246.9,126.41,246.99,126.36,247.07,126.32z M246.95,115.9
		c0.91-0.08,1.86-0.23,2.76-0.11c0.92,0.13,1.84,0.1,2.76,0.2c1.84,0.21,3.62,0.67,5.45,0.97c0.73,0.12,1.47,0.22,2.21,0.3
		c-0.3,0.08-0.59,0.16-0.89,0.21c-1.18,0.21-2.37,0.17-3.56,0.26c-1.17,0.1-2.31,0.01-3.47-0.09c-1.09-0.09-2.17-0.33-3.26-0.42
		c-1.13-0.1-2.26-0.16-3.39-0.22c-0.79-0.04-1.54-0.01-2.3,0.09c0.16-0.12,0.32-0.25,0.48-0.38
		C244.78,116.3,245.86,116,246.95,115.9z M275.81,95.85c1.56-1.53,3.09-3.08,5.09-4.03c2.03-0.97,4.3-1.43,6.5-1.81
		c0.52-0.09,1.04-0.11,1.56-0.22c0.51-0.1,1-0.27,1.5-0.42c-0.97,0.6-1.93,1.22-2.94,1.76c-1.92,1.02-4.05,1.53-6.11,2.17
		c-0.99,0.3-1.99,0.73-2.94,1.14C277.55,94.84,276.66,95.34,275.81,95.85z M292.83,97.42c-0.58,0.23-1.13,0.48-1.72,0.67
		c-1.22,0.37-2.43,0.77-3.66,1.1c-0.62,0.17-1.26,0.37-1.9,0.42c-0.56,0.04-1.11,0-1.67,0.12c-0.02,0-0.04,0.02-0.06,0.02
		c-0.26-0.03-0.51-0.08-0.77-0.13c-0.25-0.05-0.49-0.08-0.75-0.09c-0.12-0.04-0.24-0.08-0.35-0.13c-0.26-0.11-1.16-0.5-1.18-0.85
		c-0.02-0.42,0.93-0.99,1.23-1.14c0.79-0.4,1.56-0.59,2.42-0.72c1.56-0.22,3.24,0.31,4.78,0.59c1.25,0.23,2.64,0.18,3.94,0.03
		C293.04,97.35,292.94,97.38,292.83,97.42z"/>
	<path class="st4" d="M215.51,146.01c-2.15-0.25-4.28-0.49-6.38-1.07c-2.09-0.57-4.14-1.23-6.18-1.97c-0.98-0.36-1.9-0.9-2.82-1.39
		c-0.68-0.36-1.35-0.75-2.01-1.15c-0.51-0.49-1.15-0.76-1.79-1.16c-0.89-0.56-1.75-1.17-2.63-1.73c-0.94-0.59-1.88-1.19-2.82-1.78
		c-0.91-0.57-1.73-1.26-2.63-1.85c-0.91-0.59-1.7-1.3-2.57-1.92c-0.86-0.61-1.78-1.1-2.62-1.74c-0.86-0.65-1.78-1.2-2.64-1.85
		c-0.92-0.69-1.89-1.29-2.86-1.9c-1.89-1.17-3.79-2.32-5.61-3.59c-1.74-1.21-3.74-2.03-5.58-3.06c-0.94-0.52-1.8-1.1-2.78-1.54
		c-0.98-0.45-1.96-0.9-2.95-1.31c-1.98-0.82-4.01-1.46-6.09-1.95c-0.56-0.13-1.1-0.31-1.66-0.43c-0.55-0.11-1.09-0.18-1.63-0.34
		c-0.84-0.24-1.67-0.49-2.51-0.74c-0.01-0.02-0.01-0.04-0.02-0.06c-0.9-0.91-1.88-1.73-2.87-2.53c-0.95-0.77-1.85-1.58-2.81-2.33
		c-1.99-1.56-4.07-2.97-6.39-4c-0.89-0.4-1.96-0.87-2.96-0.84c-0.69,0.02-1.28,0.49-1.09,1.23c0.19,0.75,0.94,1.5,1.47,2.02
		c0.84,0.83,1.81,1.56,2.74,2.28c1.14,0.88,2.44,1.52,3.69,2.23c0.3,0.17,0.61,0.32,0.92,0.47c-0.94-0.22-1.87-0.37-2.87-0.43
		c-1.51-0.09-3.03-0.23-4.54-0.39c-1.5-0.16-2.94-0.51-4.46-0.36c-0.55,0.05-1.1,0.1-1.65,0.14c-0.03-0.08-0.09-0.16-0.18-0.21
		c-0.9-0.53-1.72-1.12-2.43-1.89c-0.71-0.77-1.16-1.72-1.67-2.62c-0.54-0.94-1.08-1.88-1.64-2.81c-0.31-0.51-0.92-1.87-1.71-1.56
		c-0.77,0.3-0.55,1.53-0.44,2.15c0.16,0.94,0.5,1.81,0.84,2.7c0.68,1.76,1.6,3.35,3.01,4.62c-0.7,0.11-1.4,0.23-2.1,0.35
		c-0.47-0.12-0.94-0.26-1.38-0.47c-0.32-0.15-0.66-0.27-0.95-0.48c-0.32-0.23-0.61-0.5-0.92-0.74c-0.59-0.47-1.26-0.95-1.76-1.52
		c-0.4-0.46-0.69-0.99-0.99-1.52c0.21-0.62,0.55-1.18,0.82-1.77c0.33-0.73,0.52-1.44,0.7-2.22c0.19-0.82,0.19-1.61,0.11-2.44
		c-0.07-0.76-0.22-1.42-0.69-2.03c-0.44-0.56-1.18-0.84-1.88-0.67c-0.72,0.18-1.25,0.8-1.61,1.41c-0.14,0.24-0.3,0.51-0.52,0.68
		c-0.02,0.02-0.03,0.02-0.04,0.03c0.01-0.02,0.02-0.03,0-0.05c-0.06-0.05-0.12-0.12-0.17-0.17c-0.11-0.1-0.23-0.21-0.37-0.28
		c-0.69-0.38-1.25,0.18-1.66,0.68c-0.6,0.72-1.48,1.14-2.04,1.89c-0.37,0.49-0.45,1.05-0.37,1.6c-0.49,0.49-1.12,0.74-1.66,1.16
		c-0.54,0.42-0.83,1.03-0.85,1.71c-0.02,0.63,0.27,1.27,0.6,1.79c0.41,0.64,0.97,0.79,1.68,0.85c0.32,0.03,0.64-0.01,0.97,0.01
		c0.33,0.02,0.66,0.08,0.99,0.05c0.37-0.04,0.76-0.06,1.12-0.15c0.32-0.08,0.61-0.23,0.92-0.33c0.29-0.09,0.6-0.11,0.89-0.18
		c0.36-0.08,0.67-0.25,1.01-0.39c0.25-0.1,0.52-0.14,0.78-0.24c0.19-0.07,0.35-0.16,0.5-0.27c0.31,0.54,0.62,1.08,1.03,1.54
		c0.54,0.62,1.26,1.14,1.9,1.65c0.33,0.26,0.64,0.56,0.99,0.8c0.2,0.14,0.43,0.25,0.66,0.36c-0.88,0.1-1.76,0.2-2.63,0.37
		c-1.34,0.27-2.75,0.31-4.11,0.46c-0.77,0.09-1.54,0.15-2.31,0.19c-0.18-0.1-0.41-0.09-0.6,0.01c-0.55,0.02-1.09,0.03-1.64,0.02
		c-0.02,0-0.04,0-0.05,0c-0.04-0.05-0.09-0.08-0.15-0.11c-0.22-0.56-0.85-1.08-1.24-1.45c-0.65-0.63-1.35-1.24-2.09-1.77
		c-0.72-0.52-1.48-0.97-2.24-1.44c-0.75-0.47-1.52-1.11-2.39-1.37c-0.24-0.07-0.5,0.03-0.63,0.24c-0.35,0.53,0.17,1.13,0.46,1.56
		c0.39,0.57,0.8,1.12,1.2,1.68c0.42,0.59,1,1.07,1.54,1.55c0.27,0.24,0.54,0.47,0.83,0.67c-1.7-0.25-3.39-0.59-5.07-0.98
		c-0.04-0.04-0.09-0.07-0.15-0.09c0.02-0.08,0.03-0.16-0.01-0.26c-0.31-0.79-0.58-1.52-0.74-2.36c-0.16-0.89-0.42-1.79-0.68-2.65
		c-0.4-1.35-1.02-2.65-2.38-3.21c-1.32-0.54-2.74,0.07-3,1.56c-0.11,0.63,0.12,1.28,0.31,1.87c0.1,0.32,0.37,0.73,0.04,1
		c-0.29,0.24-0.85,0.19-1.2,0.29c-0.61,0.18-1.15,0.42-1.51,0.98c-0.35,0.57-0.31,1.3-0.05,1.89c0.14,0.31,0.33,0.63,0.52,0.91
		c0.25,0.36,0.35,0.51,0,0.83c-0.23,0.22-0.46,0.35-0.63,0.63c-0.21,0.35-0.32,0.79-0.4,1.19c-0.11,0.59-0.01,1.15,0.42,1.59
		c0.18,0.18,0.42,0.36,0.66,0.44c0.13,0.04,0.26,0.05,0.4,0.04c0.11,0,0.22-0.02,0.33-0.07c0.19-0.06,0.19-0.06,0.01,0.01
		c0.04,0.32,0,0.62,0.08,0.94c0.1,0.41,0.25,0.81,0.37,1.21c0.19,0.66,0.37,1.39,0.98,1.79c0.58,0.38,1.11,0,1.52-0.47
		c0.64-0.75,1.06-1.69,1.59-2.52c1.05-1.64,2.18-3.21,3.51-4.64c2.74,0.62,5.52,1.12,8.33,1.34c0.36,0.03,0.72,0.04,1.08,0.06
		c-0.17,0.09-0.34,0.19-0.51,0.27c-0.61,0.29-1.24,0.56-1.88,0.75c-0.63,0.18-1.29,0.3-1.93,0.43c-0.71,0.14-1.43,0.15-2.14,0.28
		c-0.35,0.07-0.51,0.54-0.25,0.8c0.34,0.34,0.87,0.36,1.3,0.42c0.6,0.09,1.22,0.09,1.82,0.05c1-0.07,1.97-0.26,2.94-0.48
		c0.27-0.01,0.53-0.07,0.79-0.1c0.32-0.04,0.54-0.22,0.8-0.34c0.32-0.15,0.53-0.35,0.77-0.6c-0.05,0.06,0.06-0.06,0.07-0.07
		c0.05-0.05,0.1-0.09,0.15-0.14c0.12-0.12,0.22-0.26,0.33-0.39c0.07-0.09,0.14-0.19,0.22-0.27c0.01,0,0.09-0.06,0.1-0.07
		c0.04-0.03,0.07-0.07,0.1-0.11c0.1-0.11,0.16-0.22,0.22-0.34c0.15,0,0.29,0.01,0.44,0c0.56-0.02,1.11-0.07,1.67-0.14
		c-0.1,0.07-0.2,0.14-0.3,0.22c-0.66,0.54-1.1,1.15-1.62,1.82c-0.34,0.44-0.66,0.89-0.96,1.35c-0.01,0-0.02-0.01-0.03-0.01
		c-0.21-0.01-0.36,0.12-0.54,0.16c-0.2,0.05-0.4,0.07-0.59,0.12c-0.45,0.1-0.9,0.21-1.35,0.31c-0.45,0.1-0.89,0.22-1.34,0.34
		c-0.41,0.12-1.01,0.21-1.14,0.69c-0.04,0.15-0.02,0.34,0.1,0.45c0.24,0.24,0.54,0.24,0.84,0.29c0.27,0.04,0.54,0.08,0.81,0.1
		c0.56,0.03,1.12,0,1.68-0.05c0.01,0,0.01,0,0.01-0.01c-0.24,0.37-0.48,0.73-0.74,1.09c-0.16,0.22-0.34,0.43-0.52,0.65
		c-0.61-0.27-1.38-0.21-2.03-0.27c-0.76-0.07-1.53-0.07-2.29-0.06c-0.76,0.01-1.51,0.05-2.26,0.17c-0.55,0.08-1.67,0.24-1.64,1
		c0.01,0.18,0.08,0.39,0.25,0.48c0.93,0.48,2,0.61,3.03,0.73c0.85,0.1,1.71,0.18,2.56,0.21c-0.44,0.3-0.89,0.57-1.37,0.78
		c-1.41,0.61-3.05,0.92-4.62,1.02c-0.09-0.24-0.23-0.46-0.34-0.69c-0.13-0.25-0.2-0.61-0.42-0.8c-0.02-0.2-0.06-0.39-0.13-0.58
		c-0.2-0.52-0.44-1.03-0.65-1.55c-0.42-1.05-1.18-1.84-2.35-1.92c-0.44-0.03-0.92,0.05-1.28,0.32c-0.49,0.36-0.6,0.94-0.66,1.5
		c-0.02,0.22,0.02,0.52-0.08,0.72c-0.12,0.24-0.33,0.22-0.57,0.28c-0.47,0.13-0.88,0.4-1.14,0.82c-0.45,0.73-0.18,1.76,0.15,2.49
		c0.15,0.33,0.37,0.67,0.42,1.03c0.08,0.57-0.57,0.69-0.94,0.95c-0.77,0.57-0.66,1.65,0.13,2.13c1.05,0.64,2.35,0.29,3.41-0.1
		c0.62-0.23,1.21-0.45,1.73-0.87c0.6-0.47,1.1-1.07,1.65-1.59c0.1-0.1,0.14-0.22,0.13-0.33c0.03-0.02,0.06-0.03,0.08-0.05
		c0.26-0.24,0.57-0.48,0.77-0.77c0.8-0.04,1.6-0.14,2.38-0.29c-0.2,0.15-0.39,0.3-0.58,0.46c-0.01,0.01-0.03,0.01-0.04,0.02
		c-0.58,0.45-1.18,0.89-1.77,1.34c-0.5,0.38-1.04,0.75-1.45,1.23c-0.37,0.44-0.58,1.22,0.15,1.45c0.5,0.16,1.09-0.02,1.56-0.21
		c1.15-0.46,2.24-1.12,3.17-1.94c0.48-0.43,0.92-0.91,1.29-1.43c0.39-0.56,0.65-1.21,1.07-1.74c0.09-0.11,0.11-0.23,0.09-0.34
		c1.2-0.64,2.25-1.51,3.22-2.48c1.37-1.37,2.46-3.09,3.45-4.75c0.94-1.58,1.89-3.22,3.7-3.9c0.11-0.04,0.17-0.11,0.2-0.19
		c0.14-0.01,0.28-0.03,0.42-0.03c1.36-0.06,2.71-0.29,4.06-0.45c1.5-0.18,3.01-0.42,4.5-0.66c0.73-0.12,1.44-0.17,2.17-0.21
		c0.69-0.04,1.37-0.15,2.06-0.14c1.24,0.02,2.44,0,3.67,0.14c-0.89,0.22-1.77,0.52-2.65,0.8c-1.86,0.59-3.72,1.22-5.34,2.33
		c-0.45,0.3-1.19,0.7-1.09,1.34c0.11,0.75,1.21,0.67,1.75,0.67c1.76-0.02,3.46-0.64,5.09-1.24c0.47-0.17,0.95-0.32,1.4-0.52
		c0.45-0.2,0.86-0.48,1.28-0.73c0.33-0.19,0.67-0.38,1-0.59c0.23-0.12,0.45-0.24,0.67-0.37c0.14-0.09,0.28-0.2,0.43-0.26
		c0.13-0.05,0.29-0.06,0.42-0.14c0.12-0.08,0.25-0.2,0.35-0.26c0.14-0.09,0.3-0.13,0.45-0.2c0.15-0.06,0.29-0.16,0.44-0.22
		c0.1-0.04,0.2-0.06,0.3-0.09c0.47,0.04,0.94,0.09,1.41,0.11c0.81,0.04,1.64-0.01,2.44,0.12c0.34,0.05,0.67,0.1,1.01,0.15
		c-0.13,0.1-0.25,0.19-0.34,0.26c-0.77,0.57-1.53,1.11-2.26,1.75c-0.8,0.7-1.59,1.42-2.41,2.11c-0.43,0.36-0.88,0.76-1.34,1.14
		c-0.04-0.07-0.08-0.12-0.16-0.16c-0.23-0.11-0.49-0.13-0.74-0.2c-0.28-0.08-0.57-0.12-0.85-0.14c-0.54-0.05-1.09-0.01-1.63,0.03
		c-0.53,0.04-1.07,0.1-1.58,0.14c-0.47,0.04-0.97,0.08-1.37,0.34c-0.23,0.15-0.37,0.5-0.13,0.73c0.25,0.24,0.56,0.22,0.88,0.24
		c0.33,0.02,0.74,0.12,1.1,0.16c0.6,0.07,1.19,0.22,1.79,0.34c-0.42,0.15-0.84,0.27-1.26,0.34c-0.39,0.06-0.82,0.17-1.21,0.18
		c-0.53,0.01-1.09-0.09-1.62-0.13c-1.04-0.09-2.04-0.23-3.07-0.42c-0.91-0.17-1.79-0.21-2.7-0.29c-1.03-0.09-2.01-0.14-3.04-0.13
		c-0.56,0-1.07,0.09-1.57,0.23c-0.04-0.3-0.12-0.58-0.19-0.89c-0.1-0.44-0.19-0.89-0.33-1.32c-0.13-0.41-0.38-0.78-0.64-1.11
		c-0.39-0.48-0.98-0.92-1.63-0.89c-0.34,0.02-0.67,0.17-0.92,0.41c-0.17,0.17-0.27,0.38-0.39,0.59c-0.14,0.24-0.3,0.43-0.34,0.72
		c-0.03,0.18-0.01,0.35,0.03,0.53c0.01,0.07,0.04,0.13,0.05,0.2c0.01,0.04-0.01,0.19,0.04,0.14c-0.07,0.1-0.34,0.13-0.45,0.19
		c-0.19,0.11-0.38,0.25-0.52,0.42c-0.26,0.29-0.36,0.7-0.47,1.07c-0.12,0.43-0.17,0.86-0.01,1.28c0.13,0.36,0.37,0.68,0.64,0.96
		c0.09,0.09,0.39,0.3,0.41,0.44c0.02,0.14-0.15,0.27-0.24,0.38c-0.48,0.61-0.48,1.64,0.2,2.11c0.77,0.53,1.84,0.16,2.44-0.46
		c0.81-0.82,1.12-2.04,1.89-2.89c0.08-0.09,0.11-0.19,0.11-0.29c0.13-0.18,0.2-0.39,0.26-0.6c0.15-0.05,0.3-0.1,0.45-0.14
		c0.49-0.11,0.98-0.08,1.47-0.08c0.89,0.01,1.74,0.06,2.62,0.14c0.13,0.01,0.25,0.02,0.38,0.03c-0.48,0.12-0.94,0.24-1.4,0.44
		c-0.17,0.07-0.36,0.12-0.54,0.17c-0.25,0.03-0.51,0.07-0.75,0.17c-0.08,0.03-0.16,0.06-0.25,0.09c0,0,0,0-0.01,0c0,0,0,0-0.01,0
		c-0.23,0.09-0.47,0.17-0.68,0.31c-0.27,0.18-0.56,0.4-0.54,0.76c0.02,0.38,0.39,0.57,0.74,0.6c0.29,0.02,0.58-0.05,0.87-0.09
		c0.41-0.05,0.81-0.09,1.22-0.14c0.36-0.04,0.7-0.16,1.04-0.28c0.38-0.13,0.76-0.25,1.13-0.4c0.42-0.17,0.83-0.37,1.23-0.59
		c0.35-0.2,0.83-0.36,1.04-0.71c0.76,0.1,1.51,0.2,2.28,0.3c0.87,0.11,1.69,0.25,2.56,0.13c0.92-0.13,1.72-0.31,2.59-0.65
		c0.95-0.37,1.71-0.82,2.51-1.46c0.8-0.64,1.58-1.32,2.34-2.02c0.86-0.79,1.69-1.6,2.54-2.39c0.32-0.3,0.69-0.55,1.02-0.84
		c0.13-0.11,0.55-0.59,0.76-0.68c0.11,0.02,0.22,0.03,0.33,0.05c0.14,0.02,0.25-0.02,0.33-0.09c1.21,0.2,2.42,0.41,3.61,0.69
		c2.04,0.48,3.99,1.24,6.05,1.63c1.01,0.19,2.02,0.5,3.01,0.77c1.01,0.28,2.01,0.62,2.99,0.99c0.98,0.38,1.94,0.8,2.89,1.24
		c0.98,0.45,2.01,0.86,2.94,1.4c0.91,0.53,1.8,1.09,2.71,1.62c0.9,0.53,1.84,0.99,2.74,1.52c0.92,0.54,1.75,1.19,2.64,1.79
		c0.89,0.61,1.84,1.16,2.76,1.73c0.94,0.59,1.89,1.17,2.83,1.77c0.92,0.59,1.77,1.29,2.69,1.89c0.89,0.59,1.73,1.25,2.62,1.82
		c0.87,0.56,1.74,1.07,2.54,1.73c0.14,0.12,0.29,0.22,0.44,0.34c0.04,0.03,0.09,0.07,0.13,0.1c0.18,0.13,0.35,0.26,0.53,0.38
		c0.41,0.29,0.83,0.58,1.25,0.85c0.18,0.12,0.36,0.25,0.53,0.38c0.96,0.71,1.95,1.35,2.96,1.99c1.03,0.65,2.09,1.28,3.09,1.97
		c0.92,0.64,2.04,1.1,2.89,1.83c0.14,0.12,0.32,0.16,0.49,0.14c1.19,0.72,2.4,1.42,3.65,2.02c0.98,0.47,2.04,0.76,3.06,1.14
		c1.06,0.4,2.13,0.69,3.22,0.97c2.45,0.63,4.89,0.94,7.42,1.05C216.13,147.04,216.15,146.08,215.51,146.01z M113.13,100.62
		c0.05-0.06,0.11-0.11,0.16-0.17c0.36-0.44,0.55-1.03,0.97-1.41c0.57-0.51,1.21-0.25,1.52,0.38c0.27,0.55,0.24,1.22,0.21,1.82
		c-0.03,0.64-0.16,1.26-0.27,1.89c-0.13,0.73-0.3,1.38-0.62,2.06c-0.1,0.21-0.22,0.46-0.33,0.73c-0.04-0.01-0.07-0.01-0.11-0.02
		c-0.07-0.35-0.14-0.7-0.21-1.05c-0.1-0.54-0.26-1.07-0.41-1.6C113.8,102.36,113.54,101.47,113.13,100.62z M108.84,103.89
		c-0.55-1.44,1.25-2.12,2.05-2.98c0.1-0.1,0.43-0.51,0.5-0.5c0.08,0.01,0.19,0.16,0.24,0.21c0.12,0.11,0.25,0.21,0.39,0.29
		c0.05,0.03,0.1,0.02,0.15,0.04c0.39,0.85,0.67,1.76,0.99,2.64c0.27,0.72,0.5,1.46,0.71,2.2c-0.18-0.03-0.36-0.05-0.53-0.09
		c-0.55-0.13-1.11-0.31-1.64-0.5c-0.95-0.34-1.9-0.68-2.83-1.08C108.88,104.03,108.87,103.96,108.84,103.89z M113.13,107.21
		c-0.26,0.09-0.5,0.21-0.77,0.27c-0.26,0.06-0.53,0.06-0.79,0.11c-0.55,0.1-1.04,0.34-1.61,0.39c-0.27,0.03-0.54,0.07-0.81,0.06
		c-0.3-0.01-0.6-0.05-0.91-0.03c-0.45,0.03-1.11,0.1-1.43-0.29c-0.3-0.37-0.57-0.9-0.52-1.38c0.07-0.8,0.77-1.12,1.37-1.53
		c0.04,0.05,0.08,0.09,0.14,0.12c1.16,0.54,2.29,1.14,3.51,1.53c0.9,0.29,1.92,0.5,2.89,0.45
		C113.86,107.06,113.51,107.08,113.13,107.21z M92.65,118.8c-0.12,0.17-0.4,0.58-0.59,0.57c-0.28-0.01-0.5-0.85-0.55-1.02
		c-0.2-0.63-0.43-1.24-0.49-1.89c0.67-0.16,1.34-0.34,1.97-0.63c0.66-0.3,1.31-0.66,1.93-1.04c0.23-0.14,0.46-0.3,0.68-0.46
		C94.56,115.78,93.66,117.35,92.65,118.8z M93.37,109.6c0.43,0.52,0.85,1.03,1.37,1.47c0.52,0.43,1.06,0.88,1.67,1.19
		c0.1,0.05,0.21,0.1,0.33,0.15c-0.08,0.07-0.16,0.14-0.24,0.2c-0.59,0.44-1.23,0.84-1.86,1.21c-0.8,0.47-1.62,0.88-2.47,1.23
		c-0.5,0.11-1.02,0.18-1.53,0.24c-0.03,0-0.06,0.02-0.09,0.04c-0.01,0-0.03,0-0.04,0c0,0-0.01,0-0.01,0c-0.01,0-0.02-0.01-0.03-0.01
		c-0.23-0.05-0.44,0.04-0.67,0c-0.49-0.1-0.55-0.58-0.45-1c0.06-0.29,0.15-0.6,0.32-0.84c0.16-0.22,0.4-0.36,0.58-0.57
		c0.32-0.37,0.5-0.85,0.33-1.32c-0.19-0.53-0.67-0.93-0.85-1.48c-0.26-0.82,0.34-1.24,1.05-1.4c0.53-0.12,1.04-0.13,1.51-0.46
		c0,0,0-0.01,0.01-0.01c0.13,0.2,0.26,0.4,0.4,0.59C92.91,109.1,93.15,109.34,93.37,109.6z M96.64,111.19
		c-0.5-0.31-0.98-0.68-1.41-1.07c-0.44-0.39-0.8-0.85-1.19-1.29c-0.4-0.45-0.77-0.9-1.12-1.4c-0.04-0.05-0.08-0.09-0.13-0.11
		c0.01-0.15,0.01-0.3-0.02-0.45c-0.11-0.55-0.37-1.06-0.48-1.62c-0.16-0.8,0.37-1.57,1.22-1.46c1.63,0.2,2.18,2.03,2.55,3.38
		c0.22,0.81,0.41,1.62,0.58,2.44c0.14,0.66,0.43,1.28,0.68,1.91C97.08,111.43,96.85,111.32,96.64,111.19z M103.51,110.43
		c0.65,0.47,1.3,0.93,1.91,1.46c0.25,0.21,0.49,0.43,0.74,0.65c-0.06-0.02-0.12-0.03-0.18-0.05c-0.6-0.23-1.21-0.46-1.8-0.73
		c-0.04-0.02-0.08-0.02-0.12-0.02c-0.71-0.52-1.34-1.18-1.93-1.82c-0.21-0.23-0.4-0.48-0.58-0.74
		C102.21,109.59,102.88,109.98,103.51,110.43z M96.59,127.06c-0.06,0.07-0.08,0.14-0.1,0.21c-0.59,0.59-1.17,1.22-1.92,1.58
		c-0.79,0.39-1.76,0.76-2.65,0.71c-0.33-0.02-1.05-0.11-1.07-0.54c-0.01-0.39,0.62-0.56,0.88-0.74c0.24-0.17,0.4-0.38,0.5-0.61
		c0.04,0.01,0.08,0,0.13-0.01c0.14-0.05,0.27,0.01,0.41,0.04c0.22,0.04,0.44,0.05,0.66,0.04c0.45-0.02,0.9-0.06,1.34-0.15
		c0.42-0.09,0.85-0.27,1.25-0.43c0.35-0.15,0.68-0.34,0.99-0.56C96.91,126.77,96.74,126.89,96.59,127.06z M94.69,124.34
		c0.62,0.45,1.11,0.99,1.63,1.55c0.04,0.04,0.08,0.07,0.13,0.09c-0.27,0.18-0.56,0.34-0.87,0.46c-0.37,0.15-0.76,0.29-1.15,0.39
		c-0.39,0.09-0.79,0.16-1.19,0.19c-0.31,0.02-0.62-0.08-0.92-0.03c-0.01-0.11-0.02-0.23-0.06-0.35c-0.18-0.58-0.51-1.07-0.65-1.66
		c-0.1-0.39-0.21-0.8,0.07-1.14c0.29-0.35,0.73-0.31,1.11-0.48c0.03-0.01,0.06-0.03,0.09-0.05c0.27,0.14,0.56,0.25,0.83,0.39
		C94.07,123.88,94.38,124.11,94.69,124.34z M96.98,125.3c-0.27-0.29-0.52-0.6-0.81-0.88c-0.3-0.29-0.64-0.54-0.98-0.78
		c-0.56-0.39-1.15-0.75-1.81-0.95c0.11-0.33,0.13-0.72,0.17-1.08c0.04-0.31,0.09-0.64,0.4-0.8c0.19-0.1,0.43-0.12,0.64-0.11
		c0.59,0.02,0.98,0.32,1.3,0.79c0.28,0.42,0.39,0.86,0.58,1.32c0.19,0.47,0.41,0.88,0.44,1.39c0.03,0.39,0.05,0.77,0.09,1.16
		C97,125.34,96.99,125.32,96.98,125.3z M105.95,122.41c-0.13,0.01-0.27,0.02-0.4,0.03c-0.2,0.03-0.39,0.07-0.59,0.11
		c-0.94-0.02-1.87-0.12-2.8-0.24c-0.37-0.05-0.76-0.1-1.14-0.16c0.01,0,0.02,0,0.03-0.01c0.64-0.09,1.28-0.1,1.92-0.12
		c0.63-0.01,1.28-0.06,1.91-0.03c0.31,0.01,0.62,0.04,0.93,0.04c0.16,0,0.33,0,0.5,0.02C106.19,122.18,106.07,122.29,105.95,122.41z
		 M126.1,111.11c-0.13,0.01-0.25,0.02-0.38,0.03c-0.08-0.02-0.16-0.03-0.26-0.06c-0.26-0.07-0.5-0.18-0.73-0.3c0,0,0-0.01-0.01-0.01
		c-0.62-0.54-1.16-1.15-1.65-1.81c-0.45-0.6-0.75-1.28-1.07-1.96c-0.34-0.7-0.65-1.45-0.88-2.19c-0.1-0.33-0.19-0.67-0.25-1.02
		c0-0.02-0.01-0.04-0.01-0.06c0.04,0.08,0.08,0.16,0.11,0.22c0.24,0.41,0.47,0.83,0.7,1.25c0.49,0.9,0.95,1.83,1.46,2.73
		C123.85,109.19,124.83,110.4,126.1,111.11z M133.35,112.94c0,0-0.01,0-0.01,0.01c-0.27,0.11-0.49,0.28-0.74,0.4
		c-0.08,0.04-0.13,0.11-0.16,0.19c-0.2,0.11-0.4,0.22-0.58,0.32c-0.65,0.36-1.29,0.75-1.98,1.02c-1.41,0.56-2.85,1.17-4.35,1.44
		c-0.35,0.06-0.71,0.11-1.06,0.12c-0.16,0.01-0.33,0.01-0.49,0.01c-0.02,0-0.06,0-0.1-0.01c0.04-0.03,0.08-0.05,0.12-0.08
		c0.32-0.21,0.65-0.41,0.98-0.59c1.46-0.8,3.08-1.22,4.67-1.71c0.85-0.26,1.68-0.57,2.53-0.81c0.4-0.11,0.82-0.22,1.23-0.34
		C133.38,112.92,133.36,112.93,133.35,112.94z M115.24,122.92c-0.38,0.54-0.72,1.17-1.45,1.27c-0.31,0.04-0.57-0.11-0.6-0.43
		c-0.03-0.35,0.21-0.52,0.38-0.78c0.08-0.12,0.1-0.22,0.13-0.33c0.01,0,0.02,0,0.03,0c0.69-0.18,1.35-0.46,1.96-0.82
		c0.13-0.08,0.26-0.15,0.4-0.23C115.8,122.04,115.54,122.49,115.24,122.92z M115.43,119.8c0.16,0.14,0.41,0.33,0.51,0.47
		c0.04,0.05,0.06,0.11,0.09,0.17c0,0.02-0.01,0.05,0,0.07c-0.27,0.17-0.54,0.32-0.82,0.48c-0.54,0.32-1.1,0.56-1.7,0.72
		c-0.03,0.01-0.06,0.03-0.09,0.04c-0.09-0.1-0.18-0.2-0.29-0.3c-0.21-0.2-0.42-0.42-0.54-0.69c-0.16-0.36-0.04-0.71,0.07-1.07
		c0.11-0.35,0.18-0.62,0.55-0.76c0.15-0.06,0.3-0.1,0.44-0.16c0.06,0.06,0.12,0.11,0.2,0.15
		C114.43,119.12,114.97,119.4,115.43,119.8z M114.13,118.02c0,0-0.01,0-0.01,0c0.01-0.11,0-0.23-0.02-0.34
		c-0.01-0.1-0.06-0.22-0.04-0.33c0.04-0.17,0.22-0.35,0.32-0.5c0.13-0.2,0.25-0.41,0.52-0.39c0.19,0.01,0.39,0.15,0.53,0.27
		c0.22,0.19,0.42,0.47,0.55,0.73c0.18,0.35,0.2,0.83,0.27,1.22c0.04,0.23,0.09,0.46,0.14,0.7c-0.12-0.1-0.22-0.18-0.35-0.29
		C115.48,118.6,114.82,118.27,114.13,118.02z M144.91,112.63c-0.04-0.04-0.1-0.08-0.16-0.11c-2.02-0.87-3.94-1.91-5.85-2.99
		c-0.93-0.52-1.75-1.17-2.58-1.84c-0.83-0.66-1.65-1.31-2.32-2.14c-0.15-0.18-0.37-0.39-0.45-0.62c-0.07-0.21-0.08-0.22,0.17-0.25
		c0.17-0.02,0.37,0.03,0.53,0.07c0.98,0.21,1.92,0.62,2.82,1.06c1.93,0.95,3.7,2.2,5.38,3.53c1.52,1.2,3.05,2.42,4.48,3.72
		C146.26,112.9,145.58,112.75,144.91,112.63z"/>
	<g>
		<path class="st2" d="M124.38,149.78c-5.74,0-6.75,5.74-6.75,36.25c0,30.51,1.01,36.25,6.75,36.25v3.15h-22.52v-3.15
			c5.85,0,6.64-6.08,6.64-36.25v-29.72l-18.35,69.12H87l-18.35-68.56v29.16c0,29.61,3.04,36.25,8.89,36.25v3.15H58.29v-3.15
			c5.74,0,6.42-8.67,6.42-36.25c0-27.58-0.68-36.25-6.42-36.25v-3.15h17.56l15.65,58.2l15.54-58.2h17.34V149.78z"/>
		<path class="st2" d="M129.44,197.74c0-17.11,6.53-28.82,19.14-28.82s19.14,11.71,19.14,28.82s-6.53,28.82-19.14,28.82
			S129.44,214.85,129.44,197.74z M157.81,197.74c0-15.09-2.03-24.99-9.23-24.99s-9.23,9.91-9.23,24.99c0,15.2,2.03,25.11,9.23,25.11
			S157.81,212.94,157.81,197.74z"/>
		<path class="st2" d="M206.1,178.15c0,6.19-3.15,9.68-6.64,9.68c-2.25,0-4.05-1.58-4.39-3.49c1.46-1.24,2.25-3.04,2.25-4.95
			c0-2.14-1.35-3.49-2.81-3.49c-1.91,0-7.32,2.48-7.32,20.15c0,20.94,1.01,26.23,6.75,26.23v3.15h-21.62v-3.15
			c5.85,0,6.75-5.4,6.75-24.54s-0.9-24.54-6.75-24.54v-3.15h14.86v10.92c2.36-8.22,6.75-12.05,10.92-12.05
			C203.29,168.92,206.1,173.42,206.1,178.15z"/>
		<path class="st2" d="M250.91,197.74c0,17.22-5.52,28.82-16.55,28.82c-4.73,0-8.56-1.8-11.03-7.09
			c0.34,21.62,1.69,26.01,6.75,26.01v3.15h-21.62v-3.15c5.85,0,6.87-5.74,6.87-36.59c0-31.18-1.01-35.69-6.87-35.69v-3.15h14.75
			v6.42c1.91-4.73,5.29-7.54,11.15-7.54C245.39,168.92,250.91,180.51,250.91,197.74z M241,197.74c0-15.31-2.03-24.54-8.89-24.54
			c-6.64,0-8.78,9.12-8.78,24.54c0,15.2,2.14,24.65,8.78,24.65C238.97,222.39,241,212.82,241,197.74z"/>
		<path class="st2" d="M301.68,222.28v3.15h-21.62v-3.15c5.85,0,6.75-4.95,6.75-34.56c0-9.01-1.8-13.06-6.42-13.06
			c-4.28,0-9.91,3.26-10.36,20.04c0.23,23.87,1.46,27.58,6.75,27.58v3.15h-21.62v-3.15c5.85,0,6.75-4.39,6.75-35.58
			s-0.9-36.81-6.75-36.81v-3.26h15.87c-0.79,9.57-1.01,20.94-1.01,34.79c2.59-9.12,7.09-12.5,13.17-12.5
			c7.43,0,12.16,4.73,12.16,18.91C295.37,217.33,295.82,222.28,301.68,222.28z"/>
	</g>
	<g>
		<path class="st2" d="M67.24,267.54c0.88,1.53,2.03,2.67,3.44,3.41c1.41,0.75,3.01,1.12,4.81,1.12c1.12,0,2.17-0.17,3.16-0.51
			c0.98-0.34,1.84-0.81,2.57-1.43c0.73-0.61,1.31-1.35,1.73-2.21c0.42-0.87,0.64-1.84,0.64-2.93c0-1.26-0.26-2.29-0.79-3.11
			c-0.53-0.82-1.23-1.49-2.11-2.01c-0.88-0.53-1.88-0.98-2.98-1.35c-1.1-0.37-2.24-0.75-3.41-1.12c-1.17-0.37-2.31-0.8-3.41-1.27
			c-1.1-0.47-2.1-1.09-2.98-1.86c-0.88-0.76-1.59-1.72-2.11-2.88c-0.53-1.15-0.79-2.58-0.79-4.28c0-1.6,0.31-3.01,0.94-4.25
			c0.63-1.24,1.48-2.27,2.55-3.11c1.07-0.83,2.3-1.46,3.69-1.88c1.39-0.42,2.85-0.64,4.38-0.64c1.97,0,3.79,0.35,5.47,1.04
			c1.68,0.7,3.13,1.86,4.35,3.49l-2.9,2.09c-0.85-1.19-1.84-2.08-2.98-2.67c-1.14-0.59-2.49-0.89-4.05-0.89
			c-1.09,0-2.12,0.14-3.11,0.43c-0.98,0.29-1.84,0.71-2.57,1.27c-0.73,0.56-1.32,1.26-1.76,2.11c-0.44,0.85-0.66,1.85-0.66,3
			c0,1.8,0.46,3.18,1.37,4.15c0.92,0.97,2.06,1.73,3.44,2.29c1.38,0.56,2.87,1.05,4.48,1.48c1.61,0.42,3.11,0.99,4.48,1.71
			c1.37,0.71,2.52,1.71,3.44,2.98c0.92,1.27,1.37,3.03,1.37,5.27c0,1.63-0.31,3.07-0.92,4.33c-0.61,1.26-1.43,2.32-2.47,3.18
			c-1.04,0.87-2.23,1.52-3.59,1.96c-1.36,0.44-2.77,0.66-4.23,0.66c-2.38,0-4.57-0.42-6.57-1.25c-2-0.83-3.72-2.23-5.14-4.2
			L67.24,267.54z"/>
		<path class="st2" d="M105.22,253.44H98.5v15.33c0,1.05,0.29,1.87,0.87,2.44c0.58,0.58,1.38,0.87,2.39,0.87
			c0.58,0,1.16-0.08,1.76-0.23c0.59-0.15,1.16-0.35,1.71-0.59l0.25,2.75c-0.58,0.2-1.24,0.39-1.99,0.56
			c-0.75,0.17-1.41,0.25-1.99,0.25c-1.09,0-2.02-0.16-2.8-0.48c-0.78-0.32-1.41-0.75-1.88-1.3c-0.48-0.54-0.82-1.18-1.04-1.91
			c-0.22-0.73-0.33-1.52-0.33-2.37v-15.33h-5.09v-2.75h5.09v-6.77h3.05v6.77h6.72V253.44z"/>
		<path class="st2" d="M130.58,267.59c0,0.44,0.02,0.98,0.05,1.6c0.03,0.63,0.06,1.26,0.08,1.91c0.02,0.64,0.04,1.25,0.08,1.81
			c0.03,0.56,0.05,0.99,0.05,1.3h-3.05c-0.03-0.88-0.06-1.73-0.08-2.55c-0.02-0.81-0.06-1.34-0.13-1.58h-0.15
			c-0.61,1.29-1.63,2.4-3.05,3.33c-1.43,0.93-3.09,1.4-4.99,1.4c-1.83,0-3.33-0.29-4.51-0.87c-1.17-0.58-2.09-1.33-2.75-2.27
			c-0.66-0.93-1.11-2.01-1.35-3.23c-0.24-1.22-0.36-2.48-0.36-3.77v-14h3.05v13.85c0,0.95,0.08,1.88,0.25,2.78
			c0.17,0.9,0.47,1.71,0.89,2.42c0.42,0.71,1.02,1.28,1.78,1.71s1.76,0.64,2.98,0.64c1.12,0,2.18-0.19,3.18-0.58
			c1-0.39,1.87-0.98,2.6-1.78c0.73-0.8,1.31-1.8,1.73-3c0.42-1.2,0.64-2.62,0.64-4.25v-11.76h3.06V267.59z"/>
		<path class="st2" d="M159.55,270.09h-0.1c-0.48,0.81-1.07,1.52-1.78,2.11s-1.49,1.09-2.32,1.48c-0.83,0.39-1.71,0.68-2.62,0.87
			c-0.92,0.19-1.82,0.28-2.7,0.28c-1.8,0-3.46-0.31-4.99-0.92c-1.53-0.61-2.83-1.47-3.92-2.57c-1.09-1.1-1.93-2.41-2.55-3.92
			c-0.61-1.51-0.92-3.16-0.92-4.96c0-1.8,0.31-3.45,0.92-4.96c0.61-1.51,1.46-2.82,2.55-3.92c1.09-1.1,2.39-1.96,3.92-2.57
			c1.53-0.61,3.19-0.92,4.99-0.92c0.88,0,1.78,0.09,2.7,0.28c0.92,0.19,1.79,0.48,2.62,0.87c0.83,0.39,1.6,0.88,2.32,1.48
			c0.71,0.59,1.31,1.3,1.78,2.11h0.1v-19.09h3.05v38.49h-3.05V270.09z M159.85,262.45c0-1.32-0.25-2.57-0.76-3.74
			c-0.51-1.17-1.21-2.19-2.09-3.05c-0.88-0.87-1.92-1.55-3.11-2.06c-1.19-0.51-2.48-0.76-3.87-0.76c-1.43,0-2.72,0.25-3.87,0.76
			c-1.15,0.51-2.14,1.2-2.95,2.06c-0.81,0.87-1.43,1.88-1.86,3.05c-0.42,1.17-0.64,2.42-0.64,3.74c0,1.32,0.21,2.57,0.64,3.74
			c0.42,1.17,1.04,2.19,1.86,3.05c0.81,0.87,1.8,1.55,2.95,2.06c1.15,0.51,2.44,0.76,3.87,0.76c1.39,0,2.68-0.25,3.87-0.76
			c1.19-0.51,2.22-1.2,3.11-2.06c0.88-0.87,1.58-1.88,2.09-3.05C159.6,265.02,159.85,263.78,159.85,262.45z"/>
		<path class="st2" d="M169.88,241.37c0-0.64,0.22-1.19,0.66-1.63c0.44-0.44,0.98-0.66,1.63-0.66c0.64,0,1.19,0.22,1.63,0.66
			c0.44,0.44,0.66,0.99,0.66,1.63c0,0.65-0.22,1.19-0.66,1.63c-0.44,0.44-0.98,0.66-1.63,0.66c-0.65,0-1.19-0.22-1.63-0.66
			C170.1,242.56,169.88,242.02,169.88,241.37z M170.65,250.69h3.05v23.52h-3.05V250.69z"/>
		<path class="st2" d="M181.03,262.45c0-1.8,0.31-3.45,0.92-4.96c0.61-1.51,1.46-2.82,2.55-3.92c1.09-1.1,2.39-1.96,3.92-2.57
			c1.53-0.61,3.19-0.92,4.99-0.92c1.8,0,3.45,0.31,4.96,0.92c1.51,0.61,2.82,1.47,3.92,2.57c1.1,1.1,1.96,2.41,2.57,3.92
			c0.61,1.51,0.92,3.17,0.92,4.96c0,1.8-0.31,3.45-0.92,4.96c-0.61,1.51-1.47,2.82-2.57,3.92c-1.1,1.1-2.41,1.96-3.92,2.57
			c-1.51,0.61-3.17,0.92-4.96,0.92c-1.8,0-3.46-0.31-4.99-0.92c-1.53-0.61-2.83-1.47-3.92-2.57c-1.09-1.1-1.93-2.41-2.55-3.92
			C181.34,265.91,181.03,264.25,181.03,262.45z M184.09,262.45c0,1.32,0.21,2.57,0.64,3.74c0.42,1.17,1.04,2.19,1.86,3.05
			c0.81,0.87,1.8,1.55,2.95,2.06c1.15,0.51,2.44,0.76,3.87,0.76c1.43,0,2.71-0.25,3.87-0.76c1.15-0.51,2.14-1.2,2.95-2.06
			c0.81-0.87,1.43-1.88,1.86-3.05c0.42-1.17,0.64-2.42,0.64-3.74c0-1.32-0.21-2.57-0.64-3.74c-0.42-1.17-1.04-2.19-1.86-3.05
			c-0.81-0.87-1.8-1.55-2.95-2.06c-1.15-0.51-2.44-0.76-3.87-0.76c-1.43,0-2.72,0.25-3.87,0.76c-1.15,0.51-2.14,1.2-2.95,2.06
			c-0.81,0.87-1.43,1.88-1.86,3.05C184.3,259.88,184.09,261.13,184.09,262.45z"/>
	</g>
	<line class="st14" x1="215.18" y1="263.07" x2="308.24" y2="263.07"/>
</g>
</svg>
